<svg xmlns="http://www.w3.org/2000/svg" xmlns:xlink="http://www.w3.org/1999/xlink" width="499" zoomAndPan="magnify" viewBox="0 0 374.25 227.999995" height="304" preserveAspectRatio="xMidYMid meet" version="1.0"><defs><clipPath id="32e6af239d"><path d="M 0 0.226562 L 57 0.226562 L 57 93 L 0 93 Z M 0 0.226562 " clip-rule="nonzero"/></clipPath><clipPath id="1afb3d608c"><path d="M 63 0.226562 L 120 0.226562 L 120 95 L 63 95 Z M 63 0.226562 " clip-rule="nonzero"/></clipPath><clipPath id="108c685bc1"><path d="M 126 0.226562 L 181 0.226562 L 181 93 L 126 93 Z M 126 0.226562 " clip-rule="nonzero"/></clipPath><clipPath id="bf55bbb84d"><path d="M 187 0.226562 L 245 0.226562 L 245 93 L 187 93 Z M 187 0.226562 " clip-rule="nonzero"/></clipPath><clipPath id="ea100a5131"><path d="M 251 0.226562 L 293 0.226562 L 293 93 L 251 93 Z M 251 0.226562 " clip-rule="nonzero"/></clipPath><clipPath id="344911f50a"><path d="M 297 0.226562 L 352 0.226562 L 352 93 L 297 93 Z M 297 0.226562 " clip-rule="nonzero"/></clipPath><clipPath id="17e1a11d6d"><path d="M 7 207 L 22 207 L 22 227.769531 L 7 227.769531 Z M 7 207 " clip-rule="nonzero"/></clipPath><clipPath id="115f93918d"><path d="M 30 207 L 50 207 L 50 227.769531 L 30 227.769531 Z M 30 207 " clip-rule="nonzero"/></clipPath><clipPath id="01010da07b"><path d="M 60 207 L 76 207 L 76 227.769531 L 60 227.769531 Z M 60 207 " clip-rule="nonzero"/></clipPath><clipPath id="a258438ead"><path d="M 87 207 L 102 207 L 102 227.769531 L 87 227.769531 Z M 87 207 " clip-rule="nonzero"/></clipPath><clipPath id="f089a4897b"><path d="M 113 207 L 129 207 L 129 227.769531 L 113 227.769531 Z M 113 207 " clip-rule="nonzero"/></clipPath><clipPath id="61c9b20ebd"><path d="M 154 206 L 172 206 L 172 227.769531 L 154 227.769531 Z M 154 206 " clip-rule="nonzero"/></clipPath><clipPath id="657b77a78a"><path d="M 182 206 L 201 206 L 201 227.769531 L 182 227.769531 Z M 182 206 " clip-rule="nonzero"/></clipPath><clipPath id="0111765b52"><path d="M 213 207 L 235 207 L 235 227.769531 L 213 227.769531 Z M 213 207 " clip-rule="nonzero"/></clipPath><clipPath id="631b40d4ae"><path d="M 247 207 L 263 207 L 263 227.769531 L 247 227.769531 Z M 247 207 " clip-rule="nonzero"/></clipPath><clipPath id="2c98bb63e1"><path d="M 270 207 L 291 207 L 291 227.769531 L 270 227.769531 Z M 270 207 " clip-rule="nonzero"/></clipPath><clipPath id="1b61f9b3c0"><path d="M 301 207 L 319 207 L 319 227.769531 L 301 227.769531 Z M 301 207 " clip-rule="nonzero"/></clipPath><clipPath id="77feed460c"><path d="M 329 207 L 348 207 L 348 227.769531 L 329 227.769531 Z M 329 207 " clip-rule="nonzero"/></clipPath><clipPath id="aa44cd0185"><path d="M 329.515625 141 L 373.347656 141 L 373.347656 166.339844 L 329.515625 166.339844 Z M 329.515625 141 " clip-rule="nonzero"/></clipPath><clipPath id="1cf9a35bf9"><path d="M 0 0.226562 L 57 0.226562 L 57 93 L 0 93 Z M 0 0.226562 " clip-rule="nonzero"/></clipPath><clipPath id="2788d92cdd"><path d="M 63 0.226562 L 120 0.226562 L 120 95 L 63 95 Z M 63 0.226562 " clip-rule="nonzero"/></clipPath><clipPath id="ec5fb33ac3"><path d="M 126 0.226562 L 181 0.226562 L 181 93 L 126 93 Z M 126 0.226562 " clip-rule="nonzero"/></clipPath><clipPath id="e87f057285"><path d="M 187 0.226562 L 245 0.226562 L 245 93 L 187 93 Z M 187 0.226562 " clip-rule="nonzero"/></clipPath><clipPath id="a3066eb3ae"><path d="M 251 0.226562 L 293 0.226562 L 293 93 L 251 93 Z M 251 0.226562 " clip-rule="nonzero"/></clipPath><clipPath id="2d25baf0cb"><path d="M 297 0.226562 L 352 0.226562 L 352 93 L 297 93 Z M 297 0.226562 " clip-rule="nonzero"/></clipPath><clipPath id="3ee99dd408"><path d="M 7 207 L 22 207 L 22 227.769531 L 7 227.769531 Z M 7 207 " clip-rule="nonzero"/></clipPath><clipPath id="f2180d9260"><path d="M 30 207 L 50 207 L 50 227.769531 L 30 227.769531 Z M 30 207 " clip-rule="nonzero"/></clipPath><clipPath id="0f791b6fd1"><path d="M 60 207 L 76 207 L 76 227.769531 L 60 227.769531 Z M 60 207 " clip-rule="nonzero"/></clipPath><clipPath id="10040760ee"><path d="M 87 207 L 102 207 L 102 227.769531 L 87 227.769531 Z M 87 207 " clip-rule="nonzero"/></clipPath><clipPath id="feb3d8eb45"><path d="M 113 207 L 129 207 L 129 227.769531 L 113 227.769531 Z M 113 207 " clip-rule="nonzero"/></clipPath><clipPath id="5ecb101b17"><path d="M 154 206 L 172 206 L 172 227.769531 L 154 227.769531 Z M 154 206 " clip-rule="nonzero"/></clipPath><clipPath id="f658aae42e"><path d="M 182 206 L 201 206 L 201 227.769531 L 182 227.769531 Z M 182 206 " clip-rule="nonzero"/></clipPath><clipPath id="fbc9105a03"><path d="M 213 207 L 235 207 L 235 227.769531 L 213 227.769531 Z M 213 207 " clip-rule="nonzero"/></clipPath><clipPath id="ae3467644c"><path d="M 247 207 L 263 207 L 263 227.769531 L 247 227.769531 Z M 247 207 " clip-rule="nonzero"/></clipPath><clipPath id="d984e8ee6a"><path d="M 270 207 L 291 207 L 291 227.769531 L 270 227.769531 Z M 270 207 " clip-rule="nonzero"/></clipPath><clipPath id="299fce1e62"><path d="M 301 207 L 319 207 L 319 227.769531 L 301 227.769531 Z M 301 207 " clip-rule="nonzero"/></clipPath><clipPath id="5e2cace224"><path d="M 329 207 L 348 207 L 348 227.769531 L 329 227.769531 Z M 329 207 " clip-rule="nonzero"/></clipPath><clipPath id="9ff748f6c7"><path d="M 329.515625 141 L 373.347656 141 L 373.347656 166.339844 L 329.515625 166.339844 Z M 329.515625 141 " clip-rule="nonzero"/></clipPath><clipPath id="6b313f3d39"><path d="M 0 0.226562 L 57 0.226562 L 57 93 L 0 93 Z M 0 0.226562 " clip-rule="nonzero"/></clipPath><clipPath id="5c03f7fccc"><path d="M 63 0.226562 L 120 0.226562 L 120 95 L 63 95 Z M 63 0.226562 " clip-rule="nonzero"/></clipPath><clipPath id="d59cbb34d5"><path d="M 126 0.226562 L 181 0.226562 L 181 93 L 126 93 Z M 126 0.226562 " clip-rule="nonzero"/></clipPath><clipPath id="c153536223"><path d="M 187 0.226562 L 245 0.226562 L 245 93 L 187 93 Z M 187 0.226562 " clip-rule="nonzero"/></clipPath><clipPath id="d7bdcb0d63"><path d="M 251 0.226562 L 293 0.226562 L 293 93 L 251 93 Z M 251 0.226562 " clip-rule="nonzero"/></clipPath><clipPath id="627718bced"><path d="M 297 0.226562 L 352 0.226562 L 352 93 L 297 93 Z M 297 0.226562 " clip-rule="nonzero"/></clipPath><clipPath id="9abcb75b71"><path d="M 7 207 L 22 207 L 22 227.769531 L 7 227.769531 Z M 7 207 " clip-rule="nonzero"/></clipPath><clipPath id="6b2e3d51f0"><path d="M 30 207 L 50 207 L 50 227.769531 L 30 227.769531 Z M 30 207 " clip-rule="nonzero"/></clipPath><clipPath id="1a53377003"><path d="M 60 207 L 76 207 L 76 227.769531 L 60 227.769531 Z M 60 207 " clip-rule="nonzero"/></clipPath><clipPath id="967cc71567"><path d="M 87 207 L 102 207 L 102 227.769531 L 87 227.769531 Z M 87 207 " clip-rule="nonzero"/></clipPath><clipPath id="80b4bc1ca7"><path d="M 113 207 L 129 207 L 129 227.769531 L 113 227.769531 Z M 113 207 " clip-rule="nonzero"/></clipPath><clipPath id="7567a64161"><path d="M 154 206 L 172 206 L 172 227.769531 L 154 227.769531 Z M 154 206 " clip-rule="nonzero"/></clipPath><clipPath id="7631c67bed"><path d="M 182 206 L 201 206 L 201 227.769531 L 182 227.769531 Z M 182 206 " clip-rule="nonzero"/></clipPath><clipPath id="754d25097d"><path d="M 213 207 L 235 207 L 235 227.769531 L 213 227.769531 Z M 213 207 " clip-rule="nonzero"/></clipPath><clipPath id="460ef1102c"><path d="M 247 207 L 263 207 L 263 227.769531 L 247 227.769531 Z M 247 207 " clip-rule="nonzero"/></clipPath><clipPath id="8bae998e47"><path d="M 270 207 L 291 207 L 291 227.769531 L 270 227.769531 Z M 270 207 " clip-rule="nonzero"/></clipPath><clipPath id="0044635956"><path d="M 301 207 L 319 207 L 319 227.769531 L 301 227.769531 Z M 301 207 " clip-rule="nonzero"/></clipPath><clipPath id="15e3810425"><path d="M 329 207 L 348 207 L 348 227.769531 L 329 227.769531 Z M 329 207 " clip-rule="nonzero"/></clipPath><clipPath id="a3f332b716"><path d="M 329.515625 141 L 373.347656 141 L 373.347656 166.339844 L 329.515625 166.339844 Z M 329.515625 141 " clip-rule="nonzero"/></clipPath><clipPath id="a9f2482317"><path d="M 0 0.226562 L 57 0.226562 L 57 93 L 0 93 Z M 0 0.226562 " clip-rule="nonzero"/></clipPath><clipPath id="f03d0efd2b"><path d="M 63 0.226562 L 120 0.226562 L 120 95 L 63 95 Z M 63 0.226562 " clip-rule="nonzero"/></clipPath><clipPath id="f5bb79501c"><path d="M 126 0.226562 L 181 0.226562 L 181 93 L 126 93 Z M 126 0.226562 " clip-rule="nonzero"/></clipPath><clipPath id="b42792b8fa"><path d="M 187 0.226562 L 245 0.226562 L 245 93 L 187 93 Z M 187 0.226562 " clip-rule="nonzero"/></clipPath><clipPath id="806ae0eac5"><path d="M 251 0.226562 L 293 0.226562 L 293 93 L 251 93 Z M 251 0.226562 " clip-rule="nonzero"/></clipPath><clipPath id="296293df9f"><path d="M 297 0.226562 L 352 0.226562 L 352 93 L 297 93 Z M 297 0.226562 " clip-rule="nonzero"/></clipPath><clipPath id="ff112a3e83"><path d="M 7 207 L 22 207 L 22 227.769531 L 7 227.769531 Z M 7 207 " clip-rule="nonzero"/></clipPath><clipPath id="d136082458"><path d="M 30 207 L 50 207 L 50 227.769531 L 30 227.769531 Z M 30 207 " clip-rule="nonzero"/></clipPath><clipPath id="9e16eddfa3"><path d="M 60 207 L 76 207 L 76 227.769531 L 60 227.769531 Z M 60 207 " clip-rule="nonzero"/></clipPath><clipPath id="9c0dc7b0ff"><path d="M 87 207 L 102 207 L 102 227.769531 L 87 227.769531 Z M 87 207 " clip-rule="nonzero"/></clipPath><clipPath id="af20a952b5"><path d="M 113 207 L 129 207 L 129 227.769531 L 113 227.769531 Z M 113 207 " clip-rule="nonzero"/></clipPath><clipPath id="91e78723da"><path d="M 154 206 L 172 206 L 172 227.769531 L 154 227.769531 Z M 154 206 " clip-rule="nonzero"/></clipPath><clipPath id="1a50527035"><path d="M 182 206 L 201 206 L 201 227.769531 L 182 227.769531 Z M 182 206 " clip-rule="nonzero"/></clipPath><clipPath id="a893703b0f"><path d="M 213 207 L 235 207 L 235 227.769531 L 213 227.769531 Z M 213 207 " clip-rule="nonzero"/></clipPath><clipPath id="a0dc92cee6"><path d="M 247 207 L 263 207 L 263 227.769531 L 247 227.769531 Z M 247 207 " clip-rule="nonzero"/></clipPath><clipPath id="96b74922eb"><path d="M 270 207 L 291 207 L 291 227.769531 L 270 227.769531 Z M 270 207 " clip-rule="nonzero"/></clipPath><clipPath id="970140a972"><path d="M 301 207 L 319 207 L 319 227.769531 L 301 227.769531 Z M 301 207 " clip-rule="nonzero"/></clipPath><clipPath id="eb4685c5c6"><path d="M 329 207 L 348 207 L 348 227.769531 L 329 227.769531 Z M 329 207 " clip-rule="nonzero"/></clipPath><clipPath id="7cbaf1fb4e"><path d="M 329.515625 141 L 373.347656 141 L 373.347656 166.339844 L 329.515625 166.339844 Z M 329.515625 141 " clip-rule="nonzero"/></clipPath></defs><g clip-path="url(#32e6af239d)"><path fill="#000000" d="M 56.488281 23.054688 L 56.488281 74.902344 C 56.488281 80.578125 54.59375 84.878906 50.816406 87.796875 C 47.03125 90.722656 42.09375 92.183594 35.992188 92.183594 L 0.03125 92.183594 L 0.03125 0.101562 L 30.832031 0.101562 C 36.503906 0.101562 41.183594 0.726562 44.875 1.972656 C 48.574219 3.21875 51.433594 5.519531 53.449219 8.871094 C 55.472656 12.226562 56.488281 16.949219 56.488281 23.054688 Z M 32.769531 69.875 L 32.769531 22.410156 C 32.769531 20.6875 32.273438 19.121094 31.289062 17.703125 C 30.300781 16.289062 29.035156 15.578125 27.488281 15.578125 L 23.75 15.578125 L 23.75 76.707031 L 27.488281 76.707031 C 29.035156 76.707031 30.300781 76.019531 31.289062 74.648438 C 32.273438 73.269531 32.769531 71.675781 32.769531 69.875 Z M 32.769531 69.875 " fill-opacity="1" fill-rule="nonzero"/></g><g clip-path="url(#1afb3d608c)"><path fill="#000000" d="M 87.160156 70.898438 C 87.160156 73.742188 87.589844 75.613281 88.449219 76.515625 C 89.308594 77.414062 90.378906 77.863281 91.660156 77.863281 C 92.953125 77.863281 94.027344 77.414062 94.886719 76.515625 C 95.746094 75.613281 96.175781 73.742188 96.175781 70.898438 L 96.175781 0.101562 L 119.894531 0.101562 L 119.894531 67.546875 C 119.894531 85.265625 110.480469 94.117188 91.660156 94.117188 C 72.847656 94.117188 63.441406 85.265625 63.441406 67.546875 L 63.441406 0.101562 L 87.160156 0.101562 Z M 87.160156 70.898438 " fill-opacity="1" fill-rule="nonzero"/></g><g clip-path="url(#108c685bc1)"><path fill="#000000" d="M 160.484375 45.886719 L 160.742188 45.886719 L 160.742188 0.101562 L 180.859375 0.101562 L 180.859375 92.183594 L 160.742188 92.183594 L 147.34375 40.722656 L 146.953125 40.722656 L 146.953125 92.183594 L 126.847656 92.183594 L 126.847656 0.101562 L 146.953125 0.101562 Z M 160.484375 45.886719 " fill-opacity="1" fill-rule="nonzero"/></g><g clip-path="url(#bf55bbb84d)"><path fill="#000000" d="M 244.261719 23.054688 L 244.261719 74.902344 C 244.261719 80.578125 242.371094 84.878906 238.59375 87.796875 C 234.808594 90.722656 229.871094 92.183594 223.769531 92.183594 L 187.808594 92.183594 L 187.808594 0.101562 L 218.609375 0.101562 C 224.28125 0.101562 228.960938 0.726562 232.652344 1.972656 C 236.351562 3.21875 239.210938 5.519531 241.226562 8.871094 C 243.25 12.226562 244.261719 16.949219 244.261719 23.054688 Z M 220.542969 69.875 L 220.542969 22.410156 C 220.542969 20.6875 220.050781 19.121094 219.066406 17.703125 C 218.078125 16.289062 216.8125 15.578125 215.261719 15.578125 L 211.527344 15.578125 L 211.527344 76.707031 L 215.261719 76.707031 C 216.8125 76.707031 218.078125 76.019531 219.066406 74.648438 C 220.050781 73.269531 220.542969 71.675781 220.542969 69.875 Z M 220.542969 69.875 " fill-opacity="1" fill-rule="nonzero"/></g><g clip-path="url(#ea100a5131)"><path fill="#000000" d="M 291.304688 18.671875 L 274.9375 18.671875 L 274.9375 35.574219 L 290.269531 35.574219 L 290.269531 53.363281 L 274.9375 53.363281 L 274.9375 73.613281 L 292.59375 73.613281 L 292.59375 92.183594 L 251.21875 92.183594 L 251.21875 0.101562 L 291.304688 0.101562 Z M 291.304688 18.671875 " fill-opacity="1" fill-rule="nonzero"/></g><g clip-path="url(#344911f50a)"><path fill="#000000" d="M 350.964844 18.28125 L 350.964844 27.574219 C 350.964844 32.648438 349.804688 36.453125 347.484375 38.988281 C 345.175781 41.527344 341.695312 42.964844 337.058594 43.304688 L 337.058594 43.5625 C 342.128906 43.910156 345.863281 45.375 348.265625 47.957031 C 350.675781 50.53125 351.878906 54.355469 351.878906 59.425781 L 351.878906 92.183594 L 329.707031 92.183594 L 329.707031 56.847656 C 329.707031 51.773438 327.644531 49.234375 323.523438 49.234375 C 322.574219 49.234375 321.671875 49.367188 320.8125 49.625 L 320.8125 92.183594 L 297.871094 92.183594 L 297.871094 0.101562 L 325.582031 0.101562 C 331.082031 0.101562 335.59375 0.511719 339.113281 1.328125 C 342.632812 2.144531 345.488281 3.863281 347.671875 6.488281 C 349.867188 9.109375 350.964844 13.039062 350.964844 18.28125 Z M 322.492188 35.304688 C 325.238281 35.304688 327.128906 34.683594 328.160156 33.4375 C 329.191406 32.191406 329.707031 30.753906 329.707031 29.121094 L 329.707031 21 C 329.707031 19.449219 329.191406 18.027344 328.160156 16.734375 C 327.128906 15.445312 325.277344 14.800781 322.613281 14.800781 L 320.8125 14.800781 L 320.8125 35.304688 Z M 322.492188 35.304688 " fill-opacity="1" fill-rule="nonzero"/></g><path fill="#000000" d="M 39.285156 152.027344 L 39.539062 152.027344 L 45.089844 98.257812 L 77.046875 98.257812 L 77.046875 190.335938 L 56.941406 190.335938 L 56.941406 121.992188 L 56.6875 121.992188 L 46.753906 190.335938 L 31.8125 190.335938 L 21.882812 121.992188 L 21.625 121.992188 L 21.625 190.335938 L 1.523438 190.335938 L 1.523438 98.257812 L 33.101562 98.257812 Z M 39.285156 152.027344 " fill-opacity="1" fill-rule="nonzero"/><path fill="#000000" d="M 82.328125 98.257812 L 106.046875 98.257812 L 106.046875 190.335938 L 82.328125 190.335938 Z M 82.328125 98.257812 " fill-opacity="1" fill-rule="nonzero"/><path fill="#000000" d="M 151.28125 116.828125 L 135.046875 116.828125 L 135.046875 133.730469 L 148.96875 133.730469 L 148.96875 151.519531 L 135.046875 151.519531 L 135.046875 190.335938 L 111.328125 190.335938 L 111.328125 98.257812 L 151.28125 98.257812 Z M 151.28125 116.828125 " fill-opacity="1" fill-rule="nonzero"/><path fill="#000000" d="M 194.195312 116.828125 L 177.960938 116.828125 L 177.960938 133.730469 L 191.882812 133.730469 L 191.882812 151.519531 L 177.960938 151.519531 L 177.960938 190.335938 L 154.246094 190.335938 L 154.246094 98.257812 L 194.195312 98.257812 Z M 194.195312 116.828125 " fill-opacity="1" fill-rule="nonzero"/><path fill="#000000" d="M 220.878906 172.535156 L 236.601562 172.535156 L 236.601562 190.335938 L 197.160156 190.335938 L 197.160156 98.257812 L 220.878906 98.257812 Z M 220.878906 172.535156 " fill-opacity="1" fill-rule="nonzero"/><path fill="#000000" d="M 239.6875 98.257812 L 263.40625 98.257812 L 263.40625 190.335938 L 239.6875 190.335938 Z M 239.6875 98.257812 " fill-opacity="1" fill-rule="nonzero"/><path fill="#000000" d="M 302.324219 144.042969 L 302.578125 144.042969 L 302.578125 98.257812 L 322.695312 98.257812 L 322.695312 190.335938 L 302.578125 190.335938 L 289.183594 138.878906 L 288.792969 138.878906 L 288.792969 190.335938 L 268.6875 190.335938 L 268.6875 98.257812 L 288.792969 98.257812 Z M 302.324219 144.042969 " fill-opacity="1" fill-rule="nonzero"/><path fill="#000000" d="M 346.664062 185.820312 C 346.664062 188.3125 345.953125 190.847656 344.527344 193.429688 C 343.113281 196.011719 341.136719 198.179688 338.601562 199.9375 C 336.066406 201.703125 333.167969 202.585938 329.910156 202.585938 L 329.261719 195.621094 C 330.8125 195.539062 331.949219 194.960938 332.675781 193.886719 C 333.410156 192.8125 333.777344 191.628906 333.777344 190.335938 L 328.875 190.335938 L 328.875 171.769531 L 346.664062 171.769531 Z M 346.664062 185.820312 " fill-opacity="1" fill-rule="nonzero"/><g clip-path="url(#17e1a11d6d)"><path fill="#000000" d="M 15.054688 207.222656 C 16.503906 207.222656 17.742188 207.488281 18.761719 208.015625 C 19.789062 208.546875 20.570312 209.289062 21.101562 210.246094 C 21.628906 211.199219 21.894531 212.3125 21.894531 213.582031 C 21.894531 214.84375 21.628906 215.953125 21.101562 216.902344 C 20.570312 217.855469 19.789062 218.597656 18.761719 219.132812 C 17.742188 219.664062 16.503906 219.929688 15.054688 219.929688 L 11.238281 219.929688 L 11.238281 227.472656 L 7.234375 227.472656 L 7.234375 207.222656 Z M 14.53125 216.753906 C 16.75 216.753906 17.863281 215.699219 17.863281 213.582031 C 17.863281 211.457031 16.75 210.394531 14.53125 210.394531 L 11.238281 210.394531 L 11.238281 216.753906 Z M 14.53125 216.753906 " fill-opacity="1" fill-rule="nonzero"/></g><g clip-path="url(#115f93918d)"><path fill="#000000" d="M 49.40625 227.472656 L 45.203125 227.472656 L 43.683594 222.804688 L 35.929688 222.804688 L 34.410156 227.472656 L 30.300781 227.472656 L 37.285156 207.222656 L 42.421875 207.222656 Z M 39.613281 211.445312 L 37.003906 219.429688 L 42.582031 219.429688 L 39.960938 211.445312 Z M 39.613281 211.445312 " fill-opacity="1" fill-rule="nonzero"/></g><g clip-path="url(#01010da07b)"><path fill="#000000" d="M 68.453125 207.222656 C 69.902344 207.222656 71.140625 207.488281 72.160156 208.015625 C 73.1875 208.546875 73.96875 209.289062 74.5 210.246094 C 75.027344 211.199219 75.292969 212.3125 75.292969 213.582031 C 75.292969 214.84375 75.027344 215.953125 74.5 216.902344 C 73.96875 217.855469 73.1875 218.597656 72.160156 219.132812 C 71.140625 219.664062 69.902344 219.929688 68.453125 219.929688 L 64.636719 219.929688 L 64.636719 227.472656 L 60.632812 227.472656 L 60.632812 207.222656 Z M 67.929688 216.753906 C 70.148438 216.753906 71.261719 215.699219 71.261719 213.582031 C 71.261719 211.457031 70.148438 210.394531 67.929688 210.394531 L 64.636719 210.394531 L 64.636719 216.753906 Z M 67.929688 216.753906 " fill-opacity="1" fill-rule="nonzero"/></g><g clip-path="url(#a258438ead)"><path fill="#000000" d="M 91.410156 218.582031 L 91.410156 224.125 L 101.074219 224.125 L 101.074219 227.472656 L 87.40625 227.472656 L 87.40625 207.222656 L 100.84375 207.222656 L 100.84375 210.570312 L 91.410156 210.570312 L 91.410156 215.300781 L 99.664062 215.300781 L 99.664062 218.582031 Z M 91.410156 218.582031 " fill-opacity="1" fill-rule="nonzero"/></g><g clip-path="url(#f089a4897b)"><path fill="#000000" d="M 113.089844 227.472656 L 113.089844 207.222656 L 121.21875 207.222656 C 123.304688 207.222656 124.878906 207.707031 125.949219 208.671875 C 127.011719 209.636719 127.546875 210.964844 127.546875 212.667969 C 127.546875 213.898438 127.230469 214.90625 126.605469 215.691406 C 125.988281 216.472656 125.0625 217.070312 123.824219 217.480469 L 123.824219 217.777344 C 124.460938 218.054688 124.972656 218.46875 125.371094 219.015625 C 125.765625 219.550781 126.136719 220.359375 126.484375 221.433594 L 128.5 227.472656 L 124.390625 227.472656 L 122.414062 221.421875 C 122.207031 220.8125 121.976562 220.339844 121.730469 220.007812 C 121.476562 219.667969 121.15625 219.421875 120.761719 219.269531 C 120.363281 219.117188 119.855469 219.039062 119.230469 219.039062 L 117.09375 219.039062 L 117.09375 227.472656 Z M 120.722656 215.867188 C 122.664062 215.867188 123.636719 214.964844 123.636719 213.152344 C 123.636719 211.316406 122.664062 210.394531 120.722656 210.394531 L 117.09375 210.394531 L 117.09375 215.867188 Z M 120.722656 215.867188 " fill-opacity="1" fill-rule="nonzero"/></g><g clip-path="url(#61c9b20ebd)"><path fill="#000000" d="M 163.683594 227.765625 C 161.820312 227.765625 160.175781 227.382812 158.753906 226.609375 C 157.335938 225.832031 156.226562 224.660156 155.421875 223.101562 C 154.613281 221.542969 154.210938 219.625 154.210938 217.347656 C 154.210938 215.058594 154.613281 213.144531 155.421875 211.589844 C 156.226562 210.03125 157.335938 208.867188 158.753906 208.09375 C 160.175781 207.316406 161.820312 206.925781 163.683594 206.925781 C 165.636719 206.925781 167.292969 207.308594 168.65625 208.070312 C 170.015625 208.832031 170.984375 209.992188 171.558594 211.550781 L 168.644531 213.339844 L 168.292969 213.324219 C 167.863281 212.277344 167.277344 211.523438 166.535156 211.066406 C 165.789062 210.609375 164.839844 210.382812 163.683594 210.382812 C 162.007812 210.382812 160.699219 210.9375 159.761719 212.046875 C 158.820312 213.160156 158.347656 214.925781 158.347656 217.347656 C 158.347656 219.761719 158.820312 221.519531 159.761719 222.628906 C 160.699219 223.742188 162.007812 224.296875 163.683594 224.296875 C 166.316406 224.296875 167.929688 223.019531 168.523438 220.464844 L 168.871094 220.464844 L 171.816406 222 C 171.257812 223.917969 170.308594 225.359375 168.964844 226.328125 C 167.628906 227.289062 165.867188 227.765625 163.683594 227.765625 Z M 163.683594 227.765625 " fill-opacity="1" fill-rule="nonzero"/></g><g clip-path="url(#657b77a78a)"><path fill="#000000" d="M 191.554688 227.765625 C 189.699219 227.765625 188.0625 227.390625 186.648438 226.636719 C 185.230469 225.878906 184.121094 224.714844 183.316406 223.15625 C 182.511719 221.59375 182.105469 219.660156 182.105469 217.347656 C 182.105469 215.027344 182.511719 213.089844 183.316406 211.539062 C 184.121094 209.976562 185.230469 208.820312 186.648438 208.070312 C 188.0625 207.308594 189.699219 206.925781 191.554688 206.925781 C 193.410156 206.925781 195.039062 207.300781 196.445312 208.054688 C 197.859375 208.808594 198.964844 209.964844 199.765625 211.523438 C 200.570312 213.082031 200.972656 215.027344 200.972656 217.347656 C 200.972656 219.660156 200.570312 221.601562 199.765625 223.167969 C 198.964844 224.726562 197.859375 225.882812 196.445312 226.636719 C 195.039062 227.390625 193.410156 227.765625 191.554688 227.765625 Z M 191.554688 224.285156 C 193.273438 224.285156 194.585938 223.734375 195.492188 222.628906 C 196.394531 221.527344 196.847656 219.765625 196.847656 217.347656 C 196.847656 214.925781 196.394531 213.164062 195.492188 212.0625 C 194.585938 210.953125 193.273438 210.394531 191.554688 210.394531 C 189.824219 210.394531 188.507812 210.953125 187.601562 212.0625 C 186.695312 213.164062 186.246094 214.925781 186.246094 217.347656 C 186.246094 219.765625 186.695312 221.527344 187.601562 222.628906 C 188.507812 223.734375 189.824219 224.285156 191.554688 224.285156 Z M 191.554688 224.285156 " fill-opacity="1" fill-rule="nonzero"/></g><g clip-path="url(#0111765b52)"><path fill="#000000" d="M 217.15625 227.472656 L 213.488281 227.472656 L 213.488281 207.222656 L 218.714844 207.222656 L 223.835938 222.105469 L 224.132812 222.105469 L 229.226562 207.222656 L 234.332031 207.222656 L 234.332031 227.472656 L 230.542969 227.472656 L 230.542969 214.09375 L 230.191406 214.039062 L 225.515625 227.472656 L 222.183594 227.472656 L 217.507812 214.039062 L 217.15625 214.09375 Z M 217.15625 227.472656 " fill-opacity="1" fill-rule="nonzero"/></g><g clip-path="url(#631b40d4ae)"><path fill="#000000" d="M 255.714844 207.222656 C 257.164062 207.222656 258.402344 207.488281 259.421875 208.015625 C 260.449219 208.546875 261.230469 209.289062 261.761719 210.246094 C 262.289062 211.199219 262.554688 212.3125 262.554688 213.582031 C 262.554688 214.84375 262.289062 215.953125 261.761719 216.902344 C 261.230469 217.855469 260.449219 218.597656 259.421875 219.132812 C 258.402344 219.664062 257.164062 219.929688 255.714844 219.929688 L 251.898438 219.929688 L 251.898438 227.472656 L 247.890625 227.472656 L 247.890625 207.222656 Z M 255.1875 216.753906 C 257.410156 216.753906 258.523438 215.699219 258.523438 213.582031 C 258.523438 211.457031 257.410156 210.394531 255.1875 210.394531 L 251.898438 210.394531 L 251.898438 216.753906 Z M 255.1875 216.753906 " fill-opacity="1" fill-rule="nonzero"/></g><g clip-path="url(#2c98bb63e1)"><path fill="#000000" d="M 290.066406 227.472656 L 285.863281 227.472656 L 284.34375 222.804688 L 276.589844 222.804688 L 275.070312 227.472656 L 270.957031 227.472656 L 277.945312 207.222656 L 283.078125 207.222656 Z M 280.269531 211.445312 L 277.664062 219.429688 L 283.242188 219.429688 L 280.621094 211.445312 Z M 280.269531 211.445312 " fill-opacity="1" fill-rule="nonzero"/></g><g clip-path="url(#1b61f9b3c0)"><path fill="#000000" d="M 305.160156 227.472656 L 301.289062 227.472656 L 301.289062 207.222656 L 305.875 207.222656 L 314.003906 220.265625 L 314.351562 220.210938 L 314.351562 207.222656 L 318.210938 207.222656 L 318.210938 227.472656 L 314.109375 227.472656 L 305.511719 213.542969 L 305.160156 213.59375 Z M 305.160156 227.472656 " fill-opacity="1" fill-rule="nonzero"/></g><g clip-path="url(#77feed460c)"><path fill="#000000" d="M 340.214844 227.472656 L 336.222656 227.472656 L 336.222656 219.523438 L 329.222656 207.222656 L 333.523438 207.222656 L 338.144531 215.179688 L 338.480469 215.179688 L 343.011719 207.222656 L 347.214844 207.222656 L 340.214844 219.523438 Z M 340.214844 227.472656 " fill-opacity="1" fill-rule="nonzero"/></g><path fill="#000000" d="M 330.601562 101.011719 L 372.285156 101.011719 L 372.285156 111.757812 L 330.601562 111.757812 Z M 330.601562 101.011719 " fill-opacity="1" fill-rule="nonzero"/><path fill="#000000" d="M 351.5625 129.40625 L 351.5625 129.515625 L 372.285156 129.515625 L 372.285156 138.632812 L 330.601562 138.632812 L 330.601562 129.515625 L 353.902344 123.4375 L 353.902344 123.261719 L 330.601562 123.261719 L 330.601562 114.160156 L 372.285156 114.160156 L 372.285156 123.261719 Z M 351.5625 129.40625 " fill-opacity="1" fill-rule="nonzero"/><g clip-path="url(#aa44cd0185)"><path fill="#000000" d="M 373.171875 154.242188 C 373.171875 158.28125 372.101562 161.300781 369.960938 163.289062 C 367.816406 165.28125 365.054688 166.277344 361.667969 166.277344 L 355.527344 166.277344 L 355.527344 155.519531 L 363.710938 155.519531 C 364.523438 155.519531 365.136719 155.378906 365.539062 155.101562 C 365.949219 154.832031 366.15625 154.328125 366.15625 153.597656 C 366.15625 152.96875 365.882812 152.535156 365.335938 152.304688 C 364.789062 152.070312 364.210938 151.957031 363.589844 151.957031 L 339.292969 151.957031 C 338.675781 151.957031 338.09375 152.070312 337.546875 152.304688 C 337 152.535156 336.726562 152.96875 336.726562 153.597656 C 336.726562 154.328125 336.960938 154.832031 337.425781 155.101562 C 337.902344 155.378906 338.621094 155.519531 339.589844 155.519531 L 348.582031 155.519531 L 348.582031 166.277344 L 341.457031 166.277344 C 339.316406 166.277344 337.347656 165.824219 335.558594 164.929688 C 333.765625 164.035156 332.347656 162.660156 331.300781 160.804688 C 330.25 158.953125 329.726562 156.6875 329.726562 154 C 329.726562 149.832031 330.714844 146.65625 332.695312 144.480469 C 334.683594 142.300781 337.898438 141.210938 342.332031 141.210938 L 360.554688 141.210938 C 364.683594 141.210938 367.816406 142.316406 369.960938 144.53125 C 372.101562 146.753906 373.171875 149.992188 373.171875 154.242188 Z M 373.171875 154.242188 " fill-opacity="1" fill-rule="nonzero"/></g><g clip-path="url(#1cf9a35bf9)"><path fill="#000000" d="M 56.488281 23.054688 L 56.488281 74.902344 C 56.488281 80.578125 54.59375 84.878906 50.816406 87.796875 C 47.03125 90.722656 42.09375 92.183594 35.992188 92.183594 L 0.03125 92.183594 L 0.03125 0.101562 L 30.832031 0.101562 C 36.503906 0.101562 41.183594 0.726562 44.875 1.972656 C 48.574219 3.21875 51.433594 5.519531 53.449219 8.871094 C 55.472656 12.226562 56.488281 16.949219 56.488281 23.054688 Z M 32.769531 69.875 L 32.769531 22.410156 C 32.769531 20.6875 32.273438 19.121094 31.289062 17.703125 C 30.300781 16.289062 29.035156 15.578125 27.488281 15.578125 L 23.75 15.578125 L 23.75 76.707031 L 27.488281 76.707031 C 29.035156 76.707031 30.300781 76.019531 31.289062 74.648438 C 32.273438 73.269531 32.769531 71.675781 32.769531 69.875 Z M 32.769531 69.875 " fill-opacity="1" fill-rule="nonzero"/></g><g clip-path="url(#2788d92cdd)"><path fill="#000000" d="M 87.160156 70.898438 C 87.160156 73.742188 87.589844 75.613281 88.449219 76.515625 C 89.308594 77.414062 90.378906 77.863281 91.660156 77.863281 C 92.953125 77.863281 94.027344 77.414062 94.886719 76.515625 C 95.746094 75.613281 96.175781 73.742188 96.175781 70.898438 L 96.175781 0.101562 L 119.894531 0.101562 L 119.894531 67.546875 C 119.894531 85.265625 110.480469 94.117188 91.660156 94.117188 C 72.847656 94.117188 63.441406 85.265625 63.441406 67.546875 L 63.441406 0.101562 L 87.160156 0.101562 Z M 87.160156 70.898438 " fill-opacity="1" fill-rule="nonzero"/></g><g clip-path="url(#ec5fb33ac3)"><path fill="#000000" d="M 160.484375 45.886719 L 160.742188 45.886719 L 160.742188 0.101562 L 180.859375 0.101562 L 180.859375 92.183594 L 160.742188 92.183594 L 147.34375 40.722656 L 146.953125 40.722656 L 146.953125 92.183594 L 126.847656 92.183594 L 126.847656 0.101562 L 146.953125 0.101562 Z M 160.484375 45.886719 " fill-opacity="1" fill-rule="nonzero"/></g><g clip-path="url(#e87f057285)"><path fill="#000000" d="M 244.261719 23.054688 L 244.261719 74.902344 C 244.261719 80.578125 242.371094 84.878906 238.59375 87.796875 C 234.808594 90.722656 229.871094 92.183594 223.769531 92.183594 L 187.808594 92.183594 L 187.808594 0.101562 L 218.609375 0.101562 C 224.28125 0.101562 228.960938 0.726562 232.652344 1.972656 C 236.351562 3.21875 239.210938 5.519531 241.226562 8.871094 C 243.25 12.226562 244.261719 16.949219 244.261719 23.054688 Z M 220.542969 69.875 L 220.542969 22.410156 C 220.542969 20.6875 220.050781 19.121094 219.066406 17.703125 C 218.078125 16.289062 216.8125 15.578125 215.261719 15.578125 L 211.527344 15.578125 L 211.527344 76.707031 L 215.261719 76.707031 C 216.8125 76.707031 218.078125 76.019531 219.066406 74.648438 C 220.050781 73.269531 220.542969 71.675781 220.542969 69.875 Z M 220.542969 69.875 " fill-opacity="1" fill-rule="nonzero"/></g><g clip-path="url(#a3066eb3ae)"><path fill="#000000" d="M 291.304688 18.671875 L 274.9375 18.671875 L 274.9375 35.574219 L 290.269531 35.574219 L 290.269531 53.363281 L 274.9375 53.363281 L 274.9375 73.613281 L 292.59375 73.613281 L 292.59375 92.183594 L 251.21875 92.183594 L 251.21875 0.101562 L 291.304688 0.101562 Z M 291.304688 18.671875 " fill-opacity="1" fill-rule="nonzero"/></g><g clip-path="url(#2d25baf0cb)"><path fill="#000000" d="M 350.964844 18.28125 L 350.964844 27.574219 C 350.964844 32.648438 349.804688 36.453125 347.484375 38.988281 C 345.175781 41.527344 341.695312 42.964844 337.058594 43.304688 L 337.058594 43.5625 C 342.128906 43.910156 345.863281 45.375 348.265625 47.957031 C 350.675781 50.53125 351.878906 54.355469 351.878906 59.425781 L 351.878906 92.183594 L 329.707031 92.183594 L 329.707031 56.847656 C 329.707031 51.773438 327.644531 49.234375 323.523438 49.234375 C 322.574219 49.234375 321.671875 49.367188 320.8125 49.625 L 320.8125 92.183594 L 297.871094 92.183594 L 297.871094 0.101562 L 325.582031 0.101562 C 331.082031 0.101562 335.59375 0.511719 339.113281 1.328125 C 342.632812 2.144531 345.488281 3.863281 347.671875 6.488281 C 349.867188 9.109375 350.964844 13.039062 350.964844 18.28125 Z M 322.492188 35.304688 C 325.238281 35.304688 327.128906 34.683594 328.160156 33.4375 C 329.191406 32.191406 329.707031 30.753906 329.707031 29.121094 L 329.707031 21 C 329.707031 19.449219 329.191406 18.027344 328.160156 16.734375 C 327.128906 15.445312 325.277344 14.800781 322.613281 14.800781 L 320.8125 14.800781 L 320.8125 35.304688 Z M 322.492188 35.304688 " fill-opacity="1" fill-rule="nonzero"/></g><path fill="#000000" d="M 39.285156 152.027344 L 39.539062 152.027344 L 45.089844 98.257812 L 77.046875 98.257812 L 77.046875 190.335938 L 56.941406 190.335938 L 56.941406 121.992188 L 56.6875 121.992188 L 46.753906 190.335938 L 31.8125 190.335938 L 21.882812 121.992188 L 21.625 121.992188 L 21.625 190.335938 L 1.523438 190.335938 L 1.523438 98.257812 L 33.101562 98.257812 Z M 39.285156 152.027344 " fill-opacity="1" fill-rule="nonzero"/><path fill="#000000" d="M 82.328125 98.257812 L 106.046875 98.257812 L 106.046875 190.335938 L 82.328125 190.335938 Z M 82.328125 98.257812 " fill-opacity="1" fill-rule="nonzero"/><path fill="#000000" d="M 151.28125 116.828125 L 135.046875 116.828125 L 135.046875 133.730469 L 148.96875 133.730469 L 148.96875 151.519531 L 135.046875 151.519531 L 135.046875 190.335938 L 111.328125 190.335938 L 111.328125 98.257812 L 151.28125 98.257812 Z M 151.28125 116.828125 " fill-opacity="1" fill-rule="nonzero"/><path fill="#000000" d="M 194.195312 116.828125 L 177.960938 116.828125 L 177.960938 133.730469 L 191.882812 133.730469 L 191.882812 151.519531 L 177.960938 151.519531 L 177.960938 190.335938 L 154.246094 190.335938 L 154.246094 98.257812 L 194.195312 98.257812 Z M 194.195312 116.828125 " fill-opacity="1" fill-rule="nonzero"/><path fill="#000000" d="M 220.878906 172.535156 L 236.601562 172.535156 L 236.601562 190.335938 L 197.160156 190.335938 L 197.160156 98.257812 L 220.878906 98.257812 Z M 220.878906 172.535156 " fill-opacity="1" fill-rule="nonzero"/><path fill="#000000" d="M 239.6875 98.257812 L 263.40625 98.257812 L 263.40625 190.335938 L 239.6875 190.335938 Z M 239.6875 98.257812 " fill-opacity="1" fill-rule="nonzero"/><path fill="#000000" d="M 302.324219 144.042969 L 302.578125 144.042969 L 302.578125 98.257812 L 322.695312 98.257812 L 322.695312 190.335938 L 302.578125 190.335938 L 289.183594 138.878906 L 288.792969 138.878906 L 288.792969 190.335938 L 268.6875 190.335938 L 268.6875 98.257812 L 288.792969 98.257812 Z M 302.324219 144.042969 " fill-opacity="1" fill-rule="nonzero"/><path fill="#000000" d="M 346.664062 185.820312 C 346.664062 188.3125 345.953125 190.847656 344.527344 193.429688 C 343.113281 196.011719 341.136719 198.179688 338.601562 199.9375 C 336.066406 201.703125 333.167969 202.585938 329.910156 202.585938 L 329.261719 195.621094 C 330.8125 195.539062 331.949219 194.960938 332.675781 193.886719 C 333.410156 192.8125 333.777344 191.628906 333.777344 190.335938 L 328.875 190.335938 L 328.875 171.769531 L 346.664062 171.769531 Z M 346.664062 185.820312 " fill-opacity="1" fill-rule="nonzero"/><g clip-path="url(#3ee99dd408)"><path fill="#000000" d="M 15.054688 207.222656 C 16.503906 207.222656 17.742188 207.488281 18.761719 208.015625 C 19.789062 208.546875 20.570312 209.289062 21.101562 210.246094 C 21.628906 211.199219 21.894531 212.3125 21.894531 213.582031 C 21.894531 214.84375 21.628906 215.953125 21.101562 216.902344 C 20.570312 217.855469 19.789062 218.597656 18.761719 219.132812 C 17.742188 219.664062 16.503906 219.929688 15.054688 219.929688 L 11.238281 219.929688 L 11.238281 227.472656 L 7.234375 227.472656 L 7.234375 207.222656 Z M 14.53125 216.753906 C 16.75 216.753906 17.863281 215.699219 17.863281 213.582031 C 17.863281 211.457031 16.75 210.394531 14.53125 210.394531 L 11.238281 210.394531 L 11.238281 216.753906 Z M 14.53125 216.753906 " fill-opacity="1" fill-rule="nonzero"/></g><g clip-path="url(#f2180d9260)"><path fill="#000000" d="M 49.40625 227.472656 L 45.203125 227.472656 L 43.683594 222.804688 L 35.929688 222.804688 L 34.410156 227.472656 L 30.300781 227.472656 L 37.285156 207.222656 L 42.421875 207.222656 Z M 39.613281 211.445312 L 37.003906 219.429688 L 42.582031 219.429688 L 39.960938 211.445312 Z M 39.613281 211.445312 " fill-opacity="1" fill-rule="nonzero"/></g><g clip-path="url(#0f791b6fd1)"><path fill="#000000" d="M 68.453125 207.222656 C 69.902344 207.222656 71.140625 207.488281 72.160156 208.015625 C 73.1875 208.546875 73.96875 209.289062 74.5 210.246094 C 75.027344 211.199219 75.292969 212.3125 75.292969 213.582031 C 75.292969 214.84375 75.027344 215.953125 74.5 216.902344 C 73.96875 217.855469 73.1875 218.597656 72.160156 219.132812 C 71.140625 219.664062 69.902344 219.929688 68.453125 219.929688 L 64.636719 219.929688 L 64.636719 227.472656 L 60.632812 227.472656 L 60.632812 207.222656 Z M 67.929688 216.753906 C 70.148438 216.753906 71.261719 215.699219 71.261719 213.582031 C 71.261719 211.457031 70.148438 210.394531 67.929688 210.394531 L 64.636719 210.394531 L 64.636719 216.753906 Z M 67.929688 216.753906 " fill-opacity="1" fill-rule="nonzero"/></g><g clip-path="url(#10040760ee)"><path fill="#000000" d="M 91.410156 218.582031 L 91.410156 224.125 L 101.074219 224.125 L 101.074219 227.472656 L 87.40625 227.472656 L 87.40625 207.222656 L 100.84375 207.222656 L 100.84375 210.570312 L 91.410156 210.570312 L 91.410156 215.300781 L 99.664062 215.300781 L 99.664062 218.582031 Z M 91.410156 218.582031 " fill-opacity="1" fill-rule="nonzero"/></g><g clip-path="url(#feb3d8eb45)"><path fill="#000000" d="M 113.089844 227.472656 L 113.089844 207.222656 L 121.21875 207.222656 C 123.304688 207.222656 124.878906 207.707031 125.949219 208.671875 C 127.011719 209.636719 127.546875 210.964844 127.546875 212.667969 C 127.546875 213.898438 127.230469 214.90625 126.605469 215.691406 C 125.988281 216.472656 125.0625 217.070312 123.824219 217.480469 L 123.824219 217.777344 C 124.460938 218.054688 124.972656 218.46875 125.371094 219.015625 C 125.765625 219.550781 126.136719 220.359375 126.484375 221.433594 L 128.5 227.472656 L 124.390625 227.472656 L 122.414062 221.421875 C 122.207031 220.8125 121.976562 220.339844 121.730469 220.007812 C 121.476562 219.667969 121.15625 219.421875 120.761719 219.269531 C 120.363281 219.117188 119.855469 219.039062 119.230469 219.039062 L 117.09375 219.039062 L 117.09375 227.472656 Z M 120.722656 215.867188 C 122.664062 215.867188 123.636719 214.964844 123.636719 213.152344 C 123.636719 211.316406 122.664062 210.394531 120.722656 210.394531 L 117.09375 210.394531 L 117.09375 215.867188 Z M 120.722656 215.867188 " fill-opacity="1" fill-rule="nonzero"/></g><g clip-path="url(#5ecb101b17)"><path fill="#000000" d="M 163.683594 227.765625 C 161.820312 227.765625 160.175781 227.382812 158.753906 226.609375 C 157.335938 225.832031 156.226562 224.660156 155.421875 223.101562 C 154.613281 221.542969 154.210938 219.625 154.210938 217.347656 C 154.210938 215.058594 154.613281 213.144531 155.421875 211.589844 C 156.226562 210.03125 157.335938 208.867188 158.753906 208.09375 C 160.175781 207.316406 161.820312 206.925781 163.683594 206.925781 C 165.636719 206.925781 167.292969 207.308594 168.65625 208.070312 C 170.015625 208.832031 170.984375 209.992188 171.558594 211.550781 L 168.644531 213.339844 L 168.292969 213.324219 C 167.863281 212.277344 167.277344 211.523438 166.535156 211.066406 C 165.789062 210.609375 164.839844 210.382812 163.683594 210.382812 C 162.007812 210.382812 160.699219 210.9375 159.761719 212.046875 C 158.820312 213.160156 158.347656 214.925781 158.347656 217.347656 C 158.347656 219.761719 158.820312 221.519531 159.761719 222.628906 C 160.699219 223.742188 162.007812 224.296875 163.683594 224.296875 C 166.316406 224.296875 167.929688 223.019531 168.523438 220.464844 L 168.871094 220.464844 L 171.816406 222 C 171.257812 223.917969 170.308594 225.359375 168.964844 226.328125 C 167.628906 227.289062 165.867188 227.765625 163.683594 227.765625 Z M 163.683594 227.765625 " fill-opacity="1" fill-rule="nonzero"/></g><g clip-path="url(#f658aae42e)"><path fill="#000000" d="M 191.554688 227.765625 C 189.699219 227.765625 188.0625 227.390625 186.648438 226.636719 C 185.230469 225.878906 184.121094 224.714844 183.316406 223.15625 C 182.511719 221.59375 182.105469 219.660156 182.105469 217.347656 C 182.105469 215.027344 182.511719 213.089844 183.316406 211.539062 C 184.121094 209.976562 185.230469 208.820312 186.648438 208.070312 C 188.0625 207.308594 189.699219 206.925781 191.554688 206.925781 C 193.410156 206.925781 195.039062 207.300781 196.445312 208.054688 C 197.859375 208.808594 198.964844 209.964844 199.765625 211.523438 C 200.570312 213.082031 200.972656 215.027344 200.972656 217.347656 C 200.972656 219.660156 200.570312 221.601562 199.765625 223.167969 C 198.964844 224.726562 197.859375 225.882812 196.445312 226.636719 C 195.039062 227.390625 193.410156 227.765625 191.554688 227.765625 Z M 191.554688 224.285156 C 193.273438 224.285156 194.585938 223.734375 195.492188 222.628906 C 196.394531 221.527344 196.847656 219.765625 196.847656 217.347656 C 196.847656 214.925781 196.394531 213.164062 195.492188 212.0625 C 194.585938 210.953125 193.273438 210.394531 191.554688 210.394531 C 189.824219 210.394531 188.507812 210.953125 187.601562 212.0625 C 186.695312 213.164062 186.246094 214.925781 186.246094 217.347656 C 186.246094 219.765625 186.695312 221.527344 187.601562 222.628906 C 188.507812 223.734375 189.824219 224.285156 191.554688 224.285156 Z M 191.554688 224.285156 " fill-opacity="1" fill-rule="nonzero"/></g><g clip-path="url(#fbc9105a03)"><path fill="#000000" d="M 217.15625 227.472656 L 213.488281 227.472656 L 213.488281 207.222656 L 218.714844 207.222656 L 223.835938 222.105469 L 224.132812 222.105469 L 229.226562 207.222656 L 234.332031 207.222656 L 234.332031 227.472656 L 230.542969 227.472656 L 230.542969 214.09375 L 230.191406 214.039062 L 225.515625 227.472656 L 222.183594 227.472656 L 217.507812 214.039062 L 217.15625 214.09375 Z M 217.15625 227.472656 " fill-opacity="1" fill-rule="nonzero"/></g><g clip-path="url(#ae3467644c)"><path fill="#000000" d="M 255.714844 207.222656 C 257.164062 207.222656 258.402344 207.488281 259.421875 208.015625 C 260.449219 208.546875 261.230469 209.289062 261.761719 210.246094 C 262.289062 211.199219 262.554688 212.3125 262.554688 213.582031 C 262.554688 214.84375 262.289062 215.953125 261.761719 216.902344 C 261.230469 217.855469 260.449219 218.597656 259.421875 219.132812 C 258.402344 219.664062 257.164062 219.929688 255.714844 219.929688 L 251.898438 219.929688 L 251.898438 227.472656 L 247.890625 227.472656 L 247.890625 207.222656 Z M 255.1875 216.753906 C 257.410156 216.753906 258.523438 215.699219 258.523438 213.582031 C 258.523438 211.457031 257.410156 210.394531 255.1875 210.394531 L 251.898438 210.394531 L 251.898438 216.753906 Z M 255.1875 216.753906 " fill-opacity="1" fill-rule="nonzero"/></g><g clip-path="url(#d984e8ee6a)"><path fill="#000000" d="M 290.066406 227.472656 L 285.863281 227.472656 L 284.34375 222.804688 L 276.589844 222.804688 L 275.070312 227.472656 L 270.957031 227.472656 L 277.945312 207.222656 L 283.078125 207.222656 Z M 280.269531 211.445312 L 277.664062 219.429688 L 283.242188 219.429688 L 280.621094 211.445312 Z M 280.269531 211.445312 " fill-opacity="1" fill-rule="nonzero"/></g><g clip-path="url(#299fce1e62)"><path fill="#000000" d="M 305.160156 227.472656 L 301.289062 227.472656 L 301.289062 207.222656 L 305.875 207.222656 L 314.003906 220.265625 L 314.351562 220.210938 L 314.351562 207.222656 L 318.210938 207.222656 L 318.210938 227.472656 L 314.109375 227.472656 L 305.511719 213.542969 L 305.160156 213.59375 Z M 305.160156 227.472656 " fill-opacity="1" fill-rule="nonzero"/></g><g clip-path="url(#5e2cace224)"><path fill="#000000" d="M 340.214844 227.472656 L 336.222656 227.472656 L 336.222656 219.523438 L 329.222656 207.222656 L 333.523438 207.222656 L 338.144531 215.179688 L 338.480469 215.179688 L 343.011719 207.222656 L 347.214844 207.222656 L 340.214844 219.523438 Z M 340.214844 227.472656 " fill-opacity="1" fill-rule="nonzero"/></g><path fill="#000000" d="M 330.601562 101.011719 L 372.285156 101.011719 L 372.285156 111.757812 L 330.601562 111.757812 Z M 330.601562 101.011719 " fill-opacity="1" fill-rule="nonzero"/><path fill="#000000" d="M 351.5625 129.40625 L 351.5625 129.515625 L 372.285156 129.515625 L 372.285156 138.632812 L 330.601562 138.632812 L 330.601562 129.515625 L 353.902344 123.4375 L 353.902344 123.261719 L 330.601562 123.261719 L 330.601562 114.160156 L 372.285156 114.160156 L 372.285156 123.261719 Z M 351.5625 129.40625 " fill-opacity="1" fill-rule="nonzero"/><g clip-path="url(#9ff748f6c7)"><path fill="#000000" d="M 373.171875 154.242188 C 373.171875 158.28125 372.101562 161.300781 369.960938 163.289062 C 367.816406 165.28125 365.054688 166.277344 361.667969 166.277344 L 355.527344 166.277344 L 355.527344 155.519531 L 363.710938 155.519531 C 364.523438 155.519531 365.136719 155.378906 365.539062 155.101562 C 365.949219 154.832031 366.15625 154.328125 366.15625 153.597656 C 366.15625 152.96875 365.882812 152.535156 365.335938 152.304688 C 364.789062 152.070312 364.210938 151.957031 363.589844 151.957031 L 339.292969 151.957031 C 338.675781 151.957031 338.09375 152.070312 337.546875 152.304688 C 337 152.535156 336.726562 152.96875 336.726562 153.597656 C 336.726562 154.328125 336.960938 154.832031 337.425781 155.101562 C 337.902344 155.378906 338.621094 155.519531 339.589844 155.519531 L 348.582031 155.519531 L 348.582031 166.277344 L 341.457031 166.277344 C 339.316406 166.277344 337.347656 165.824219 335.558594 164.929688 C 333.765625 164.035156 332.347656 162.660156 331.300781 160.804688 C 330.25 158.953125 329.726562 156.6875 329.726562 154 C 329.726562 149.832031 330.714844 146.65625 332.695312 144.480469 C 334.683594 142.300781 337.898438 141.210938 342.332031 141.210938 L 360.554688 141.210938 C 364.683594 141.210938 367.816406 142.316406 369.960938 144.53125 C 372.101562 146.753906 373.171875 149.992188 373.171875 154.242188 Z M 373.171875 154.242188 " fill-opacity="1" fill-rule="nonzero"/></g><g clip-path="url(#6b313f3d39)"><path fill="#000000" d="M 56.488281 23.054688 L 56.488281 74.902344 C 56.488281 80.578125 54.59375 84.878906 50.816406 87.796875 C 47.03125 90.722656 42.09375 92.183594 35.992188 92.183594 L 0.03125 92.183594 L 0.03125 0.101562 L 30.832031 0.101562 C 36.503906 0.101562 41.183594 0.726562 44.875 1.972656 C 48.574219 3.21875 51.433594 5.519531 53.449219 8.871094 C 55.472656 12.226562 56.488281 16.949219 56.488281 23.054688 Z M 32.769531 69.875 L 32.769531 22.410156 C 32.769531 20.6875 32.273438 19.121094 31.289062 17.703125 C 30.300781 16.289062 29.035156 15.578125 27.488281 15.578125 L 23.75 15.578125 L 23.75 76.707031 L 27.488281 76.707031 C 29.035156 76.707031 30.300781 76.019531 31.289062 74.648438 C 32.273438 73.269531 32.769531 71.675781 32.769531 69.875 Z M 32.769531 69.875 " fill-opacity="1" fill-rule="nonzero"/></g><g clip-path="url(#5c03f7fccc)"><path fill="#000000" d="M 87.160156 70.898438 C 87.160156 73.742188 87.589844 75.613281 88.449219 76.515625 C 89.308594 77.414062 90.378906 77.863281 91.660156 77.863281 C 92.953125 77.863281 94.027344 77.414062 94.886719 76.515625 C 95.746094 75.613281 96.175781 73.742188 96.175781 70.898438 L 96.175781 0.101562 L 119.894531 0.101562 L 119.894531 67.546875 C 119.894531 85.265625 110.480469 94.117188 91.660156 94.117188 C 72.847656 94.117188 63.441406 85.265625 63.441406 67.546875 L 63.441406 0.101562 L 87.160156 0.101562 Z M 87.160156 70.898438 " fill-opacity="1" fill-rule="nonzero"/></g><g clip-path="url(#d59cbb34d5)"><path fill="#000000" d="M 160.484375 45.886719 L 160.742188 45.886719 L 160.742188 0.101562 L 180.859375 0.101562 L 180.859375 92.183594 L 160.742188 92.183594 L 147.34375 40.722656 L 146.953125 40.722656 L 146.953125 92.183594 L 126.847656 92.183594 L 126.847656 0.101562 L 146.953125 0.101562 Z M 160.484375 45.886719 " fill-opacity="1" fill-rule="nonzero"/></g><g clip-path="url(#c153536223)"><path fill="#000000" d="M 244.261719 23.054688 L 244.261719 74.902344 C 244.261719 80.578125 242.371094 84.878906 238.59375 87.796875 C 234.808594 90.722656 229.871094 92.183594 223.769531 92.183594 L 187.808594 92.183594 L 187.808594 0.101562 L 218.609375 0.101562 C 224.28125 0.101562 228.960938 0.726562 232.652344 1.972656 C 236.351562 3.21875 239.210938 5.519531 241.226562 8.871094 C 243.25 12.226562 244.261719 16.949219 244.261719 23.054688 Z M 220.542969 69.875 L 220.542969 22.410156 C 220.542969 20.6875 220.050781 19.121094 219.066406 17.703125 C 218.078125 16.289062 216.8125 15.578125 215.261719 15.578125 L 211.527344 15.578125 L 211.527344 76.707031 L 215.261719 76.707031 C 216.8125 76.707031 218.078125 76.019531 219.066406 74.648438 C 220.050781 73.269531 220.542969 71.675781 220.542969 69.875 Z M 220.542969 69.875 " fill-opacity="1" fill-rule="nonzero"/></g><g clip-path="url(#d7bdcb0d63)"><path fill="#000000" d="M 291.304688 18.671875 L 274.9375 18.671875 L 274.9375 35.574219 L 290.269531 35.574219 L 290.269531 53.363281 L 274.9375 53.363281 L 274.9375 73.613281 L 292.59375 73.613281 L 292.59375 92.183594 L 251.21875 92.183594 L 251.21875 0.101562 L 291.304688 0.101562 Z M 291.304688 18.671875 " fill-opacity="1" fill-rule="nonzero"/></g><g clip-path="url(#627718bced)"><path fill="#000000" d="M 350.964844 18.28125 L 350.964844 27.574219 C 350.964844 32.648438 349.804688 36.453125 347.484375 38.988281 C 345.175781 41.527344 341.695312 42.964844 337.058594 43.304688 L 337.058594 43.5625 C 342.128906 43.910156 345.863281 45.375 348.265625 47.957031 C 350.675781 50.53125 351.878906 54.355469 351.878906 59.425781 L 351.878906 92.183594 L 329.707031 92.183594 L 329.707031 56.847656 C 329.707031 51.773438 327.644531 49.234375 323.523438 49.234375 C 322.574219 49.234375 321.671875 49.367188 320.8125 49.625 L 320.8125 92.183594 L 297.871094 92.183594 L 297.871094 0.101562 L 325.582031 0.101562 C 331.082031 0.101562 335.59375 0.511719 339.113281 1.328125 C 342.632812 2.144531 345.488281 3.863281 347.671875 6.488281 C 349.867188 9.109375 350.964844 13.039062 350.964844 18.28125 Z M 322.492188 35.304688 C 325.238281 35.304688 327.128906 34.683594 328.160156 33.4375 C 329.191406 32.191406 329.707031 30.753906 329.707031 29.121094 L 329.707031 21 C 329.707031 19.449219 329.191406 18.027344 328.160156 16.734375 C 327.128906 15.445312 325.277344 14.800781 322.613281 14.800781 L 320.8125 14.800781 L 320.8125 35.304688 Z M 322.492188 35.304688 " fill-opacity="1" fill-rule="nonzero"/></g><path fill="#000000" d="M 39.285156 152.027344 L 39.539062 152.027344 L 45.089844 98.257812 L 77.046875 98.257812 L 77.046875 190.335938 L 56.941406 190.335938 L 56.941406 121.992188 L 56.6875 121.992188 L 46.753906 190.335938 L 31.8125 190.335938 L 21.882812 121.992188 L 21.625 121.992188 L 21.625 190.335938 L 1.523438 190.335938 L 1.523438 98.257812 L 33.101562 98.257812 Z M 39.285156 152.027344 " fill-opacity="1" fill-rule="nonzero"/><path fill="#000000" d="M 82.328125 98.257812 L 106.046875 98.257812 L 106.046875 190.335938 L 82.328125 190.335938 Z M 82.328125 98.257812 " fill-opacity="1" fill-rule="nonzero"/><path fill="#000000" d="M 151.28125 116.828125 L 135.046875 116.828125 L 135.046875 133.730469 L 148.96875 133.730469 L 148.96875 151.519531 L 135.046875 151.519531 L 135.046875 190.335938 L 111.328125 190.335938 L 111.328125 98.257812 L 151.28125 98.257812 Z M 151.28125 116.828125 " fill-opacity="1" fill-rule="nonzero"/><path fill="#000000" d="M 194.195312 116.828125 L 177.960938 116.828125 L 177.960938 133.730469 L 191.882812 133.730469 L 191.882812 151.519531 L 177.960938 151.519531 L 177.960938 190.335938 L 154.246094 190.335938 L 154.246094 98.257812 L 194.195312 98.257812 Z M 194.195312 116.828125 " fill-opacity="1" fill-rule="nonzero"/><path fill="#000000" d="M 220.878906 172.535156 L 236.601562 172.535156 L 236.601562 190.335938 L 197.160156 190.335938 L 197.160156 98.257812 L 220.878906 98.257812 Z M 220.878906 172.535156 " fill-opacity="1" fill-rule="nonzero"/><path fill="#000000" d="M 239.6875 98.257812 L 263.40625 98.257812 L 263.40625 190.335938 L 239.6875 190.335938 Z M 239.6875 98.257812 " fill-opacity="1" fill-rule="nonzero"/><path fill="#000000" d="M 302.324219 144.042969 L 302.578125 144.042969 L 302.578125 98.257812 L 322.695312 98.257812 L 322.695312 190.335938 L 302.578125 190.335938 L 289.183594 138.878906 L 288.792969 138.878906 L 288.792969 190.335938 L 268.6875 190.335938 L 268.6875 98.257812 L 288.792969 98.257812 Z M 302.324219 144.042969 " fill-opacity="1" fill-rule="nonzero"/><path fill="#000000" d="M 346.664062 185.820312 C 346.664062 188.3125 345.953125 190.847656 344.527344 193.429688 C 343.113281 196.011719 341.136719 198.179688 338.601562 199.9375 C 336.066406 201.703125 333.167969 202.585938 329.910156 202.585938 L 329.261719 195.621094 C 330.8125 195.539062 331.949219 194.960938 332.675781 193.886719 C 333.410156 192.8125 333.777344 191.628906 333.777344 190.335938 L 328.875 190.335938 L 328.875 171.769531 L 346.664062 171.769531 Z M 346.664062 185.820312 " fill-opacity="1" fill-rule="nonzero"/><g clip-path="url(#9abcb75b71)"><path fill="#000000" d="M 15.054688 207.222656 C 16.503906 207.222656 17.742188 207.488281 18.761719 208.015625 C 19.789062 208.546875 20.570312 209.289062 21.101562 210.246094 C 21.628906 211.199219 21.894531 212.3125 21.894531 213.582031 C 21.894531 214.84375 21.628906 215.953125 21.101562 216.902344 C 20.570312 217.855469 19.789062 218.597656 18.761719 219.132812 C 17.742188 219.664062 16.503906 219.929688 15.054688 219.929688 L 11.238281 219.929688 L 11.238281 227.472656 L 7.234375 227.472656 L 7.234375 207.222656 Z M 14.53125 216.753906 C 16.75 216.753906 17.863281 215.699219 17.863281 213.582031 C 17.863281 211.457031 16.75 210.394531 14.53125 210.394531 L 11.238281 210.394531 L 11.238281 216.753906 Z M 14.53125 216.753906 " fill-opacity="1" fill-rule="nonzero"/></g><g clip-path="url(#6b2e3d51f0)"><path fill="#000000" d="M 49.40625 227.472656 L 45.203125 227.472656 L 43.683594 222.804688 L 35.929688 222.804688 L 34.410156 227.472656 L 30.300781 227.472656 L 37.285156 207.222656 L 42.421875 207.222656 Z M 39.613281 211.445312 L 37.003906 219.429688 L 42.582031 219.429688 L 39.960938 211.445312 Z M 39.613281 211.445312 " fill-opacity="1" fill-rule="nonzero"/></g><g clip-path="url(#1a53377003)"><path fill="#000000" d="M 68.453125 207.222656 C 69.902344 207.222656 71.140625 207.488281 72.160156 208.015625 C 73.1875 208.546875 73.96875 209.289062 74.5 210.246094 C 75.027344 211.199219 75.292969 212.3125 75.292969 213.582031 C 75.292969 214.84375 75.027344 215.953125 74.5 216.902344 C 73.96875 217.855469 73.1875 218.597656 72.160156 219.132812 C 71.140625 219.664062 69.902344 219.929688 68.453125 219.929688 L 64.636719 219.929688 L 64.636719 227.472656 L 60.632812 227.472656 L 60.632812 207.222656 Z M 67.929688 216.753906 C 70.148438 216.753906 71.261719 215.699219 71.261719 213.582031 C 71.261719 211.457031 70.148438 210.394531 67.929688 210.394531 L 64.636719 210.394531 L 64.636719 216.753906 Z M 67.929688 216.753906 " fill-opacity="1" fill-rule="nonzero"/></g><g clip-path="url(#967cc71567)"><path fill="#000000" d="M 91.410156 218.582031 L 91.410156 224.125 L 101.074219 224.125 L 101.074219 227.472656 L 87.40625 227.472656 L 87.40625 207.222656 L 100.84375 207.222656 L 100.84375 210.570312 L 91.410156 210.570312 L 91.410156 215.300781 L 99.664062 215.300781 L 99.664062 218.582031 Z M 91.410156 218.582031 " fill-opacity="1" fill-rule="nonzero"/></g><g clip-path="url(#80b4bc1ca7)"><path fill="#000000" d="M 113.089844 227.472656 L 113.089844 207.222656 L 121.21875 207.222656 C 123.304688 207.222656 124.878906 207.707031 125.949219 208.671875 C 127.011719 209.636719 127.546875 210.964844 127.546875 212.667969 C 127.546875 213.898438 127.230469 214.90625 126.605469 215.691406 C 125.988281 216.472656 125.0625 217.070312 123.824219 217.480469 L 123.824219 217.777344 C 124.460938 218.054688 124.972656 218.46875 125.371094 219.015625 C 125.765625 219.550781 126.136719 220.359375 126.484375 221.433594 L 128.5 227.472656 L 124.390625 227.472656 L 122.414062 221.421875 C 122.207031 220.8125 121.976562 220.339844 121.730469 220.007812 C 121.476562 219.667969 121.15625 219.421875 120.761719 219.269531 C 120.363281 219.117188 119.855469 219.039062 119.230469 219.039062 L 117.09375 219.039062 L 117.09375 227.472656 Z M 120.722656 215.867188 C 122.664062 215.867188 123.636719 214.964844 123.636719 213.152344 C 123.636719 211.316406 122.664062 210.394531 120.722656 210.394531 L 117.09375 210.394531 L 117.09375 215.867188 Z M 120.722656 215.867188 " fill-opacity="1" fill-rule="nonzero"/></g><g clip-path="url(#7567a64161)"><path fill="#000000" d="M 163.683594 227.765625 C 161.820312 227.765625 160.175781 227.382812 158.753906 226.609375 C 157.335938 225.832031 156.226562 224.660156 155.421875 223.101562 C 154.613281 221.542969 154.210938 219.625 154.210938 217.347656 C 154.210938 215.058594 154.613281 213.144531 155.421875 211.589844 C 156.226562 210.03125 157.335938 208.867188 158.753906 208.09375 C 160.175781 207.316406 161.820312 206.925781 163.683594 206.925781 C 165.636719 206.925781 167.292969 207.308594 168.65625 208.070312 C 170.015625 208.832031 170.984375 209.992188 171.558594 211.550781 L 168.644531 213.339844 L 168.292969 213.324219 C 167.863281 212.277344 167.277344 211.523438 166.535156 211.066406 C 165.789062 210.609375 164.839844 210.382812 163.683594 210.382812 C 162.007812 210.382812 160.699219 210.9375 159.761719 212.046875 C 158.820312 213.160156 158.347656 214.925781 158.347656 217.347656 C 158.347656 219.761719 158.820312 221.519531 159.761719 222.628906 C 160.699219 223.742188 162.007812 224.296875 163.683594 224.296875 C 166.316406 224.296875 167.929688 223.019531 168.523438 220.464844 L 168.871094 220.464844 L 171.816406 222 C 171.257812 223.917969 170.308594 225.359375 168.964844 226.328125 C 167.628906 227.289062 165.867188 227.765625 163.683594 227.765625 Z M 163.683594 227.765625 " fill-opacity="1" fill-rule="nonzero"/></g><g clip-path="url(#7631c67bed)"><path fill="#000000" d="M 191.554688 227.765625 C 189.699219 227.765625 188.0625 227.390625 186.648438 226.636719 C 185.230469 225.878906 184.121094 224.714844 183.316406 223.15625 C 182.511719 221.59375 182.105469 219.660156 182.105469 217.347656 C 182.105469 215.027344 182.511719 213.089844 183.316406 211.539062 C 184.121094 209.976562 185.230469 208.820312 186.648438 208.070312 C 188.0625 207.308594 189.699219 206.925781 191.554688 206.925781 C 193.410156 206.925781 195.039062 207.300781 196.445312 208.054688 C 197.859375 208.808594 198.964844 209.964844 199.765625 211.523438 C 200.570312 213.082031 200.972656 215.027344 200.972656 217.347656 C 200.972656 219.660156 200.570312 221.601562 199.765625 223.167969 C 198.964844 224.726562 197.859375 225.882812 196.445312 226.636719 C 195.039062 227.390625 193.410156 227.765625 191.554688 227.765625 Z M 191.554688 224.285156 C 193.273438 224.285156 194.585938 223.734375 195.492188 222.628906 C 196.394531 221.527344 196.847656 219.765625 196.847656 217.347656 C 196.847656 214.925781 196.394531 213.164062 195.492188 212.0625 C 194.585938 210.953125 193.273438 210.394531 191.554688 210.394531 C 189.824219 210.394531 188.507812 210.953125 187.601562 212.0625 C 186.695312 213.164062 186.246094 214.925781 186.246094 217.347656 C 186.246094 219.765625 186.695312 221.527344 187.601562 222.628906 C 188.507812 223.734375 189.824219 224.285156 191.554688 224.285156 Z M 191.554688 224.285156 " fill-opacity="1" fill-rule="nonzero"/></g><g clip-path="url(#754d25097d)"><path fill="#000000" d="M 217.15625 227.472656 L 213.488281 227.472656 L 213.488281 207.222656 L 218.714844 207.222656 L 223.835938 222.105469 L 224.132812 222.105469 L 229.226562 207.222656 L 234.332031 207.222656 L 234.332031 227.472656 L 230.542969 227.472656 L 230.542969 214.09375 L 230.191406 214.039062 L 225.515625 227.472656 L 222.183594 227.472656 L 217.507812 214.039062 L 217.15625 214.09375 Z M 217.15625 227.472656 " fill-opacity="1" fill-rule="nonzero"/></g><g clip-path="url(#460ef1102c)"><path fill="#000000" d="M 255.714844 207.222656 C 257.164062 207.222656 258.402344 207.488281 259.421875 208.015625 C 260.449219 208.546875 261.230469 209.289062 261.761719 210.246094 C 262.289062 211.199219 262.554688 212.3125 262.554688 213.582031 C 262.554688 214.84375 262.289062 215.953125 261.761719 216.902344 C 261.230469 217.855469 260.449219 218.597656 259.421875 219.132812 C 258.402344 219.664062 257.164062 219.929688 255.714844 219.929688 L 251.898438 219.929688 L 251.898438 227.472656 L 247.890625 227.472656 L 247.890625 207.222656 Z M 255.1875 216.753906 C 257.410156 216.753906 258.523438 215.699219 258.523438 213.582031 C 258.523438 211.457031 257.410156 210.394531 255.1875 210.394531 L 251.898438 210.394531 L 251.898438 216.753906 Z M 255.1875 216.753906 " fill-opacity="1" fill-rule="nonzero"/></g><g clip-path="url(#8bae998e47)"><path fill="#000000" d="M 290.066406 227.472656 L 285.863281 227.472656 L 284.34375 222.804688 L 276.589844 222.804688 L 275.070312 227.472656 L 270.957031 227.472656 L 277.945312 207.222656 L 283.078125 207.222656 Z M 280.269531 211.445312 L 277.664062 219.429688 L 283.242188 219.429688 L 280.621094 211.445312 Z M 280.269531 211.445312 " fill-opacity="1" fill-rule="nonzero"/></g><g clip-path="url(#0044635956)"><path fill="#000000" d="M 305.160156 227.472656 L 301.289062 227.472656 L 301.289062 207.222656 L 305.875 207.222656 L 314.003906 220.265625 L 314.351562 220.210938 L 314.351562 207.222656 L 318.210938 207.222656 L 318.210938 227.472656 L 314.109375 227.472656 L 305.511719 213.542969 L 305.160156 213.59375 Z M 305.160156 227.472656 " fill-opacity="1" fill-rule="nonzero"/></g><g clip-path="url(#15e3810425)"><path fill="#000000" d="M 340.214844 227.472656 L 336.222656 227.472656 L 336.222656 219.523438 L 329.222656 207.222656 L 333.523438 207.222656 L 338.144531 215.179688 L 338.480469 215.179688 L 343.011719 207.222656 L 347.214844 207.222656 L 340.214844 219.523438 Z M 340.214844 227.472656 " fill-opacity="1" fill-rule="nonzero"/></g><path fill="#000000" d="M 330.601562 101.011719 L 372.285156 101.011719 L 372.285156 111.757812 L 330.601562 111.757812 Z M 330.601562 101.011719 " fill-opacity="1" fill-rule="nonzero"/><path fill="#000000" d="M 351.5625 129.40625 L 351.5625 129.515625 L 372.285156 129.515625 L 372.285156 138.632812 L 330.601562 138.632812 L 330.601562 129.515625 L 353.902344 123.4375 L 353.902344 123.261719 L 330.601562 123.261719 L 330.601562 114.160156 L 372.285156 114.160156 L 372.285156 123.261719 Z M 351.5625 129.40625 " fill-opacity="1" fill-rule="nonzero"/><g clip-path="url(#a3f332b716)"><path fill="#000000" d="M 373.171875 154.242188 C 373.171875 158.28125 372.101562 161.300781 369.960938 163.289062 C 367.816406 165.28125 365.054688 166.277344 361.667969 166.277344 L 355.527344 166.277344 L 355.527344 155.519531 L 363.710938 155.519531 C 364.523438 155.519531 365.136719 155.378906 365.539062 155.101562 C 365.949219 154.832031 366.15625 154.328125 366.15625 153.597656 C 366.15625 152.96875 365.882812 152.535156 365.335938 152.304688 C 364.789062 152.070312 364.210938 151.957031 363.589844 151.957031 L 339.292969 151.957031 C 338.675781 151.957031 338.09375 152.070312 337.546875 152.304688 C 337 152.535156 336.726562 152.96875 336.726562 153.597656 C 336.726562 154.328125 336.960938 154.832031 337.425781 155.101562 C 337.902344 155.378906 338.621094 155.519531 339.589844 155.519531 L 348.582031 155.519531 L 348.582031 166.277344 L 341.457031 166.277344 C 339.316406 166.277344 337.347656 165.824219 335.558594 164.929688 C 333.765625 164.035156 332.347656 162.660156 331.300781 160.804688 C 330.25 158.953125 329.726562 156.6875 329.726562 154 C 329.726562 149.832031 330.714844 146.65625 332.695312 144.480469 C 334.683594 142.300781 337.898438 141.210938 342.332031 141.210938 L 360.554688 141.210938 C 364.683594 141.210938 367.816406 142.316406 369.960938 144.53125 C 372.101562 146.753906 373.171875 149.992188 373.171875 154.242188 Z M 373.171875 154.242188 " fill-opacity="1" fill-rule="nonzero"/></g><g clip-path="url(#a9f2482317)"><path fill="#000000" d="M 56.488281 23.054688 L 56.488281 74.902344 C 56.488281 80.578125 54.59375 84.878906 50.816406 87.796875 C 47.03125 90.722656 42.09375 92.183594 35.992188 92.183594 L 0.03125 92.183594 L 0.03125 0.101562 L 30.832031 0.101562 C 36.503906 0.101562 41.183594 0.726562 44.875 1.972656 C 48.574219 3.21875 51.433594 5.519531 53.449219 8.871094 C 55.472656 12.226562 56.488281 16.949219 56.488281 23.054688 Z M 32.769531 69.875 L 32.769531 22.410156 C 32.769531 20.6875 32.273438 19.121094 31.289062 17.703125 C 30.300781 16.289062 29.035156 15.578125 27.488281 15.578125 L 23.75 15.578125 L 23.75 76.707031 L 27.488281 76.707031 C 29.035156 76.707031 30.300781 76.019531 31.289062 74.648438 C 32.273438 73.269531 32.769531 71.675781 32.769531 69.875 Z M 32.769531 69.875 " fill-opacity="1" fill-rule="nonzero"/></g><g clip-path="url(#f03d0efd2b)"><path fill="#000000" d="M 87.160156 70.898438 C 87.160156 73.742188 87.589844 75.613281 88.449219 76.515625 C 89.308594 77.414062 90.378906 77.863281 91.660156 77.863281 C 92.953125 77.863281 94.027344 77.414062 94.886719 76.515625 C 95.746094 75.613281 96.175781 73.742188 96.175781 70.898438 L 96.175781 0.101562 L 119.894531 0.101562 L 119.894531 67.546875 C 119.894531 85.265625 110.480469 94.117188 91.660156 94.117188 C 72.847656 94.117188 63.441406 85.265625 63.441406 67.546875 L 63.441406 0.101562 L 87.160156 0.101562 Z M 87.160156 70.898438 " fill-opacity="1" fill-rule="nonzero"/></g><g clip-path="url(#f5bb79501c)"><path fill="#000000" d="M 160.484375 45.886719 L 160.742188 45.886719 L 160.742188 0.101562 L 180.859375 0.101562 L 180.859375 92.183594 L 160.742188 92.183594 L 147.34375 40.722656 L 146.953125 40.722656 L 146.953125 92.183594 L 126.847656 92.183594 L 126.847656 0.101562 L 146.953125 0.101562 Z M 160.484375 45.886719 " fill-opacity="1" fill-rule="nonzero"/></g><g clip-path="url(#b42792b8fa)"><path fill="#000000" d="M 244.261719 23.054688 L 244.261719 74.902344 C 244.261719 80.578125 242.371094 84.878906 238.59375 87.796875 C 234.808594 90.722656 229.871094 92.183594 223.769531 92.183594 L 187.808594 92.183594 L 187.808594 0.101562 L 218.609375 0.101562 C 224.28125 0.101562 228.960938 0.726562 232.652344 1.972656 C 236.351562 3.21875 239.210938 5.519531 241.226562 8.871094 C 243.25 12.226562 244.261719 16.949219 244.261719 23.054688 Z M 220.542969 69.875 L 220.542969 22.410156 C 220.542969 20.6875 220.050781 19.121094 219.066406 17.703125 C 218.078125 16.289062 216.8125 15.578125 215.261719 15.578125 L 211.527344 15.578125 L 211.527344 76.707031 L 215.261719 76.707031 C 216.8125 76.707031 218.078125 76.019531 219.066406 74.648438 C 220.050781 73.269531 220.542969 71.675781 220.542969 69.875 Z M 220.542969 69.875 " fill-opacity="1" fill-rule="nonzero"/></g><g clip-path="url(#806ae0eac5)"><path fill="#000000" d="M 291.304688 18.671875 L 274.9375 18.671875 L 274.9375 35.574219 L 290.269531 35.574219 L 290.269531 53.363281 L 274.9375 53.363281 L 274.9375 73.613281 L 292.59375 73.613281 L 292.59375 92.183594 L 251.21875 92.183594 L 251.21875 0.101562 L 291.304688 0.101562 Z M 291.304688 18.671875 " fill-opacity="1" fill-rule="nonzero"/></g><g clip-path="url(#296293df9f)"><path fill="#000000" d="M 350.964844 18.28125 L 350.964844 27.574219 C 350.964844 32.648438 349.804688 36.453125 347.484375 38.988281 C 345.175781 41.527344 341.695312 42.964844 337.058594 43.304688 L 337.058594 43.5625 C 342.128906 43.910156 345.863281 45.375 348.265625 47.957031 C 350.675781 50.53125 351.878906 54.355469 351.878906 59.425781 L 351.878906 92.183594 L 329.707031 92.183594 L 329.707031 56.847656 C 329.707031 51.773438 327.644531 49.234375 323.523438 49.234375 C 322.574219 49.234375 321.671875 49.367188 320.8125 49.625 L 320.8125 92.183594 L 297.871094 92.183594 L 297.871094 0.101562 L 325.582031 0.101562 C 331.082031 0.101562 335.59375 0.511719 339.113281 1.328125 C 342.632812 2.144531 345.488281 3.863281 347.671875 6.488281 C 349.867188 9.109375 350.964844 13.039062 350.964844 18.28125 Z M 322.492188 35.304688 C 325.238281 35.304688 327.128906 34.683594 328.160156 33.4375 C 329.191406 32.191406 329.707031 30.753906 329.707031 29.121094 L 329.707031 21 C 329.707031 19.449219 329.191406 18.027344 328.160156 16.734375 C 327.128906 15.445312 325.277344 14.800781 322.613281 14.800781 L 320.8125 14.800781 L 320.8125 35.304688 Z M 322.492188 35.304688 " fill-opacity="1" fill-rule="nonzero"/></g><path fill="#000000" d="M 39.285156 152.027344 L 39.539062 152.027344 L 45.089844 98.257812 L 77.046875 98.257812 L 77.046875 190.335938 L 56.941406 190.335938 L 56.941406 121.992188 L 56.6875 121.992188 L 46.753906 190.335938 L 31.8125 190.335938 L 21.882812 121.992188 L 21.625 121.992188 L 21.625 190.335938 L 1.523438 190.335938 L 1.523438 98.257812 L 33.101562 98.257812 Z M 39.285156 152.027344 " fill-opacity="1" fill-rule="nonzero"/><path fill="#000000" d="M 82.328125 98.257812 L 106.046875 98.257812 L 106.046875 190.335938 L 82.328125 190.335938 Z M 82.328125 98.257812 " fill-opacity="1" fill-rule="nonzero"/><path fill="#000000" d="M 151.28125 116.828125 L 135.046875 116.828125 L 135.046875 133.730469 L 148.96875 133.730469 L 148.96875 151.519531 L 135.046875 151.519531 L 135.046875 190.335938 L 111.328125 190.335938 L 111.328125 98.257812 L 151.28125 98.257812 Z M 151.28125 116.828125 " fill-opacity="1" fill-rule="nonzero"/><path fill="#000000" d="M 194.195312 116.828125 L 177.960938 116.828125 L 177.960938 133.730469 L 191.882812 133.730469 L 191.882812 151.519531 L 177.960938 151.519531 L 177.960938 190.335938 L 154.246094 190.335938 L 154.246094 98.257812 L 194.195312 98.257812 Z M 194.195312 116.828125 " fill-opacity="1" fill-rule="nonzero"/><path fill="#000000" d="M 220.878906 172.535156 L 236.601562 172.535156 L 236.601562 190.335938 L 197.160156 190.335938 L 197.160156 98.257812 L 220.878906 98.257812 Z M 220.878906 172.535156 " fill-opacity="1" fill-rule="nonzero"/><path fill="#000000" d="M 239.6875 98.257812 L 263.40625 98.257812 L 263.40625 190.335938 L 239.6875 190.335938 Z M 239.6875 98.257812 " fill-opacity="1" fill-rule="nonzero"/><path fill="#000000" d="M 302.324219 144.042969 L 302.578125 144.042969 L 302.578125 98.257812 L 322.695312 98.257812 L 322.695312 190.335938 L 302.578125 190.335938 L 289.183594 138.878906 L 288.792969 138.878906 L 288.792969 190.335938 L 268.6875 190.335938 L 268.6875 98.257812 L 288.792969 98.257812 Z M 302.324219 144.042969 " fill-opacity="1" fill-rule="nonzero"/><path fill="#000000" d="M 346.664062 185.820312 C 346.664062 188.3125 345.953125 190.847656 344.527344 193.429688 C 343.113281 196.011719 341.136719 198.179688 338.601562 199.9375 C 336.066406 201.703125 333.167969 202.585938 329.910156 202.585938 L 329.261719 195.621094 C 330.8125 195.539062 331.949219 194.960938 332.675781 193.886719 C 333.410156 192.8125 333.777344 191.628906 333.777344 190.335938 L 328.875 190.335938 L 328.875 171.769531 L 346.664062 171.769531 Z M 346.664062 185.820312 " fill-opacity="1" fill-rule="nonzero"/><g clip-path="url(#ff112a3e83)"><path fill="#000000" d="M 15.054688 207.222656 C 16.503906 207.222656 17.742188 207.488281 18.761719 208.015625 C 19.789062 208.546875 20.570312 209.289062 21.101562 210.246094 C 21.628906 211.199219 21.894531 212.3125 21.894531 213.582031 C 21.894531 214.84375 21.628906 215.953125 21.101562 216.902344 C 20.570312 217.855469 19.789062 218.597656 18.761719 219.132812 C 17.742188 219.664062 16.503906 219.929688 15.054688 219.929688 L 11.238281 219.929688 L 11.238281 227.472656 L 7.234375 227.472656 L 7.234375 207.222656 Z M 14.53125 216.753906 C 16.75 216.753906 17.863281 215.699219 17.863281 213.582031 C 17.863281 211.457031 16.75 210.394531 14.53125 210.394531 L 11.238281 210.394531 L 11.238281 216.753906 Z M 14.53125 216.753906 " fill-opacity="1" fill-rule="nonzero"/></g><g clip-path="url(#d136082458)"><path fill="#000000" d="M 49.40625 227.472656 L 45.203125 227.472656 L 43.683594 222.804688 L 35.929688 222.804688 L 34.410156 227.472656 L 30.300781 227.472656 L 37.285156 207.222656 L 42.421875 207.222656 Z M 39.613281 211.445312 L 37.003906 219.429688 L 42.582031 219.429688 L 39.960938 211.445312 Z M 39.613281 211.445312 " fill-opacity="1" fill-rule="nonzero"/></g><g clip-path="url(#9e16eddfa3)"><path fill="#000000" d="M 68.453125 207.222656 C 69.902344 207.222656 71.140625 207.488281 72.160156 208.015625 C 73.1875 208.546875 73.96875 209.289062 74.5 210.246094 C 75.027344 211.199219 75.292969 212.3125 75.292969 213.582031 C 75.292969 214.84375 75.027344 215.953125 74.5 216.902344 C 73.96875 217.855469 73.1875 218.597656 72.160156 219.132812 C 71.140625 219.664062 69.902344 219.929688 68.453125 219.929688 L 64.636719 219.929688 L 64.636719 227.472656 L 60.632812 227.472656 L 60.632812 207.222656 Z M 67.929688 216.753906 C 70.148438 216.753906 71.261719 215.699219 71.261719 213.582031 C 71.261719 211.457031 70.148438 210.394531 67.929688 210.394531 L 64.636719 210.394531 L 64.636719 216.753906 Z M 67.929688 216.753906 " fill-opacity="1" fill-rule="nonzero"/></g><g clip-path="url(#9c0dc7b0ff)"><path fill="#000000" d="M 91.410156 218.582031 L 91.410156 224.125 L 101.074219 224.125 L 101.074219 227.472656 L 87.40625 227.472656 L 87.40625 207.222656 L 100.84375 207.222656 L 100.84375 210.570312 L 91.410156 210.570312 L 91.410156 215.300781 L 99.664062 215.300781 L 99.664062 218.582031 Z M 91.410156 218.582031 " fill-opacity="1" fill-rule="nonzero"/></g><g clip-path="url(#af20a952b5)"><path fill="#000000" d="M 113.089844 227.472656 L 113.089844 207.222656 L 121.21875 207.222656 C 123.304688 207.222656 124.878906 207.707031 125.949219 208.671875 C 127.011719 209.636719 127.546875 210.964844 127.546875 212.667969 C 127.546875 213.898438 127.230469 214.90625 126.605469 215.691406 C 125.988281 216.472656 125.0625 217.070312 123.824219 217.480469 L 123.824219 217.777344 C 124.460938 218.054688 124.972656 218.46875 125.371094 219.015625 C 125.765625 219.550781 126.136719 220.359375 126.484375 221.433594 L 128.5 227.472656 L 124.390625 227.472656 L 122.414062 221.421875 C 122.207031 220.8125 121.976562 220.339844 121.730469 220.007812 C 121.476562 219.667969 121.15625 219.421875 120.761719 219.269531 C 120.363281 219.117188 119.855469 219.039062 119.230469 219.039062 L 117.09375 219.039062 L 117.09375 227.472656 Z M 120.722656 215.867188 C 122.664062 215.867188 123.636719 214.964844 123.636719 213.152344 C 123.636719 211.316406 122.664062 210.394531 120.722656 210.394531 L 117.09375 210.394531 L 117.09375 215.867188 Z M 120.722656 215.867188 " fill-opacity="1" fill-rule="nonzero"/></g><g clip-path="url(#91e78723da)"><path fill="#000000" d="M 163.683594 227.765625 C 161.820312 227.765625 160.175781 227.382812 158.753906 226.609375 C 157.335938 225.832031 156.226562 224.660156 155.421875 223.101562 C 154.613281 221.542969 154.210938 219.625 154.210938 217.347656 C 154.210938 215.058594 154.613281 213.144531 155.421875 211.589844 C 156.226562 210.03125 157.335938 208.867188 158.753906 208.09375 C 160.175781 207.316406 161.820312 206.925781 163.683594 206.925781 C 165.636719 206.925781 167.292969 207.308594 168.65625 208.070312 C 170.015625 208.832031 170.984375 209.992188 171.558594 211.550781 L 168.644531 213.339844 L 168.292969 213.324219 C 167.863281 212.277344 167.277344 211.523438 166.535156 211.066406 C 165.789062 210.609375 164.839844 210.382812 163.683594 210.382812 C 162.007812 210.382812 160.699219 210.9375 159.761719 212.046875 C 158.820312 213.160156 158.347656 214.925781 158.347656 217.347656 C 158.347656 219.761719 158.820312 221.519531 159.761719 222.628906 C 160.699219 223.742188 162.007812 224.296875 163.683594 224.296875 C 166.316406 224.296875 167.929688 223.019531 168.523438 220.464844 L 168.871094 220.464844 L 171.816406 222 C 171.257812 223.917969 170.308594 225.359375 168.964844 226.328125 C 167.628906 227.289062 165.867188 227.765625 163.683594 227.765625 Z M 163.683594 227.765625 " fill-opacity="1" fill-rule="nonzero"/></g><g clip-path="url(#1a50527035)"><path fill="#000000" d="M 191.554688 227.765625 C 189.699219 227.765625 188.0625 227.390625 186.648438 226.636719 C 185.230469 225.878906 184.121094 224.714844 183.316406 223.15625 C 182.511719 221.59375 182.105469 219.660156 182.105469 217.347656 C 182.105469 215.027344 182.511719 213.089844 183.316406 211.539062 C 184.121094 209.976562 185.230469 208.820312 186.648438 208.070312 C 188.0625 207.308594 189.699219 206.925781 191.554688 206.925781 C 193.410156 206.925781 195.039062 207.300781 196.445312 208.054688 C 197.859375 208.808594 198.964844 209.964844 199.765625 211.523438 C 200.570312 213.082031 200.972656 215.027344 200.972656 217.347656 C 200.972656 219.660156 200.570312 221.601562 199.765625 223.167969 C 198.964844 224.726562 197.859375 225.882812 196.445312 226.636719 C 195.039062 227.390625 193.410156 227.765625 191.554688 227.765625 Z M 191.554688 224.285156 C 193.273438 224.285156 194.585938 223.734375 195.492188 222.628906 C 196.394531 221.527344 196.847656 219.765625 196.847656 217.347656 C 196.847656 214.925781 196.394531 213.164062 195.492188 212.0625 C 194.585938 210.953125 193.273438 210.394531 191.554688 210.394531 C 189.824219 210.394531 188.507812 210.953125 187.601562 212.0625 C 186.695312 213.164062 186.246094 214.925781 186.246094 217.347656 C 186.246094 219.765625 186.695312 221.527344 187.601562 222.628906 C 188.507812 223.734375 189.824219 224.285156 191.554688 224.285156 Z M 191.554688 224.285156 " fill-opacity="1" fill-rule="nonzero"/></g><g clip-path="url(#a893703b0f)"><path fill="#000000" d="M 217.15625 227.472656 L 213.488281 227.472656 L 213.488281 207.222656 L 218.714844 207.222656 L 223.835938 222.105469 L 224.132812 222.105469 L 229.226562 207.222656 L 234.332031 207.222656 L 234.332031 227.472656 L 230.542969 227.472656 L 230.542969 214.09375 L 230.191406 214.039062 L 225.515625 227.472656 L 222.183594 227.472656 L 217.507812 214.039062 L 217.15625 214.09375 Z M 217.15625 227.472656 " fill-opacity="1" fill-rule="nonzero"/></g><g clip-path="url(#a0dc92cee6)"><path fill="#000000" d="M 255.714844 207.222656 C 257.164062 207.222656 258.402344 207.488281 259.421875 208.015625 C 260.449219 208.546875 261.230469 209.289062 261.761719 210.246094 C 262.289062 211.199219 262.554688 212.3125 262.554688 213.582031 C 262.554688 214.84375 262.289062 215.953125 261.761719 216.902344 C 261.230469 217.855469 260.449219 218.597656 259.421875 219.132812 C 258.402344 219.664062 257.164062 219.929688 255.714844 219.929688 L 251.898438 219.929688 L 251.898438 227.472656 L 247.890625 227.472656 L 247.890625 207.222656 Z M 255.1875 216.753906 C 257.410156 216.753906 258.523438 215.699219 258.523438 213.582031 C 258.523438 211.457031 257.410156 210.394531 255.1875 210.394531 L 251.898438 210.394531 L 251.898438 216.753906 Z M 255.1875 216.753906 " fill-opacity="1" fill-rule="nonzero"/></g><g clip-path="url(#96b74922eb)"><path fill="#000000" d="M 290.066406 227.472656 L 285.863281 227.472656 L 284.34375 222.804688 L 276.589844 222.804688 L 275.070312 227.472656 L 270.957031 227.472656 L 277.945312 207.222656 L 283.078125 207.222656 Z M 280.269531 211.445312 L 277.664062 219.429688 L 283.242188 219.429688 L 280.621094 211.445312 Z M 280.269531 211.445312 " fill-opacity="1" fill-rule="nonzero"/></g><g clip-path="url(#970140a972)"><path fill="#000000" d="M 305.160156 227.472656 L 301.289062 227.472656 L 301.289062 207.222656 L 305.875 207.222656 L 314.003906 220.265625 L 314.351562 220.210938 L 314.351562 207.222656 L 318.210938 207.222656 L 318.210938 227.472656 L 314.109375 227.472656 L 305.511719 213.542969 L 305.160156 213.59375 Z M 305.160156 227.472656 " fill-opacity="1" fill-rule="nonzero"/></g><g clip-path="url(#eb4685c5c6)"><path fill="#000000" d="M 340.214844 227.472656 L 336.222656 227.472656 L 336.222656 219.523438 L 329.222656 207.222656 L 333.523438 207.222656 L 338.144531 215.179688 L 338.480469 215.179688 L 343.011719 207.222656 L 347.214844 207.222656 L 340.214844 219.523438 Z M 340.214844 227.472656 " fill-opacity="1" fill-rule="nonzero"/></g><path fill="#000000" d="M 330.601562 101.011719 L 372.285156 101.011719 L 372.285156 111.757812 L 330.601562 111.757812 Z M 330.601562 101.011719 " fill-opacity="1" fill-rule="nonzero"/><path fill="#000000" d="M 351.5625 129.40625 L 351.5625 129.515625 L 372.285156 129.515625 L 372.285156 138.632812 L 330.601562 138.632812 L 330.601562 129.515625 L 353.902344 123.4375 L 353.902344 123.261719 L 330.601562 123.261719 L 330.601562 114.160156 L 372.285156 114.160156 L 372.285156 123.261719 Z M 351.5625 129.40625 " fill-opacity="1" fill-rule="nonzero"/><g clip-path="url(#7cbaf1fb4e)"><path fill="#000000" d="M 373.171875 154.242188 C 373.171875 158.28125 372.101562 161.300781 369.960938 163.289062 C 367.816406 165.28125 365.054688 166.277344 361.667969 166.277344 L 355.527344 166.277344 L 355.527344 155.519531 L 363.710938 155.519531 C 364.523438 155.519531 365.136719 155.378906 365.539062 155.101562 C 365.949219 154.832031 366.15625 154.328125 366.15625 153.597656 C 366.15625 152.96875 365.882812 152.535156 365.335938 152.304688 C 364.789062 152.070312 364.210938 151.957031 363.589844 151.957031 L 339.292969 151.957031 C 338.675781 151.957031 338.09375 152.070312 337.546875 152.304688 C 337 152.535156 336.726562 152.96875 336.726562 153.597656 C 336.726562 154.328125 336.960938 154.832031 337.425781 155.101562 C 337.902344 155.378906 338.621094 155.519531 339.589844 155.519531 L 348.582031 155.519531 L 348.582031 166.277344 L 341.457031 166.277344 C 339.316406 166.277344 337.347656 165.824219 335.558594 164.929688 C 333.765625 164.035156 332.347656 162.660156 331.300781 160.804688 C 330.25 158.953125 329.726562 156.6875 329.726562 154 C 329.726562 149.832031 330.714844 146.65625 332.695312 144.480469 C 334.683594 142.300781 337.898438 141.210938 342.332031 141.210938 L 360.554688 141.210938 C 364.683594 141.210938 367.816406 142.316406 369.960938 144.53125 C 372.101562 146.753906 373.171875 149.992188 373.171875 154.242188 Z M 373.171875 154.242188 " fill-opacity="1" fill-rule="nonzero"/></g></svg>