<svg xmlns="http://www.w3.org/2000/svg" xmlns:xlink="http://www.w3.org/1999/xlink" width="499" zoomAndPan="magnify" viewBox="0 0 374.25 227.999995" height="304" preserveAspectRatio="xMidYMid meet" version="1.0"><defs><clipPath id="9c95140f3f"><path d="M 0 0.226562 L 57 0.226562 L 57 93 L 0 93 Z M 0 0.226562 " clip-rule="nonzero"/></clipPath><clipPath id="cdff72f194"><path d="M 63 0.226562 L 121 0.226562 L 121 95 L 63 95 Z M 63 0.226562 " clip-rule="nonzero"/></clipPath><clipPath id="76b0777a9e"><path d="M 126 0.226562 L 182 0.226562 L 182 93 L 126 93 Z M 126 0.226562 " clip-rule="nonzero"/></clipPath><clipPath id="1297c584f0"><path d="M 187 0.226562 L 245 0.226562 L 245 93 L 187 93 Z M 187 0.226562 " clip-rule="nonzero"/></clipPath><clipPath id="5fa9c7b316"><path d="M 251 0.226562 L 293 0.226562 L 293 93 L 251 93 Z M 251 0.226562 " clip-rule="nonzero"/></clipPath><clipPath id="4415bf06b9"><path d="M 298 0.226562 L 353 0.226562 L 353 93 L 298 93 Z M 298 0.226562 " clip-rule="nonzero"/></clipPath><clipPath id="bbaddd8c01"><path d="M 7 207 L 22 207 L 22 227.769531 L 7 227.769531 Z M 7 207 " clip-rule="nonzero"/></clipPath><clipPath id="bb8f36bf69"><path d="M 30 207 L 50 207 L 50 227.769531 L 30 227.769531 Z M 30 207 " clip-rule="nonzero"/></clipPath><clipPath id="3f95fa9ad6"><path d="M 60 207 L 76 207 L 76 227.769531 L 60 227.769531 Z M 60 207 " clip-rule="nonzero"/></clipPath><clipPath id="8f4eb67182"><path d="M 87 207 L 102 207 L 102 227.769531 L 87 227.769531 Z M 87 207 " clip-rule="nonzero"/></clipPath><clipPath id="f5eba0122b"><path d="M 113 207 L 129 207 L 129 227.769531 L 113 227.769531 Z M 113 207 " clip-rule="nonzero"/></clipPath><clipPath id="785420eec4"><path d="M 154 206 L 172 206 L 172 227.769531 L 154 227.769531 Z M 154 206 " clip-rule="nonzero"/></clipPath><clipPath id="a5fa8eeaa7"><path d="M 182 206 L 202 206 L 202 227.769531 L 182 227.769531 Z M 182 206 " clip-rule="nonzero"/></clipPath><clipPath id="0ab8b8d7fc"><path d="M 213 207 L 235 207 L 235 227.769531 L 213 227.769531 Z M 213 207 " clip-rule="nonzero"/></clipPath><clipPath id="4df30b6bd1"><path d="M 248 207 L 263 207 L 263 227.769531 L 248 227.769531 Z M 248 207 " clip-rule="nonzero"/></clipPath><clipPath id="474e600ee9"><path d="M 271 207 L 291 207 L 291 227.769531 L 271 227.769531 Z M 271 207 " clip-rule="nonzero"/></clipPath><clipPath id="3561775a45"><path d="M 301 207 L 319 207 L 319 227.769531 L 301 227.769531 Z M 301 207 " clip-rule="nonzero"/></clipPath><clipPath id="7d8a072cc7"><path d="M 329 207 L 348 207 L 348 227.769531 L 329 227.769531 Z M 329 207 " clip-rule="nonzero"/></clipPath><clipPath id="df91e873e7"><path d="M 329.757812 141 L 373.5 141 L 373.5 166.339844 L 329.757812 166.339844 Z M 329.757812 141 " clip-rule="nonzero"/></clipPath><clipPath id="14ea29f69a"><path d="M 0 0.226562 L 57 0.226562 L 57 93 L 0 93 Z M 0 0.226562 " clip-rule="nonzero"/></clipPath><clipPath id="f01471be4e"><path d="M 63 0.226562 L 121 0.226562 L 121 95 L 63 95 Z M 63 0.226562 " clip-rule="nonzero"/></clipPath><clipPath id="e9489f58ff"><path d="M 126 0.226562 L 182 0.226562 L 182 93 L 126 93 Z M 126 0.226562 " clip-rule="nonzero"/></clipPath><clipPath id="f3c06e381d"><path d="M 187 0.226562 L 245 0.226562 L 245 93 L 187 93 Z M 187 0.226562 " clip-rule="nonzero"/></clipPath><clipPath id="bc9d100745"><path d="M 251 0.226562 L 293 0.226562 L 293 93 L 251 93 Z M 251 0.226562 " clip-rule="nonzero"/></clipPath><clipPath id="8dc4727827"><path d="M 298 0.226562 L 353 0.226562 L 353 93 L 298 93 Z M 298 0.226562 " clip-rule="nonzero"/></clipPath><clipPath id="e516fd4cce"><path d="M 7 207 L 22 207 L 22 227.769531 L 7 227.769531 Z M 7 207 " clip-rule="nonzero"/></clipPath><clipPath id="98390f348e"><path d="M 30 207 L 50 207 L 50 227.769531 L 30 227.769531 Z M 30 207 " clip-rule="nonzero"/></clipPath><clipPath id="2406a70bbd"><path d="M 60 207 L 76 207 L 76 227.769531 L 60 227.769531 Z M 60 207 " clip-rule="nonzero"/></clipPath><clipPath id="57b46e087c"><path d="M 87 207 L 102 207 L 102 227.769531 L 87 227.769531 Z M 87 207 " clip-rule="nonzero"/></clipPath><clipPath id="dadd703a93"><path d="M 113 207 L 129 207 L 129 227.769531 L 113 227.769531 Z M 113 207 " clip-rule="nonzero"/></clipPath><clipPath id="593c88009f"><path d="M 154 206 L 172 206 L 172 227.769531 L 154 227.769531 Z M 154 206 " clip-rule="nonzero"/></clipPath><clipPath id="9b162a92e2"><path d="M 182 206 L 202 206 L 202 227.769531 L 182 227.769531 Z M 182 206 " clip-rule="nonzero"/></clipPath><clipPath id="0a9e1aada8"><path d="M 213 207 L 235 207 L 235 227.769531 L 213 227.769531 Z M 213 207 " clip-rule="nonzero"/></clipPath><clipPath id="4c6159062e"><path d="M 248 207 L 263 207 L 263 227.769531 L 248 227.769531 Z M 248 207 " clip-rule="nonzero"/></clipPath><clipPath id="8135e12701"><path d="M 271 207 L 291 207 L 291 227.769531 L 271 227.769531 Z M 271 207 " clip-rule="nonzero"/></clipPath><clipPath id="52e7ea6d6f"><path d="M 301 207 L 319 207 L 319 227.769531 L 301 227.769531 Z M 301 207 " clip-rule="nonzero"/></clipPath><clipPath id="cbbf141ed9"><path d="M 329 207 L 348 207 L 348 227.769531 L 329 227.769531 Z M 329 207 " clip-rule="nonzero"/></clipPath><clipPath id="8ecb3b6dcf"><path d="M 329.757812 141 L 373.5 141 L 373.5 166.339844 L 329.757812 166.339844 Z M 329.757812 141 " clip-rule="nonzero"/></clipPath><clipPath id="d803f7f51a"><path d="M 0 0.226562 L 57 0.226562 L 57 93 L 0 93 Z M 0 0.226562 " clip-rule="nonzero"/></clipPath><clipPath id="34b80b0340"><path d="M 63 0.226562 L 121 0.226562 L 121 95 L 63 95 Z M 63 0.226562 " clip-rule="nonzero"/></clipPath><clipPath id="3af6c71b05"><path d="M 126 0.226562 L 182 0.226562 L 182 93 L 126 93 Z M 126 0.226562 " clip-rule="nonzero"/></clipPath><clipPath id="920eb88264"><path d="M 187 0.226562 L 245 0.226562 L 245 93 L 187 93 Z M 187 0.226562 " clip-rule="nonzero"/></clipPath><clipPath id="758d84634d"><path d="M 251 0.226562 L 293 0.226562 L 293 93 L 251 93 Z M 251 0.226562 " clip-rule="nonzero"/></clipPath><clipPath id="90a21e925e"><path d="M 298 0.226562 L 353 0.226562 L 353 93 L 298 93 Z M 298 0.226562 " clip-rule="nonzero"/></clipPath><clipPath id="d08f5527ab"><path d="M 7 207 L 22 207 L 22 227.769531 L 7 227.769531 Z M 7 207 " clip-rule="nonzero"/></clipPath><clipPath id="b963baa716"><path d="M 30 207 L 50 207 L 50 227.769531 L 30 227.769531 Z M 30 207 " clip-rule="nonzero"/></clipPath><clipPath id="b07200755f"><path d="M 60 207 L 76 207 L 76 227.769531 L 60 227.769531 Z M 60 207 " clip-rule="nonzero"/></clipPath><clipPath id="5aa03df2ea"><path d="M 87 207 L 102 207 L 102 227.769531 L 87 227.769531 Z M 87 207 " clip-rule="nonzero"/></clipPath><clipPath id="72df4cde53"><path d="M 113 207 L 129 207 L 129 227.769531 L 113 227.769531 Z M 113 207 " clip-rule="nonzero"/></clipPath><clipPath id="5b1f72a539"><path d="M 154 206 L 172 206 L 172 227.769531 L 154 227.769531 Z M 154 206 " clip-rule="nonzero"/></clipPath><clipPath id="ec965e6e26"><path d="M 182 206 L 202 206 L 202 227.769531 L 182 227.769531 Z M 182 206 " clip-rule="nonzero"/></clipPath><clipPath id="5ac713effd"><path d="M 213 207 L 235 207 L 235 227.769531 L 213 227.769531 Z M 213 207 " clip-rule="nonzero"/></clipPath><clipPath id="5c3af1d8a8"><path d="M 248 207 L 263 207 L 263 227.769531 L 248 227.769531 Z M 248 207 " clip-rule="nonzero"/></clipPath><clipPath id="405cc04564"><path d="M 271 207 L 291 207 L 291 227.769531 L 271 227.769531 Z M 271 207 " clip-rule="nonzero"/></clipPath><clipPath id="ff5401a37b"><path d="M 301 207 L 319 207 L 319 227.769531 L 301 227.769531 Z M 301 207 " clip-rule="nonzero"/></clipPath><clipPath id="b32471fdb5"><path d="M 329 207 L 348 207 L 348 227.769531 L 329 227.769531 Z M 329 207 " clip-rule="nonzero"/></clipPath><clipPath id="4d9e85cd92"><path d="M 329.757812 141 L 373.5 141 L 373.5 166.339844 L 329.757812 166.339844 Z M 329.757812 141 " clip-rule="nonzero"/></clipPath><clipPath id="aa943ee87a"><path d="M 0 0.226562 L 57 0.226562 L 57 93 L 0 93 Z M 0 0.226562 " clip-rule="nonzero"/></clipPath><clipPath id="e117ab59e5"><path d="M 63 0.226562 L 121 0.226562 L 121 95 L 63 95 Z M 63 0.226562 " clip-rule="nonzero"/></clipPath><clipPath id="2152456281"><path d="M 126 0.226562 L 182 0.226562 L 182 93 L 126 93 Z M 126 0.226562 " clip-rule="nonzero"/></clipPath><clipPath id="e26122a21a"><path d="M 187 0.226562 L 245 0.226562 L 245 93 L 187 93 Z M 187 0.226562 " clip-rule="nonzero"/></clipPath><clipPath id="e607792402"><path d="M 251 0.226562 L 293 0.226562 L 293 93 L 251 93 Z M 251 0.226562 " clip-rule="nonzero"/></clipPath><clipPath id="c1e615bf9c"><path d="M 298 0.226562 L 353 0.226562 L 353 93 L 298 93 Z M 298 0.226562 " clip-rule="nonzero"/></clipPath><clipPath id="1befc609f9"><path d="M 7 207 L 22 207 L 22 227.769531 L 7 227.769531 Z M 7 207 " clip-rule="nonzero"/></clipPath><clipPath id="d9edeac89e"><path d="M 30 207 L 50 207 L 50 227.769531 L 30 227.769531 Z M 30 207 " clip-rule="nonzero"/></clipPath><clipPath id="7a2ce16498"><path d="M 60 207 L 76 207 L 76 227.769531 L 60 227.769531 Z M 60 207 " clip-rule="nonzero"/></clipPath><clipPath id="8d71c110ad"><path d="M 87 207 L 102 207 L 102 227.769531 L 87 227.769531 Z M 87 207 " clip-rule="nonzero"/></clipPath><clipPath id="dd1d99f7c6"><path d="M 113 207 L 129 207 L 129 227.769531 L 113 227.769531 Z M 113 207 " clip-rule="nonzero"/></clipPath><clipPath id="65a10e5ec8"><path d="M 154 206 L 172 206 L 172 227.769531 L 154 227.769531 Z M 154 206 " clip-rule="nonzero"/></clipPath><clipPath id="e14451ea0e"><path d="M 182 206 L 202 206 L 202 227.769531 L 182 227.769531 Z M 182 206 " clip-rule="nonzero"/></clipPath><clipPath id="f794008459"><path d="M 213 207 L 235 207 L 235 227.769531 L 213 227.769531 Z M 213 207 " clip-rule="nonzero"/></clipPath><clipPath id="aa69baf30e"><path d="M 248 207 L 263 207 L 263 227.769531 L 248 227.769531 Z M 248 207 " clip-rule="nonzero"/></clipPath><clipPath id="7406deeba4"><path d="M 271 207 L 291 207 L 291 227.769531 L 271 227.769531 Z M 271 207 " clip-rule="nonzero"/></clipPath><clipPath id="2ca546d56f"><path d="M 301 207 L 319 207 L 319 227.769531 L 301 227.769531 Z M 301 207 " clip-rule="nonzero"/></clipPath><clipPath id="3885a7eff0"><path d="M 329 207 L 348 207 L 348 227.769531 L 329 227.769531 Z M 329 207 " clip-rule="nonzero"/></clipPath><clipPath id="5a5d9ed1d7"><path d="M 329.757812 141 L 373.5 141 L 373.5 166.339844 L 329.757812 166.339844 Z M 329.757812 141 " clip-rule="nonzero"/></clipPath></defs><g clip-path="url(#9c95140f3f)"><path fill="#212529" d="M 56.566406 23.054688 L 56.566406 74.902344 C 56.566406 80.578125 54.675781 84.878906 50.894531 87.796875 C 47.109375 90.722656 42.167969 92.183594 36.0625 92.183594 L 0.0820312 92.183594 L 0.0820312 0.101562 L 30.898438 0.101562 C 36.574219 0.101562 41.257812 0.726562 44.949219 1.972656 C 48.652344 3.21875 51.511719 5.519531 53.527344 8.871094 C 55.550781 12.226562 56.566406 16.949219 56.566406 23.054688 Z M 32.835938 69.875 L 32.835938 22.410156 C 32.835938 20.6875 32.339844 19.121094 31.355469 17.703125 C 30.367188 16.289062 29.101562 15.578125 27.550781 15.578125 L 23.8125 15.578125 L 23.8125 76.707031 L 27.550781 76.707031 C 29.101562 76.707031 30.367188 76.019531 31.355469 74.648438 C 32.339844 73.269531 32.835938 71.675781 32.835938 69.875 Z M 32.835938 69.875 " fill-opacity="1" fill-rule="nonzero"/></g><g clip-path="url(#cdff72f194)"><path fill="#212529" d="M 87.257812 70.898438 C 87.257812 73.742188 87.6875 75.613281 88.550781 76.515625 C 89.410156 77.414062 90.480469 77.863281 91.761719 77.863281 C 93.054688 77.863281 94.128906 77.414062 94.992188 76.515625 C 95.851562 75.613281 96.28125 73.742188 96.28125 70.898438 L 96.28125 0.101562 L 120.011719 0.101562 L 120.011719 67.546875 C 120.011719 85.265625 110.59375 94.117188 91.761719 94.117188 C 72.9375 94.117188 63.527344 85.265625 63.527344 67.546875 L 63.527344 0.101562 L 87.257812 0.101562 Z M 87.257812 70.898438 " fill-opacity="1" fill-rule="nonzero"/></g><g clip-path="url(#76b0777a9e)"><path fill="#212529" d="M 160.628906 45.886719 L 160.882812 45.886719 L 160.882812 0.101562 L 181.011719 0.101562 L 181.011719 92.183594 L 160.882812 92.183594 L 147.476562 40.722656 L 147.085938 40.722656 L 147.085938 92.183594 L 126.972656 92.183594 L 126.972656 0.101562 L 147.085938 0.101562 Z M 160.628906 45.886719 " fill-opacity="1" fill-rule="nonzero"/></g><g clip-path="url(#1297c584f0)"><path fill="#212529" d="M 244.457031 23.054688 L 244.457031 74.902344 C 244.457031 80.578125 242.5625 84.878906 238.78125 87.796875 C 234.996094 90.722656 230.054688 92.183594 223.949219 92.183594 L 187.96875 92.183594 L 187.96875 0.101562 L 218.785156 0.101562 C 224.460938 0.101562 229.144531 0.726562 232.835938 1.972656 C 236.539062 3.21875 239.398438 5.519531 241.417969 8.871094 C 243.441406 12.226562 244.457031 16.949219 244.457031 23.054688 Z M 220.722656 69.875 L 220.722656 22.410156 C 220.722656 20.6875 220.230469 19.121094 219.242188 17.703125 C 218.253906 16.289062 216.988281 15.578125 215.4375 15.578125 L 211.699219 15.578125 L 211.699219 76.707031 L 215.4375 76.707031 C 216.988281 76.707031 218.253906 76.019531 219.242188 74.648438 C 220.230469 73.269531 220.722656 71.675781 220.722656 69.875 Z M 220.722656 69.875 " fill-opacity="1" fill-rule="nonzero"/></g><g clip-path="url(#5fa9c7b316)"><path fill="#212529" d="M 291.523438 18.671875 L 275.144531 18.671875 L 275.144531 35.574219 L 290.488281 35.574219 L 290.488281 53.363281 L 275.144531 53.363281 L 275.144531 73.613281 L 292.816406 73.613281 L 292.816406 92.183594 L 251.414062 92.183594 L 251.414062 0.101562 L 291.523438 0.101562 Z M 291.523438 18.671875 " fill-opacity="1" fill-rule="nonzero"/></g><g clip-path="url(#4415bf06b9)"><path fill="#212529" d="M 351.222656 18.28125 L 351.222656 27.574219 C 351.222656 32.648438 350.058594 36.453125 347.738281 38.988281 C 345.425781 41.527344 341.945312 42.964844 337.304688 43.304688 L 337.304688 43.5625 C 342.378906 43.910156 346.113281 45.375 348.519531 47.957031 C 350.929688 50.53125 352.136719 54.355469 352.136719 59.425781 L 352.136719 92.183594 L 329.949219 92.183594 L 329.949219 56.847656 C 329.949219 51.773438 327.886719 49.234375 323.765625 49.234375 C 322.8125 49.234375 321.910156 49.367188 321.046875 49.625 L 321.046875 92.183594 L 298.097656 92.183594 L 298.097656 0.101562 L 325.820312 0.101562 C 331.324219 0.101562 335.839844 0.511719 339.363281 1.328125 C 342.886719 2.144531 345.738281 3.863281 347.925781 6.488281 C 350.121094 9.109375 351.222656 13.039062 351.222656 18.28125 Z M 322.730469 35.304688 C 325.480469 35.304688 327.371094 34.683594 328.402344 33.4375 C 329.433594 32.191406 329.949219 30.753906 329.949219 29.121094 L 329.949219 21 C 329.949219 19.449219 329.433594 18.027344 328.402344 16.734375 C 327.371094 15.445312 325.519531 14.800781 322.851562 14.800781 L 321.046875 14.800781 L 321.046875 35.304688 Z M 322.730469 35.304688 " fill-opacity="1" fill-rule="nonzero"/></g><path fill="#212529" d="M 39.355469 152.027344 L 39.609375 152.027344 L 45.164062 98.257812 L 77.140625 98.257812 L 77.140625 190.335938 L 57.023438 190.335938 L 57.023438 121.992188 L 56.769531 121.992188 L 46.832031 190.335938 L 31.878906 190.335938 L 21.941406 121.992188 L 21.6875 121.992188 L 21.6875 190.335938 L 1.570312 190.335938 L 1.570312 98.257812 L 33.171875 98.257812 Z M 39.355469 152.027344 " fill-opacity="1" fill-rule="nonzero"/><path fill="#212529" d="M 82.421875 98.257812 L 106.15625 98.257812 L 106.15625 190.335938 L 82.421875 190.335938 Z M 82.421875 98.257812 " fill-opacity="1" fill-rule="nonzero"/><path fill="#212529" d="M 151.417969 116.828125 L 135.171875 116.828125 L 135.171875 133.730469 L 149.105469 133.730469 L 149.105469 151.519531 L 135.171875 151.519531 L 135.171875 190.335938 L 111.441406 190.335938 L 111.441406 98.257812 L 151.417969 98.257812 Z M 151.417969 116.828125 " fill-opacity="1" fill-rule="nonzero"/><path fill="#212529" d="M 194.359375 116.828125 L 178.117188 116.828125 L 178.117188 133.730469 L 192.046875 133.730469 L 192.046875 151.519531 L 178.117188 151.519531 L 178.117188 190.335938 L 154.382812 190.335938 L 154.382812 98.257812 L 194.359375 98.257812 Z M 194.359375 116.828125 " fill-opacity="1" fill-rule="nonzero"/><path fill="#212529" d="M 221.058594 172.535156 L 236.789062 172.535156 L 236.789062 190.335938 L 197.324219 190.335938 L 197.324219 98.257812 L 221.058594 98.257812 Z M 221.058594 172.535156 " fill-opacity="1" fill-rule="nonzero"/><path fill="#212529" d="M 239.878906 98.257812 L 263.609375 98.257812 L 263.609375 190.335938 L 239.878906 190.335938 Z M 239.878906 98.257812 " fill-opacity="1" fill-rule="nonzero"/><path fill="#212529" d="M 302.550781 144.042969 L 302.804688 144.042969 L 302.804688 98.257812 L 322.933594 98.257812 L 322.933594 190.335938 L 302.804688 190.335938 L 289.402344 138.878906 L 289.011719 138.878906 L 289.011719 190.335938 L 268.894531 190.335938 L 268.894531 98.257812 L 289.011719 98.257812 Z M 302.550781 144.042969 " fill-opacity="1" fill-rule="nonzero"/><path fill="#212529" d="M 346.917969 185.820312 C 346.917969 188.3125 346.207031 190.847656 344.78125 193.429688 C 343.363281 196.011719 341.386719 198.179688 338.851562 199.9375 C 336.3125 201.703125 333.410156 202.585938 330.152344 202.585938 L 329.503906 195.621094 C 331.054688 195.539062 332.195312 194.960938 332.921875 193.886719 C 333.652344 192.8125 334.023438 191.628906 334.023438 190.335938 L 329.117188 190.335938 L 329.117188 171.769531 L 346.917969 171.769531 Z M 346.917969 185.820312 " fill-opacity="1" fill-rule="nonzero"/><g clip-path="url(#bbaddd8c01)"><path fill="#212529" d="M 15.109375 207.222656 C 16.5625 207.222656 17.800781 207.488281 18.820312 208.015625 C 19.851562 208.546875 20.628906 209.289062 21.160156 210.246094 C 21.6875 211.199219 21.953125 212.3125 21.953125 213.582031 C 21.953125 214.84375 21.6875 215.953125 21.160156 216.902344 C 20.628906 217.855469 19.851562 218.597656 18.820312 219.132812 C 17.800781 219.664062 16.5625 219.929688 15.109375 219.929688 L 11.292969 219.929688 L 11.292969 227.472656 L 7.285156 227.472656 L 7.285156 207.222656 Z M 14.585938 216.753906 C 16.808594 216.753906 17.921875 215.699219 17.921875 213.582031 C 17.921875 211.457031 16.808594 210.394531 14.585938 210.394531 L 11.292969 210.394531 L 11.292969 216.753906 Z M 14.585938 216.753906 " fill-opacity="1" fill-rule="nonzero"/></g><g clip-path="url(#bb8f36bf69)"><path fill="#212529" d="M 49.484375 227.472656 L 45.277344 227.472656 L 43.757812 222.804688 L 36 222.804688 L 34.480469 227.472656 L 30.363281 227.472656 L 37.355469 207.222656 L 42.492188 207.222656 Z M 39.683594 211.445312 L 37.074219 219.429688 L 42.65625 219.429688 L 40.03125 211.445312 Z M 39.683594 211.445312 " fill-opacity="1" fill-rule="nonzero"/></g><g clip-path="url(#3f95fa9ad6)"><path fill="#212529" d="M 68.539062 207.222656 C 69.992188 207.222656 71.230469 207.488281 72.25 208.015625 C 73.28125 208.546875 74.058594 209.289062 74.589844 210.246094 C 75.117188 211.199219 75.382812 212.3125 75.382812 213.582031 C 75.382812 214.84375 75.117188 215.953125 74.589844 216.902344 C 74.058594 217.855469 73.28125 218.597656 72.25 219.132812 C 71.230469 219.664062 69.992188 219.929688 68.539062 219.929688 L 64.722656 219.929688 L 64.722656 227.472656 L 60.714844 227.472656 L 60.714844 207.222656 Z M 68.015625 216.753906 C 70.238281 216.753906 71.351562 215.699219 71.351562 213.582031 C 71.351562 211.457031 70.238281 210.394531 68.015625 210.394531 L 64.722656 210.394531 L 64.722656 216.753906 Z M 68.015625 216.753906 " fill-opacity="1" fill-rule="nonzero"/></g><g clip-path="url(#8f4eb67182)"><path fill="#212529" d="M 91.511719 218.582031 L 91.511719 224.125 L 101.179688 224.125 L 101.179688 227.472656 L 87.507812 227.472656 L 87.507812 207.222656 L 100.953125 207.222656 L 100.953125 210.570312 L 91.511719 210.570312 L 91.511719 215.300781 L 99.769531 215.300781 L 99.769531 218.582031 Z M 91.511719 218.582031 " fill-opacity="1" fill-rule="nonzero"/></g><g clip-path="url(#f5eba0122b)"><path fill="#212529" d="M 113.203125 227.472656 L 113.203125 207.222656 L 121.335938 207.222656 C 123.425781 207.222656 125 207.707031 126.070312 208.671875 C 127.136719 209.636719 127.671875 210.964844 127.671875 212.667969 C 127.671875 213.898438 127.355469 214.90625 126.730469 215.691406 C 126.109375 216.472656 125.183594 217.070312 123.945312 217.480469 L 123.945312 217.777344 C 124.582031 218.054688 125.097656 218.46875 125.492188 219.015625 C 125.886719 219.550781 126.257812 220.359375 126.609375 221.433594 L 128.625 227.472656 L 124.511719 227.472656 L 122.535156 221.421875 C 122.324219 220.8125 122.097656 220.339844 121.847656 220.007812 C 121.597656 219.667969 121.273438 219.421875 120.878906 219.269531 C 120.484375 219.117188 119.972656 219.039062 119.347656 219.039062 L 117.210938 219.039062 L 117.210938 227.472656 Z M 120.839844 215.867188 C 122.785156 215.867188 123.757812 214.964844 123.757812 213.152344 C 123.757812 211.316406 122.785156 210.394531 120.839844 210.394531 L 117.210938 210.394531 L 117.210938 215.867188 Z M 120.839844 215.867188 " fill-opacity="1" fill-rule="nonzero"/></g><g clip-path="url(#785420eec4)"><path fill="#212529" d="M 163.828125 227.765625 C 161.964844 227.765625 160.320312 227.382812 158.894531 226.609375 C 157.476562 225.832031 156.367188 224.660156 155.558594 223.101562 C 154.753906 221.542969 154.347656 219.625 154.347656 217.347656 C 154.347656 215.058594 154.753906 213.144531 155.558594 211.589844 C 156.367188 210.03125 157.476562 208.867188 158.894531 208.09375 C 160.320312 207.316406 161.964844 206.925781 163.828125 206.925781 C 165.78125 206.925781 167.4375 207.308594 168.804688 208.070312 C 170.164062 208.832031 171.132812 209.992188 171.707031 211.550781 L 168.789062 213.339844 L 168.441406 213.324219 C 168.011719 212.277344 167.421875 211.523438 166.679688 211.066406 C 165.933594 210.609375 164.984375 210.382812 163.828125 210.382812 C 162.152344 210.382812 160.84375 210.9375 159.902344 212.046875 C 158.960938 213.160156 158.492188 214.925781 158.492188 217.347656 C 158.492188 219.761719 158.960938 221.519531 159.902344 222.628906 C 160.84375 223.742188 162.152344 224.296875 163.828125 224.296875 C 166.464844 224.296875 168.078125 223.019531 168.667969 220.464844 L 169.019531 220.464844 L 171.964844 222 C 171.40625 223.917969 170.457031 225.359375 169.113281 226.328125 C 167.777344 227.289062 166.015625 227.765625 163.828125 227.765625 Z M 163.828125 227.765625 " fill-opacity="1" fill-rule="nonzero"/></g><g clip-path="url(#a5fa8eeaa7)"><path fill="#212529" d="M 191.714844 227.765625 C 189.859375 227.765625 188.222656 227.390625 186.808594 226.636719 C 185.390625 225.878906 184.28125 224.714844 183.472656 223.15625 C 182.667969 221.59375 182.261719 219.660156 182.261719 217.347656 C 182.261719 215.027344 182.667969 213.089844 183.472656 211.539062 C 184.28125 209.976562 185.390625 208.820312 186.808594 208.070312 C 188.222656 207.308594 189.859375 206.925781 191.714844 206.925781 C 193.570312 206.925781 195.203125 207.300781 196.609375 208.054688 C 198.023438 208.808594 199.132812 209.964844 199.929688 211.523438 C 200.738281 213.082031 201.140625 215.027344 201.140625 217.347656 C 201.140625 219.660156 200.738281 221.601562 199.929688 223.167969 C 199.132812 224.726562 198.023438 225.882812 196.609375 226.636719 C 195.203125 227.390625 193.570312 227.765625 191.714844 227.765625 Z M 191.714844 224.285156 C 193.4375 224.285156 194.746094 223.734375 195.65625 222.628906 C 196.558594 221.527344 197.011719 219.765625 197.011719 217.347656 C 197.011719 214.925781 196.558594 213.164062 195.65625 212.0625 C 194.746094 210.953125 193.4375 210.394531 191.714844 210.394531 C 189.984375 210.394531 188.667969 210.953125 187.761719 212.0625 C 186.855469 213.164062 186.402344 214.925781 186.402344 217.347656 C 186.402344 219.765625 186.855469 221.527344 187.761719 222.628906 C 188.667969 223.734375 189.984375 224.285156 191.714844 224.285156 Z M 191.714844 224.285156 " fill-opacity="1" fill-rule="nonzero"/></g><g clip-path="url(#0ab8b8d7fc)"><path fill="#212529" d="M 217.332031 227.472656 L 213.664062 227.472656 L 213.664062 207.222656 L 218.894531 207.222656 L 224.015625 222.105469 L 224.3125 222.105469 L 229.40625 207.222656 L 234.519531 207.222656 L 234.519531 227.472656 L 230.726562 227.472656 L 230.726562 214.09375 L 230.375 214.039062 L 225.695312 227.472656 L 222.363281 227.472656 L 217.683594 214.039062 L 217.332031 214.09375 Z M 217.332031 227.472656 " fill-opacity="1" fill-rule="nonzero"/></g><g clip-path="url(#4df30b6bd1)"><path fill="#212529" d="M 255.914062 207.222656 C 257.363281 207.222656 258.601562 207.488281 259.625 208.015625 C 260.652344 208.546875 261.433594 209.289062 261.964844 210.246094 C 262.492188 211.199219 262.757812 212.3125 262.757812 213.582031 C 262.757812 214.84375 262.492188 215.953125 261.964844 216.902344 C 261.433594 217.855469 260.652344 218.597656 259.625 219.132812 C 258.601562 219.664062 257.363281 219.929688 255.914062 219.929688 L 252.09375 219.929688 L 252.09375 227.472656 L 248.085938 227.472656 L 248.085938 207.222656 Z M 255.386719 216.753906 C 257.609375 216.753906 258.722656 215.699219 258.722656 213.582031 C 258.722656 211.457031 257.609375 210.394531 255.386719 210.394531 L 252.09375 210.394531 L 252.09375 216.753906 Z M 255.386719 216.753906 " fill-opacity="1" fill-rule="nonzero"/></g><g clip-path="url(#474e600ee9)"><path fill="#212529" d="M 290.285156 227.472656 L 286.078125 227.472656 L 284.558594 222.804688 L 276.800781 222.804688 L 275.28125 227.472656 L 271.167969 227.472656 L 278.160156 207.222656 L 283.292969 207.222656 Z M 280.484375 211.445312 L 277.875 219.429688 L 283.457031 219.429688 L 280.835938 211.445312 Z M 280.484375 211.445312 " fill-opacity="1" fill-rule="nonzero"/></g><g clip-path="url(#3561775a45)"><path fill="#212529" d="M 305.390625 227.472656 L 301.515625 227.472656 L 301.515625 207.222656 L 306.101562 207.222656 L 314.238281 220.265625 L 314.585938 220.210938 L 314.585938 207.222656 L 318.445312 207.222656 L 318.445312 227.472656 L 314.34375 227.472656 L 305.738281 213.542969 L 305.390625 213.59375 Z M 305.390625 227.472656 " fill-opacity="1" fill-rule="nonzero"/></g><g clip-path="url(#7d8a072cc7)"><path fill="#212529" d="M 340.464844 227.472656 L 336.46875 227.472656 L 336.46875 219.523438 L 329.464844 207.222656 L 333.769531 207.222656 L 338.394531 215.179688 L 338.730469 215.179688 L 343.261719 207.222656 L 347.46875 207.222656 L 340.464844 219.523438 Z M 340.464844 227.472656 " fill-opacity="1" fill-rule="nonzero"/></g><path fill="#212529" d="M 330.84375 101.011719 L 372.554688 101.011719 L 372.554688 111.757812 L 330.84375 111.757812 Z M 330.84375 101.011719 " fill-opacity="1" fill-rule="nonzero"/><path fill="#212529" d="M 351.820312 129.40625 L 351.820312 129.515625 L 372.554688 129.515625 L 372.554688 138.632812 L 330.84375 138.632812 L 330.84375 129.515625 L 354.160156 123.4375 L 354.160156 123.261719 L 330.84375 123.261719 L 330.84375 114.160156 L 372.554688 114.160156 L 372.554688 123.261719 Z M 351.820312 129.40625 " fill-opacity="1" fill-rule="nonzero"/><g clip-path="url(#df91e873e7)"><path fill="#212529" d="M 373.441406 154.242188 C 373.441406 158.28125 372.367188 161.300781 370.226562 163.289062 C 368.082031 165.28125 365.320312 166.277344 361.929688 166.277344 L 355.785156 166.277344 L 355.785156 155.519531 L 363.976562 155.519531 C 364.789062 155.519531 365.398438 155.378906 365.804688 155.101562 C 366.214844 154.832031 366.421875 154.328125 366.421875 153.597656 C 366.421875 152.96875 366.144531 152.535156 365.601562 152.304688 C 365.054688 152.070312 364.472656 151.957031 363.855469 151.957031 L 339.542969 151.957031 C 338.925781 151.957031 338.339844 152.070312 337.796875 152.304688 C 337.246094 152.535156 336.976562 152.96875 336.976562 153.597656 C 336.976562 154.328125 337.207031 154.832031 337.675781 155.101562 C 338.148438 155.378906 338.871094 155.519531 339.839844 155.519531 L 348.835938 155.519531 L 348.835938 166.277344 L 341.707031 166.277344 C 339.5625 166.277344 337.597656 165.824219 335.804688 164.929688 C 334.011719 164.035156 332.589844 162.660156 331.542969 160.804688 C 330.492188 158.953125 329.96875 156.6875 329.96875 154 C 329.96875 149.832031 330.957031 146.65625 332.941406 144.480469 C 334.929688 142.300781 338.144531 141.210938 342.582031 141.210938 L 360.816406 141.210938 C 364.945312 141.210938 368.082031 142.316406 370.226562 144.53125 C 372.367188 146.753906 373.441406 149.992188 373.441406 154.242188 Z M 373.441406 154.242188 " fill-opacity="1" fill-rule="nonzero"/></g><g clip-path="url(#14ea29f69a)"><path fill="#212529" d="M 56.566406 23.054688 L 56.566406 74.902344 C 56.566406 80.578125 54.675781 84.878906 50.894531 87.796875 C 47.109375 90.722656 42.167969 92.183594 36.0625 92.183594 L 0.0820312 92.183594 L 0.0820312 0.101562 L 30.898438 0.101562 C 36.574219 0.101562 41.257812 0.726562 44.949219 1.972656 C 48.652344 3.21875 51.511719 5.519531 53.527344 8.871094 C 55.550781 12.226562 56.566406 16.949219 56.566406 23.054688 Z M 32.835938 69.875 L 32.835938 22.410156 C 32.835938 20.6875 32.339844 19.121094 31.355469 17.703125 C 30.367188 16.289062 29.101562 15.578125 27.550781 15.578125 L 23.8125 15.578125 L 23.8125 76.707031 L 27.550781 76.707031 C 29.101562 76.707031 30.367188 76.019531 31.355469 74.648438 C 32.339844 73.269531 32.835938 71.675781 32.835938 69.875 Z M 32.835938 69.875 " fill-opacity="1" fill-rule="nonzero"/></g><g clip-path="url(#f01471be4e)"><path fill="#212529" d="M 87.257812 70.898438 C 87.257812 73.742188 87.6875 75.613281 88.550781 76.515625 C 89.410156 77.414062 90.480469 77.863281 91.761719 77.863281 C 93.054688 77.863281 94.128906 77.414062 94.992188 76.515625 C 95.851562 75.613281 96.28125 73.742188 96.28125 70.898438 L 96.28125 0.101562 L 120.011719 0.101562 L 120.011719 67.546875 C 120.011719 85.265625 110.59375 94.117188 91.761719 94.117188 C 72.9375 94.117188 63.527344 85.265625 63.527344 67.546875 L 63.527344 0.101562 L 87.257812 0.101562 Z M 87.257812 70.898438 " fill-opacity="1" fill-rule="nonzero"/></g><g clip-path="url(#e9489f58ff)"><path fill="#212529" d="M 160.628906 45.886719 L 160.882812 45.886719 L 160.882812 0.101562 L 181.011719 0.101562 L 181.011719 92.183594 L 160.882812 92.183594 L 147.476562 40.722656 L 147.085938 40.722656 L 147.085938 92.183594 L 126.972656 92.183594 L 126.972656 0.101562 L 147.085938 0.101562 Z M 160.628906 45.886719 " fill-opacity="1" fill-rule="nonzero"/></g><g clip-path="url(#f3c06e381d)"><path fill="#212529" d="M 244.457031 23.054688 L 244.457031 74.902344 C 244.457031 80.578125 242.5625 84.878906 238.78125 87.796875 C 234.996094 90.722656 230.054688 92.183594 223.949219 92.183594 L 187.96875 92.183594 L 187.96875 0.101562 L 218.785156 0.101562 C 224.460938 0.101562 229.144531 0.726562 232.835938 1.972656 C 236.539062 3.21875 239.398438 5.519531 241.417969 8.871094 C 243.441406 12.226562 244.457031 16.949219 244.457031 23.054688 Z M 220.722656 69.875 L 220.722656 22.410156 C 220.722656 20.6875 220.230469 19.121094 219.242188 17.703125 C 218.253906 16.289062 216.988281 15.578125 215.4375 15.578125 L 211.699219 15.578125 L 211.699219 76.707031 L 215.4375 76.707031 C 216.988281 76.707031 218.253906 76.019531 219.242188 74.648438 C 220.230469 73.269531 220.722656 71.675781 220.722656 69.875 Z M 220.722656 69.875 " fill-opacity="1" fill-rule="nonzero"/></g><g clip-path="url(#bc9d100745)"><path fill="#212529" d="M 291.523438 18.671875 L 275.144531 18.671875 L 275.144531 35.574219 L 290.488281 35.574219 L 290.488281 53.363281 L 275.144531 53.363281 L 275.144531 73.613281 L 292.816406 73.613281 L 292.816406 92.183594 L 251.414062 92.183594 L 251.414062 0.101562 L 291.523438 0.101562 Z M 291.523438 18.671875 " fill-opacity="1" fill-rule="nonzero"/></g><g clip-path="url(#8dc4727827)"><path fill="#212529" d="M 351.222656 18.28125 L 351.222656 27.574219 C 351.222656 32.648438 350.058594 36.453125 347.738281 38.988281 C 345.425781 41.527344 341.945312 42.964844 337.304688 43.304688 L 337.304688 43.5625 C 342.378906 43.910156 346.113281 45.375 348.519531 47.957031 C 350.929688 50.53125 352.136719 54.355469 352.136719 59.425781 L 352.136719 92.183594 L 329.949219 92.183594 L 329.949219 56.847656 C 329.949219 51.773438 327.886719 49.234375 323.765625 49.234375 C 322.8125 49.234375 321.910156 49.367188 321.046875 49.625 L 321.046875 92.183594 L 298.097656 92.183594 L 298.097656 0.101562 L 325.820312 0.101562 C 331.324219 0.101562 335.839844 0.511719 339.363281 1.328125 C 342.886719 2.144531 345.738281 3.863281 347.925781 6.488281 C 350.121094 9.109375 351.222656 13.039062 351.222656 18.28125 Z M 322.730469 35.304688 C 325.480469 35.304688 327.371094 34.683594 328.402344 33.4375 C 329.433594 32.191406 329.949219 30.753906 329.949219 29.121094 L 329.949219 21 C 329.949219 19.449219 329.433594 18.027344 328.402344 16.734375 C 327.371094 15.445312 325.519531 14.800781 322.851562 14.800781 L 321.046875 14.800781 L 321.046875 35.304688 Z M 322.730469 35.304688 " fill-opacity="1" fill-rule="nonzero"/></g><path fill="#212529" d="M 39.355469 152.027344 L 39.609375 152.027344 L 45.164062 98.257812 L 77.140625 98.257812 L 77.140625 190.335938 L 57.023438 190.335938 L 57.023438 121.992188 L 56.769531 121.992188 L 46.832031 190.335938 L 31.878906 190.335938 L 21.941406 121.992188 L 21.6875 121.992188 L 21.6875 190.335938 L 1.570312 190.335938 L 1.570312 98.257812 L 33.171875 98.257812 Z M 39.355469 152.027344 " fill-opacity="1" fill-rule="nonzero"/><path fill="#212529" d="M 82.421875 98.257812 L 106.15625 98.257812 L 106.15625 190.335938 L 82.421875 190.335938 Z M 82.421875 98.257812 " fill-opacity="1" fill-rule="nonzero"/><path fill="#212529" d="M 151.417969 116.828125 L 135.171875 116.828125 L 135.171875 133.730469 L 149.105469 133.730469 L 149.105469 151.519531 L 135.171875 151.519531 L 135.171875 190.335938 L 111.441406 190.335938 L 111.441406 98.257812 L 151.417969 98.257812 Z M 151.417969 116.828125 " fill-opacity="1" fill-rule="nonzero"/><path fill="#212529" d="M 194.359375 116.828125 L 178.117188 116.828125 L 178.117188 133.730469 L 192.046875 133.730469 L 192.046875 151.519531 L 178.117188 151.519531 L 178.117188 190.335938 L 154.382812 190.335938 L 154.382812 98.257812 L 194.359375 98.257812 Z M 194.359375 116.828125 " fill-opacity="1" fill-rule="nonzero"/><path fill="#212529" d="M 221.058594 172.535156 L 236.789062 172.535156 L 236.789062 190.335938 L 197.324219 190.335938 L 197.324219 98.257812 L 221.058594 98.257812 Z M 221.058594 172.535156 " fill-opacity="1" fill-rule="nonzero"/><path fill="#212529" d="M 239.878906 98.257812 L 263.609375 98.257812 L 263.609375 190.335938 L 239.878906 190.335938 Z M 239.878906 98.257812 " fill-opacity="1" fill-rule="nonzero"/><path fill="#212529" d="M 302.550781 144.042969 L 302.804688 144.042969 L 302.804688 98.257812 L 322.933594 98.257812 L 322.933594 190.335938 L 302.804688 190.335938 L 289.402344 138.878906 L 289.011719 138.878906 L 289.011719 190.335938 L 268.894531 190.335938 L 268.894531 98.257812 L 289.011719 98.257812 Z M 302.550781 144.042969 " fill-opacity="1" fill-rule="nonzero"/><path fill="#212529" d="M 346.917969 185.820312 C 346.917969 188.3125 346.207031 190.847656 344.78125 193.429688 C 343.363281 196.011719 341.386719 198.179688 338.851562 199.9375 C 336.3125 201.703125 333.410156 202.585938 330.152344 202.585938 L 329.503906 195.621094 C 331.054688 195.539062 332.195312 194.960938 332.921875 193.886719 C 333.652344 192.8125 334.023438 191.628906 334.023438 190.335938 L 329.117188 190.335938 L 329.117188 171.769531 L 346.917969 171.769531 Z M 346.917969 185.820312 " fill-opacity="1" fill-rule="nonzero"/><g clip-path="url(#e516fd4cce)"><path fill="#212529" d="M 15.109375 207.222656 C 16.5625 207.222656 17.800781 207.488281 18.820312 208.015625 C 19.851562 208.546875 20.628906 209.289062 21.160156 210.246094 C 21.6875 211.199219 21.953125 212.3125 21.953125 213.582031 C 21.953125 214.84375 21.6875 215.953125 21.160156 216.902344 C 20.628906 217.855469 19.851562 218.597656 18.820312 219.132812 C 17.800781 219.664062 16.5625 219.929688 15.109375 219.929688 L 11.292969 219.929688 L 11.292969 227.472656 L 7.285156 227.472656 L 7.285156 207.222656 Z M 14.585938 216.753906 C 16.808594 216.753906 17.921875 215.699219 17.921875 213.582031 C 17.921875 211.457031 16.808594 210.394531 14.585938 210.394531 L 11.292969 210.394531 L 11.292969 216.753906 Z M 14.585938 216.753906 " fill-opacity="1" fill-rule="nonzero"/></g><g clip-path="url(#98390f348e)"><path fill="#212529" d="M 49.484375 227.472656 L 45.277344 227.472656 L 43.757812 222.804688 L 36 222.804688 L 34.480469 227.472656 L 30.363281 227.472656 L 37.355469 207.222656 L 42.492188 207.222656 Z M 39.683594 211.445312 L 37.074219 219.429688 L 42.65625 219.429688 L 40.03125 211.445312 Z M 39.683594 211.445312 " fill-opacity="1" fill-rule="nonzero"/></g><g clip-path="url(#2406a70bbd)"><path fill="#212529" d="M 68.539062 207.222656 C 69.992188 207.222656 71.230469 207.488281 72.25 208.015625 C 73.28125 208.546875 74.058594 209.289062 74.589844 210.246094 C 75.117188 211.199219 75.382812 212.3125 75.382812 213.582031 C 75.382812 214.84375 75.117188 215.953125 74.589844 216.902344 C 74.058594 217.855469 73.28125 218.597656 72.25 219.132812 C 71.230469 219.664062 69.992188 219.929688 68.539062 219.929688 L 64.722656 219.929688 L 64.722656 227.472656 L 60.714844 227.472656 L 60.714844 207.222656 Z M 68.015625 216.753906 C 70.238281 216.753906 71.351562 215.699219 71.351562 213.582031 C 71.351562 211.457031 70.238281 210.394531 68.015625 210.394531 L 64.722656 210.394531 L 64.722656 216.753906 Z M 68.015625 216.753906 " fill-opacity="1" fill-rule="nonzero"/></g><g clip-path="url(#57b46e087c)"><path fill="#212529" d="M 91.511719 218.582031 L 91.511719 224.125 L 101.179688 224.125 L 101.179688 227.472656 L 87.507812 227.472656 L 87.507812 207.222656 L 100.953125 207.222656 L 100.953125 210.570312 L 91.511719 210.570312 L 91.511719 215.300781 L 99.769531 215.300781 L 99.769531 218.582031 Z M 91.511719 218.582031 " fill-opacity="1" fill-rule="nonzero"/></g><g clip-path="url(#dadd703a93)"><path fill="#212529" d="M 113.203125 227.472656 L 113.203125 207.222656 L 121.335938 207.222656 C 123.425781 207.222656 125 207.707031 126.070312 208.671875 C 127.136719 209.636719 127.671875 210.964844 127.671875 212.667969 C 127.671875 213.898438 127.355469 214.90625 126.730469 215.691406 C 126.109375 216.472656 125.183594 217.070312 123.945312 217.480469 L 123.945312 217.777344 C 124.582031 218.054688 125.097656 218.46875 125.492188 219.015625 C 125.886719 219.550781 126.257812 220.359375 126.609375 221.433594 L 128.625 227.472656 L 124.511719 227.472656 L 122.535156 221.421875 C 122.324219 220.8125 122.097656 220.339844 121.847656 220.007812 C 121.597656 219.667969 121.273438 219.421875 120.878906 219.269531 C 120.484375 219.117188 119.972656 219.039062 119.347656 219.039062 L 117.210938 219.039062 L 117.210938 227.472656 Z M 120.839844 215.867188 C 122.785156 215.867188 123.757812 214.964844 123.757812 213.152344 C 123.757812 211.316406 122.785156 210.394531 120.839844 210.394531 L 117.210938 210.394531 L 117.210938 215.867188 Z M 120.839844 215.867188 " fill-opacity="1" fill-rule="nonzero"/></g><g clip-path="url(#593c88009f)"><path fill="#212529" d="M 163.828125 227.765625 C 161.964844 227.765625 160.320312 227.382812 158.894531 226.609375 C 157.476562 225.832031 156.367188 224.660156 155.558594 223.101562 C 154.753906 221.542969 154.347656 219.625 154.347656 217.347656 C 154.347656 215.058594 154.753906 213.144531 155.558594 211.589844 C 156.367188 210.03125 157.476562 208.867188 158.894531 208.09375 C 160.320312 207.316406 161.964844 206.925781 163.828125 206.925781 C 165.78125 206.925781 167.4375 207.308594 168.804688 208.070312 C 170.164062 208.832031 171.132812 209.992188 171.707031 211.550781 L 168.789062 213.339844 L 168.441406 213.324219 C 168.011719 212.277344 167.421875 211.523438 166.679688 211.066406 C 165.933594 210.609375 164.984375 210.382812 163.828125 210.382812 C 162.152344 210.382812 160.84375 210.9375 159.902344 212.046875 C 158.960938 213.160156 158.492188 214.925781 158.492188 217.347656 C 158.492188 219.761719 158.960938 221.519531 159.902344 222.628906 C 160.84375 223.742188 162.152344 224.296875 163.828125 224.296875 C 166.464844 224.296875 168.078125 223.019531 168.667969 220.464844 L 169.019531 220.464844 L 171.964844 222 C 171.40625 223.917969 170.457031 225.359375 169.113281 226.328125 C 167.777344 227.289062 166.015625 227.765625 163.828125 227.765625 Z M 163.828125 227.765625 " fill-opacity="1" fill-rule="nonzero"/></g><g clip-path="url(#9b162a92e2)"><path fill="#212529" d="M 191.714844 227.765625 C 189.859375 227.765625 188.222656 227.390625 186.808594 226.636719 C 185.390625 225.878906 184.28125 224.714844 183.472656 223.15625 C 182.667969 221.59375 182.261719 219.660156 182.261719 217.347656 C 182.261719 215.027344 182.667969 213.089844 183.472656 211.539062 C 184.28125 209.976562 185.390625 208.820312 186.808594 208.070312 C 188.222656 207.308594 189.859375 206.925781 191.714844 206.925781 C 193.570312 206.925781 195.203125 207.300781 196.609375 208.054688 C 198.023438 208.808594 199.132812 209.964844 199.929688 211.523438 C 200.738281 213.082031 201.140625 215.027344 201.140625 217.347656 C 201.140625 219.660156 200.738281 221.601562 199.929688 223.167969 C 199.132812 224.726562 198.023438 225.882812 196.609375 226.636719 C 195.203125 227.390625 193.570312 227.765625 191.714844 227.765625 Z M 191.714844 224.285156 C 193.4375 224.285156 194.746094 223.734375 195.65625 222.628906 C 196.558594 221.527344 197.011719 219.765625 197.011719 217.347656 C 197.011719 214.925781 196.558594 213.164062 195.65625 212.0625 C 194.746094 210.953125 193.4375 210.394531 191.714844 210.394531 C 189.984375 210.394531 188.667969 210.953125 187.761719 212.0625 C 186.855469 213.164062 186.402344 214.925781 186.402344 217.347656 C 186.402344 219.765625 186.855469 221.527344 187.761719 222.628906 C 188.667969 223.734375 189.984375 224.285156 191.714844 224.285156 Z M 191.714844 224.285156 " fill-opacity="1" fill-rule="nonzero"/></g><g clip-path="url(#0a9e1aada8)"><path fill="#212529" d="M 217.332031 227.472656 L 213.664062 227.472656 L 213.664062 207.222656 L 218.894531 207.222656 L 224.015625 222.105469 L 224.3125 222.105469 L 229.40625 207.222656 L 234.519531 207.222656 L 234.519531 227.472656 L 230.726562 227.472656 L 230.726562 214.09375 L 230.375 214.039062 L 225.695312 227.472656 L 222.363281 227.472656 L 217.683594 214.039062 L 217.332031 214.09375 Z M 217.332031 227.472656 " fill-opacity="1" fill-rule="nonzero"/></g><g clip-path="url(#4c6159062e)"><path fill="#212529" d="M 255.914062 207.222656 C 257.363281 207.222656 258.601562 207.488281 259.625 208.015625 C 260.652344 208.546875 261.433594 209.289062 261.964844 210.246094 C 262.492188 211.199219 262.757812 212.3125 262.757812 213.582031 C 262.757812 214.84375 262.492188 215.953125 261.964844 216.902344 C 261.433594 217.855469 260.652344 218.597656 259.625 219.132812 C 258.601562 219.664062 257.363281 219.929688 255.914062 219.929688 L 252.09375 219.929688 L 252.09375 227.472656 L 248.085938 227.472656 L 248.085938 207.222656 Z M 255.386719 216.753906 C 257.609375 216.753906 258.722656 215.699219 258.722656 213.582031 C 258.722656 211.457031 257.609375 210.394531 255.386719 210.394531 L 252.09375 210.394531 L 252.09375 216.753906 Z M 255.386719 216.753906 " fill-opacity="1" fill-rule="nonzero"/></g><g clip-path="url(#8135e12701)"><path fill="#212529" d="M 290.285156 227.472656 L 286.078125 227.472656 L 284.558594 222.804688 L 276.800781 222.804688 L 275.28125 227.472656 L 271.167969 227.472656 L 278.160156 207.222656 L 283.292969 207.222656 Z M 280.484375 211.445312 L 277.875 219.429688 L 283.457031 219.429688 L 280.835938 211.445312 Z M 280.484375 211.445312 " fill-opacity="1" fill-rule="nonzero"/></g><g clip-path="url(#52e7ea6d6f)"><path fill="#212529" d="M 305.390625 227.472656 L 301.515625 227.472656 L 301.515625 207.222656 L 306.101562 207.222656 L 314.238281 220.265625 L 314.585938 220.210938 L 314.585938 207.222656 L 318.445312 207.222656 L 318.445312 227.472656 L 314.34375 227.472656 L 305.738281 213.542969 L 305.390625 213.59375 Z M 305.390625 227.472656 " fill-opacity="1" fill-rule="nonzero"/></g><g clip-path="url(#cbbf141ed9)"><path fill="#212529" d="M 340.464844 227.472656 L 336.46875 227.472656 L 336.46875 219.523438 L 329.464844 207.222656 L 333.769531 207.222656 L 338.394531 215.179688 L 338.730469 215.179688 L 343.261719 207.222656 L 347.46875 207.222656 L 340.464844 219.523438 Z M 340.464844 227.472656 " fill-opacity="1" fill-rule="nonzero"/></g><path fill="#212529" d="M 330.84375 101.011719 L 372.554688 101.011719 L 372.554688 111.757812 L 330.84375 111.757812 Z M 330.84375 101.011719 " fill-opacity="1" fill-rule="nonzero"/><path fill="#212529" d="M 351.820312 129.40625 L 351.820312 129.515625 L 372.554688 129.515625 L 372.554688 138.632812 L 330.84375 138.632812 L 330.84375 129.515625 L 354.160156 123.4375 L 354.160156 123.261719 L 330.84375 123.261719 L 330.84375 114.160156 L 372.554688 114.160156 L 372.554688 123.261719 Z M 351.820312 129.40625 " fill-opacity="1" fill-rule="nonzero"/><g clip-path="url(#8ecb3b6dcf)"><path fill="#212529" d="M 373.441406 154.242188 C 373.441406 158.28125 372.367188 161.300781 370.226562 163.289062 C 368.082031 165.28125 365.320312 166.277344 361.929688 166.277344 L 355.785156 166.277344 L 355.785156 155.519531 L 363.976562 155.519531 C 364.789062 155.519531 365.398438 155.378906 365.804688 155.101562 C 366.214844 154.832031 366.421875 154.328125 366.421875 153.597656 C 366.421875 152.96875 366.144531 152.535156 365.601562 152.304688 C 365.054688 152.070312 364.472656 151.957031 363.855469 151.957031 L 339.542969 151.957031 C 338.925781 151.957031 338.339844 152.070312 337.796875 152.304688 C 337.246094 152.535156 336.976562 152.96875 336.976562 153.597656 C 336.976562 154.328125 337.207031 154.832031 337.675781 155.101562 C 338.148438 155.378906 338.871094 155.519531 339.839844 155.519531 L 348.835938 155.519531 L 348.835938 166.277344 L 341.707031 166.277344 C 339.5625 166.277344 337.597656 165.824219 335.804688 164.929688 C 334.011719 164.035156 332.589844 162.660156 331.542969 160.804688 C 330.492188 158.953125 329.96875 156.6875 329.96875 154 C 329.96875 149.832031 330.957031 146.65625 332.941406 144.480469 C 334.929688 142.300781 338.144531 141.210938 342.582031 141.210938 L 360.816406 141.210938 C 364.945312 141.210938 368.082031 142.316406 370.226562 144.53125 C 372.367188 146.753906 373.441406 149.992188 373.441406 154.242188 Z M 373.441406 154.242188 " fill-opacity="1" fill-rule="nonzero"/></g><g clip-path="url(#d803f7f51a)"><path fill="#212529" d="M 56.566406 23.054688 L 56.566406 74.902344 C 56.566406 80.578125 54.675781 84.878906 50.894531 87.796875 C 47.109375 90.722656 42.167969 92.183594 36.0625 92.183594 L 0.0820312 92.183594 L 0.0820312 0.101562 L 30.898438 0.101562 C 36.574219 0.101562 41.257812 0.726562 44.949219 1.972656 C 48.652344 3.21875 51.511719 5.519531 53.527344 8.871094 C 55.550781 12.226562 56.566406 16.949219 56.566406 23.054688 Z M 32.835938 69.875 L 32.835938 22.410156 C 32.835938 20.6875 32.339844 19.121094 31.355469 17.703125 C 30.367188 16.289062 29.101562 15.578125 27.550781 15.578125 L 23.8125 15.578125 L 23.8125 76.707031 L 27.550781 76.707031 C 29.101562 76.707031 30.367188 76.019531 31.355469 74.648438 C 32.339844 73.269531 32.835938 71.675781 32.835938 69.875 Z M 32.835938 69.875 " fill-opacity="1" fill-rule="nonzero"/></g><g clip-path="url(#34b80b0340)"><path fill="#212529" d="M 87.257812 70.898438 C 87.257812 73.742188 87.6875 75.613281 88.550781 76.515625 C 89.410156 77.414062 90.480469 77.863281 91.761719 77.863281 C 93.054688 77.863281 94.128906 77.414062 94.992188 76.515625 C 95.851562 75.613281 96.28125 73.742188 96.28125 70.898438 L 96.28125 0.101562 L 120.011719 0.101562 L 120.011719 67.546875 C 120.011719 85.265625 110.59375 94.117188 91.761719 94.117188 C 72.9375 94.117188 63.527344 85.265625 63.527344 67.546875 L 63.527344 0.101562 L 87.257812 0.101562 Z M 87.257812 70.898438 " fill-opacity="1" fill-rule="nonzero"/></g><g clip-path="url(#3af6c71b05)"><path fill="#212529" d="M 160.628906 45.886719 L 160.882812 45.886719 L 160.882812 0.101562 L 181.011719 0.101562 L 181.011719 92.183594 L 160.882812 92.183594 L 147.476562 40.722656 L 147.085938 40.722656 L 147.085938 92.183594 L 126.972656 92.183594 L 126.972656 0.101562 L 147.085938 0.101562 Z M 160.628906 45.886719 " fill-opacity="1" fill-rule="nonzero"/></g><g clip-path="url(#920eb88264)"><path fill="#212529" d="M 244.457031 23.054688 L 244.457031 74.902344 C 244.457031 80.578125 242.5625 84.878906 238.78125 87.796875 C 234.996094 90.722656 230.054688 92.183594 223.949219 92.183594 L 187.96875 92.183594 L 187.96875 0.101562 L 218.785156 0.101562 C 224.460938 0.101562 229.144531 0.726562 232.835938 1.972656 C 236.539062 3.21875 239.398438 5.519531 241.417969 8.871094 C 243.441406 12.226562 244.457031 16.949219 244.457031 23.054688 Z M 220.722656 69.875 L 220.722656 22.410156 C 220.722656 20.6875 220.230469 19.121094 219.242188 17.703125 C 218.253906 16.289062 216.988281 15.578125 215.4375 15.578125 L 211.699219 15.578125 L 211.699219 76.707031 L 215.4375 76.707031 C 216.988281 76.707031 218.253906 76.019531 219.242188 74.648438 C 220.230469 73.269531 220.722656 71.675781 220.722656 69.875 Z M 220.722656 69.875 " fill-opacity="1" fill-rule="nonzero"/></g><g clip-path="url(#758d84634d)"><path fill="#212529" d="M 291.523438 18.671875 L 275.144531 18.671875 L 275.144531 35.574219 L 290.488281 35.574219 L 290.488281 53.363281 L 275.144531 53.363281 L 275.144531 73.613281 L 292.816406 73.613281 L 292.816406 92.183594 L 251.414062 92.183594 L 251.414062 0.101562 L 291.523438 0.101562 Z M 291.523438 18.671875 " fill-opacity="1" fill-rule="nonzero"/></g><g clip-path="url(#90a21e925e)"><path fill="#212529" d="M 351.222656 18.28125 L 351.222656 27.574219 C 351.222656 32.648438 350.058594 36.453125 347.738281 38.988281 C 345.425781 41.527344 341.945312 42.964844 337.304688 43.304688 L 337.304688 43.5625 C 342.378906 43.910156 346.113281 45.375 348.519531 47.957031 C 350.929688 50.53125 352.136719 54.355469 352.136719 59.425781 L 352.136719 92.183594 L 329.949219 92.183594 L 329.949219 56.847656 C 329.949219 51.773438 327.886719 49.234375 323.765625 49.234375 C 322.8125 49.234375 321.910156 49.367188 321.046875 49.625 L 321.046875 92.183594 L 298.097656 92.183594 L 298.097656 0.101562 L 325.820312 0.101562 C 331.324219 0.101562 335.839844 0.511719 339.363281 1.328125 C 342.886719 2.144531 345.738281 3.863281 347.925781 6.488281 C 350.121094 9.109375 351.222656 13.039062 351.222656 18.28125 Z M 322.730469 35.304688 C 325.480469 35.304688 327.371094 34.683594 328.402344 33.4375 C 329.433594 32.191406 329.949219 30.753906 329.949219 29.121094 L 329.949219 21 C 329.949219 19.449219 329.433594 18.027344 328.402344 16.734375 C 327.371094 15.445312 325.519531 14.800781 322.851562 14.800781 L 321.046875 14.800781 L 321.046875 35.304688 Z M 322.730469 35.304688 " fill-opacity="1" fill-rule="nonzero"/></g><path fill="#212529" d="M 39.355469 152.027344 L 39.609375 152.027344 L 45.164062 98.257812 L 77.140625 98.257812 L 77.140625 190.335938 L 57.023438 190.335938 L 57.023438 121.992188 L 56.769531 121.992188 L 46.832031 190.335938 L 31.878906 190.335938 L 21.941406 121.992188 L 21.6875 121.992188 L 21.6875 190.335938 L 1.570312 190.335938 L 1.570312 98.257812 L 33.171875 98.257812 Z M 39.355469 152.027344 " fill-opacity="1" fill-rule="nonzero"/><path fill="#212529" d="M 82.421875 98.257812 L 106.15625 98.257812 L 106.15625 190.335938 L 82.421875 190.335938 Z M 82.421875 98.257812 " fill-opacity="1" fill-rule="nonzero"/><path fill="#212529" d="M 151.417969 116.828125 L 135.171875 116.828125 L 135.171875 133.730469 L 149.105469 133.730469 L 149.105469 151.519531 L 135.171875 151.519531 L 135.171875 190.335938 L 111.441406 190.335938 L 111.441406 98.257812 L 151.417969 98.257812 Z M 151.417969 116.828125 " fill-opacity="1" fill-rule="nonzero"/><path fill="#212529" d="M 194.359375 116.828125 L 178.117188 116.828125 L 178.117188 133.730469 L 192.046875 133.730469 L 192.046875 151.519531 L 178.117188 151.519531 L 178.117188 190.335938 L 154.382812 190.335938 L 154.382812 98.257812 L 194.359375 98.257812 Z M 194.359375 116.828125 " fill-opacity="1" fill-rule="nonzero"/><path fill="#212529" d="M 221.058594 172.535156 L 236.789062 172.535156 L 236.789062 190.335938 L 197.324219 190.335938 L 197.324219 98.257812 L 221.058594 98.257812 Z M 221.058594 172.535156 " fill-opacity="1" fill-rule="nonzero"/><path fill="#212529" d="M 239.878906 98.257812 L 263.609375 98.257812 L 263.609375 190.335938 L 239.878906 190.335938 Z M 239.878906 98.257812 " fill-opacity="1" fill-rule="nonzero"/><path fill="#212529" d="M 302.550781 144.042969 L 302.804688 144.042969 L 302.804688 98.257812 L 322.933594 98.257812 L 322.933594 190.335938 L 302.804688 190.335938 L 289.402344 138.878906 L 289.011719 138.878906 L 289.011719 190.335938 L 268.894531 190.335938 L 268.894531 98.257812 L 289.011719 98.257812 Z M 302.550781 144.042969 " fill-opacity="1" fill-rule="nonzero"/><path fill="#212529" d="M 346.917969 185.820312 C 346.917969 188.3125 346.207031 190.847656 344.78125 193.429688 C 343.363281 196.011719 341.386719 198.179688 338.851562 199.9375 C 336.3125 201.703125 333.410156 202.585938 330.152344 202.585938 L 329.503906 195.621094 C 331.054688 195.539062 332.195312 194.960938 332.921875 193.886719 C 333.652344 192.8125 334.023438 191.628906 334.023438 190.335938 L 329.117188 190.335938 L 329.117188 171.769531 L 346.917969 171.769531 Z M 346.917969 185.820312 " fill-opacity="1" fill-rule="nonzero"/><g clip-path="url(#d08f5527ab)"><path fill="#212529" d="M 15.109375 207.222656 C 16.5625 207.222656 17.800781 207.488281 18.820312 208.015625 C 19.851562 208.546875 20.628906 209.289062 21.160156 210.246094 C 21.6875 211.199219 21.953125 212.3125 21.953125 213.582031 C 21.953125 214.84375 21.6875 215.953125 21.160156 216.902344 C 20.628906 217.855469 19.851562 218.597656 18.820312 219.132812 C 17.800781 219.664062 16.5625 219.929688 15.109375 219.929688 L 11.292969 219.929688 L 11.292969 227.472656 L 7.285156 227.472656 L 7.285156 207.222656 Z M 14.585938 216.753906 C 16.808594 216.753906 17.921875 215.699219 17.921875 213.582031 C 17.921875 211.457031 16.808594 210.394531 14.585938 210.394531 L 11.292969 210.394531 L 11.292969 216.753906 Z M 14.585938 216.753906 " fill-opacity="1" fill-rule="nonzero"/></g><g clip-path="url(#b963baa716)"><path fill="#212529" d="M 49.484375 227.472656 L 45.277344 227.472656 L 43.757812 222.804688 L 36 222.804688 L 34.480469 227.472656 L 30.363281 227.472656 L 37.355469 207.222656 L 42.492188 207.222656 Z M 39.683594 211.445312 L 37.074219 219.429688 L 42.65625 219.429688 L 40.03125 211.445312 Z M 39.683594 211.445312 " fill-opacity="1" fill-rule="nonzero"/></g><g clip-path="url(#b07200755f)"><path fill="#212529" d="M 68.539062 207.222656 C 69.992188 207.222656 71.230469 207.488281 72.25 208.015625 C 73.28125 208.546875 74.058594 209.289062 74.589844 210.246094 C 75.117188 211.199219 75.382812 212.3125 75.382812 213.582031 C 75.382812 214.84375 75.117188 215.953125 74.589844 216.902344 C 74.058594 217.855469 73.28125 218.597656 72.25 219.132812 C 71.230469 219.664062 69.992188 219.929688 68.539062 219.929688 L 64.722656 219.929688 L 64.722656 227.472656 L 60.714844 227.472656 L 60.714844 207.222656 Z M 68.015625 216.753906 C 70.238281 216.753906 71.351562 215.699219 71.351562 213.582031 C 71.351562 211.457031 70.238281 210.394531 68.015625 210.394531 L 64.722656 210.394531 L 64.722656 216.753906 Z M 68.015625 216.753906 " fill-opacity="1" fill-rule="nonzero"/></g><g clip-path="url(#5aa03df2ea)"><path fill="#212529" d="M 91.511719 218.582031 L 91.511719 224.125 L 101.179688 224.125 L 101.179688 227.472656 L 87.507812 227.472656 L 87.507812 207.222656 L 100.953125 207.222656 L 100.953125 210.570312 L 91.511719 210.570312 L 91.511719 215.300781 L 99.769531 215.300781 L 99.769531 218.582031 Z M 91.511719 218.582031 " fill-opacity="1" fill-rule="nonzero"/></g><g clip-path="url(#72df4cde53)"><path fill="#212529" d="M 113.203125 227.472656 L 113.203125 207.222656 L 121.335938 207.222656 C 123.425781 207.222656 125 207.707031 126.070312 208.671875 C 127.136719 209.636719 127.671875 210.964844 127.671875 212.667969 C 127.671875 213.898438 127.355469 214.90625 126.730469 215.691406 C 126.109375 216.472656 125.183594 217.070312 123.945312 217.480469 L 123.945312 217.777344 C 124.582031 218.054688 125.097656 218.46875 125.492188 219.015625 C 125.886719 219.550781 126.257812 220.359375 126.609375 221.433594 L 128.625 227.472656 L 124.511719 227.472656 L 122.535156 221.421875 C 122.324219 220.8125 122.097656 220.339844 121.847656 220.007812 C 121.597656 219.667969 121.273438 219.421875 120.878906 219.269531 C 120.484375 219.117188 119.972656 219.039062 119.347656 219.039062 L 117.210938 219.039062 L 117.210938 227.472656 Z M 120.839844 215.867188 C 122.785156 215.867188 123.757812 214.964844 123.757812 213.152344 C 123.757812 211.316406 122.785156 210.394531 120.839844 210.394531 L 117.210938 210.394531 L 117.210938 215.867188 Z M 120.839844 215.867188 " fill-opacity="1" fill-rule="nonzero"/></g><g clip-path="url(#5b1f72a539)"><path fill="#212529" d="M 163.828125 227.765625 C 161.964844 227.765625 160.320312 227.382812 158.894531 226.609375 C 157.476562 225.832031 156.367188 224.660156 155.558594 223.101562 C 154.753906 221.542969 154.347656 219.625 154.347656 217.347656 C 154.347656 215.058594 154.753906 213.144531 155.558594 211.589844 C 156.367188 210.03125 157.476562 208.867188 158.894531 208.09375 C 160.320312 207.316406 161.964844 206.925781 163.828125 206.925781 C 165.78125 206.925781 167.4375 207.308594 168.804688 208.070312 C 170.164062 208.832031 171.132812 209.992188 171.707031 211.550781 L 168.789062 213.339844 L 168.441406 213.324219 C 168.011719 212.277344 167.421875 211.523438 166.679688 211.066406 C 165.933594 210.609375 164.984375 210.382812 163.828125 210.382812 C 162.152344 210.382812 160.84375 210.9375 159.902344 212.046875 C 158.960938 213.160156 158.492188 214.925781 158.492188 217.347656 C 158.492188 219.761719 158.960938 221.519531 159.902344 222.628906 C 160.84375 223.742188 162.152344 224.296875 163.828125 224.296875 C 166.464844 224.296875 168.078125 223.019531 168.667969 220.464844 L 169.019531 220.464844 L 171.964844 222 C 171.40625 223.917969 170.457031 225.359375 169.113281 226.328125 C 167.777344 227.289062 166.015625 227.765625 163.828125 227.765625 Z M 163.828125 227.765625 " fill-opacity="1" fill-rule="nonzero"/></g><g clip-path="url(#ec965e6e26)"><path fill="#212529" d="M 191.714844 227.765625 C 189.859375 227.765625 188.222656 227.390625 186.808594 226.636719 C 185.390625 225.878906 184.28125 224.714844 183.472656 223.15625 C 182.667969 221.59375 182.261719 219.660156 182.261719 217.347656 C 182.261719 215.027344 182.667969 213.089844 183.472656 211.539062 C 184.28125 209.976562 185.390625 208.820312 186.808594 208.070312 C 188.222656 207.308594 189.859375 206.925781 191.714844 206.925781 C 193.570312 206.925781 195.203125 207.300781 196.609375 208.054688 C 198.023438 208.808594 199.132812 209.964844 199.929688 211.523438 C 200.738281 213.082031 201.140625 215.027344 201.140625 217.347656 C 201.140625 219.660156 200.738281 221.601562 199.929688 223.167969 C 199.132812 224.726562 198.023438 225.882812 196.609375 226.636719 C 195.203125 227.390625 193.570312 227.765625 191.714844 227.765625 Z M 191.714844 224.285156 C 193.4375 224.285156 194.746094 223.734375 195.65625 222.628906 C 196.558594 221.527344 197.011719 219.765625 197.011719 217.347656 C 197.011719 214.925781 196.558594 213.164062 195.65625 212.0625 C 194.746094 210.953125 193.4375 210.394531 191.714844 210.394531 C 189.984375 210.394531 188.667969 210.953125 187.761719 212.0625 C 186.855469 213.164062 186.402344 214.925781 186.402344 217.347656 C 186.402344 219.765625 186.855469 221.527344 187.761719 222.628906 C 188.667969 223.734375 189.984375 224.285156 191.714844 224.285156 Z M 191.714844 224.285156 " fill-opacity="1" fill-rule="nonzero"/></g><g clip-path="url(#5ac713effd)"><path fill="#212529" d="M 217.332031 227.472656 L 213.664062 227.472656 L 213.664062 207.222656 L 218.894531 207.222656 L 224.015625 222.105469 L 224.3125 222.105469 L 229.40625 207.222656 L 234.519531 207.222656 L 234.519531 227.472656 L 230.726562 227.472656 L 230.726562 214.09375 L 230.375 214.039062 L 225.695312 227.472656 L 222.363281 227.472656 L 217.683594 214.039062 L 217.332031 214.09375 Z M 217.332031 227.472656 " fill-opacity="1" fill-rule="nonzero"/></g><g clip-path="url(#5c3af1d8a8)"><path fill="#212529" d="M 255.914062 207.222656 C 257.363281 207.222656 258.601562 207.488281 259.625 208.015625 C 260.652344 208.546875 261.433594 209.289062 261.964844 210.246094 C 262.492188 211.199219 262.757812 212.3125 262.757812 213.582031 C 262.757812 214.84375 262.492188 215.953125 261.964844 216.902344 C 261.433594 217.855469 260.652344 218.597656 259.625 219.132812 C 258.601562 219.664062 257.363281 219.929688 255.914062 219.929688 L 252.09375 219.929688 L 252.09375 227.472656 L 248.085938 227.472656 L 248.085938 207.222656 Z M 255.386719 216.753906 C 257.609375 216.753906 258.722656 215.699219 258.722656 213.582031 C 258.722656 211.457031 257.609375 210.394531 255.386719 210.394531 L 252.09375 210.394531 L 252.09375 216.753906 Z M 255.386719 216.753906 " fill-opacity="1" fill-rule="nonzero"/></g><g clip-path="url(#405cc04564)"><path fill="#212529" d="M 290.285156 227.472656 L 286.078125 227.472656 L 284.558594 222.804688 L 276.800781 222.804688 L 275.28125 227.472656 L 271.167969 227.472656 L 278.160156 207.222656 L 283.292969 207.222656 Z M 280.484375 211.445312 L 277.875 219.429688 L 283.457031 219.429688 L 280.835938 211.445312 Z M 280.484375 211.445312 " fill-opacity="1" fill-rule="nonzero"/></g><g clip-path="url(#ff5401a37b)"><path fill="#212529" d="M 305.390625 227.472656 L 301.515625 227.472656 L 301.515625 207.222656 L 306.101562 207.222656 L 314.238281 220.265625 L 314.585938 220.210938 L 314.585938 207.222656 L 318.445312 207.222656 L 318.445312 227.472656 L 314.34375 227.472656 L 305.738281 213.542969 L 305.390625 213.59375 Z M 305.390625 227.472656 " fill-opacity="1" fill-rule="nonzero"/></g><g clip-path="url(#b32471fdb5)"><path fill="#212529" d="M 340.464844 227.472656 L 336.46875 227.472656 L 336.46875 219.523438 L 329.464844 207.222656 L 333.769531 207.222656 L 338.394531 215.179688 L 338.730469 215.179688 L 343.261719 207.222656 L 347.46875 207.222656 L 340.464844 219.523438 Z M 340.464844 227.472656 " fill-opacity="1" fill-rule="nonzero"/></g><path fill="#212529" d="M 330.84375 101.011719 L 372.554688 101.011719 L 372.554688 111.757812 L 330.84375 111.757812 Z M 330.84375 101.011719 " fill-opacity="1" fill-rule="nonzero"/><path fill="#212529" d="M 351.820312 129.40625 L 351.820312 129.515625 L 372.554688 129.515625 L 372.554688 138.632812 L 330.84375 138.632812 L 330.84375 129.515625 L 354.160156 123.4375 L 354.160156 123.261719 L 330.84375 123.261719 L 330.84375 114.160156 L 372.554688 114.160156 L 372.554688 123.261719 Z M 351.820312 129.40625 " fill-opacity="1" fill-rule="nonzero"/><g clip-path="url(#4d9e85cd92)"><path fill="#212529" d="M 373.441406 154.242188 C 373.441406 158.28125 372.367188 161.300781 370.226562 163.289062 C 368.082031 165.28125 365.320312 166.277344 361.929688 166.277344 L 355.785156 166.277344 L 355.785156 155.519531 L 363.976562 155.519531 C 364.789062 155.519531 365.398438 155.378906 365.804688 155.101562 C 366.214844 154.832031 366.421875 154.328125 366.421875 153.597656 C 366.421875 152.96875 366.144531 152.535156 365.601562 152.304688 C 365.054688 152.070312 364.472656 151.957031 363.855469 151.957031 L 339.542969 151.957031 C 338.925781 151.957031 338.339844 152.070312 337.796875 152.304688 C 337.246094 152.535156 336.976562 152.96875 336.976562 153.597656 C 336.976562 154.328125 337.207031 154.832031 337.675781 155.101562 C 338.148438 155.378906 338.871094 155.519531 339.839844 155.519531 L 348.835938 155.519531 L 348.835938 166.277344 L 341.707031 166.277344 C 339.5625 166.277344 337.597656 165.824219 335.804688 164.929688 C 334.011719 164.035156 332.589844 162.660156 331.542969 160.804688 C 330.492188 158.953125 329.96875 156.6875 329.96875 154 C 329.96875 149.832031 330.957031 146.65625 332.941406 144.480469 C 334.929688 142.300781 338.144531 141.210938 342.582031 141.210938 L 360.816406 141.210938 C 364.945312 141.210938 368.082031 142.316406 370.226562 144.53125 C 372.367188 146.753906 373.441406 149.992188 373.441406 154.242188 Z M 373.441406 154.242188 " fill-opacity="1" fill-rule="nonzero"/></g><g clip-path="url(#aa943ee87a)"><path fill="#212529" d="M 56.566406 23.054688 L 56.566406 74.902344 C 56.566406 80.578125 54.675781 84.878906 50.894531 87.796875 C 47.109375 90.722656 42.167969 92.183594 36.0625 92.183594 L 0.0820312 92.183594 L 0.0820312 0.101562 L 30.898438 0.101562 C 36.574219 0.101562 41.257812 0.726562 44.949219 1.972656 C 48.652344 3.21875 51.511719 5.519531 53.527344 8.871094 C 55.550781 12.226562 56.566406 16.949219 56.566406 23.054688 Z M 32.835938 69.875 L 32.835938 22.410156 C 32.835938 20.6875 32.339844 19.121094 31.355469 17.703125 C 30.367188 16.289062 29.101562 15.578125 27.550781 15.578125 L 23.8125 15.578125 L 23.8125 76.707031 L 27.550781 76.707031 C 29.101562 76.707031 30.367188 76.019531 31.355469 74.648438 C 32.339844 73.269531 32.835938 71.675781 32.835938 69.875 Z M 32.835938 69.875 " fill-opacity="1" fill-rule="nonzero"/></g><g clip-path="url(#e117ab59e5)"><path fill="#212529" d="M 87.257812 70.898438 C 87.257812 73.742188 87.6875 75.613281 88.550781 76.515625 C 89.410156 77.414062 90.480469 77.863281 91.761719 77.863281 C 93.054688 77.863281 94.128906 77.414062 94.992188 76.515625 C 95.851562 75.613281 96.28125 73.742188 96.28125 70.898438 L 96.28125 0.101562 L 120.011719 0.101562 L 120.011719 67.546875 C 120.011719 85.265625 110.59375 94.117188 91.761719 94.117188 C 72.9375 94.117188 63.527344 85.265625 63.527344 67.546875 L 63.527344 0.101562 L 87.257812 0.101562 Z M 87.257812 70.898438 " fill-opacity="1" fill-rule="nonzero"/></g><g clip-path="url(#2152456281)"><path fill="#212529" d="M 160.628906 45.886719 L 160.882812 45.886719 L 160.882812 0.101562 L 181.011719 0.101562 L 181.011719 92.183594 L 160.882812 92.183594 L 147.476562 40.722656 L 147.085938 40.722656 L 147.085938 92.183594 L 126.972656 92.183594 L 126.972656 0.101562 L 147.085938 0.101562 Z M 160.628906 45.886719 " fill-opacity="1" fill-rule="nonzero"/></g><g clip-path="url(#e26122a21a)"><path fill="#212529" d="M 244.457031 23.054688 L 244.457031 74.902344 C 244.457031 80.578125 242.5625 84.878906 238.78125 87.796875 C 234.996094 90.722656 230.054688 92.183594 223.949219 92.183594 L 187.96875 92.183594 L 187.96875 0.101562 L 218.785156 0.101562 C 224.460938 0.101562 229.144531 0.726562 232.835938 1.972656 C 236.539062 3.21875 239.398438 5.519531 241.417969 8.871094 C 243.441406 12.226562 244.457031 16.949219 244.457031 23.054688 Z M 220.722656 69.875 L 220.722656 22.410156 C 220.722656 20.6875 220.230469 19.121094 219.242188 17.703125 C 218.253906 16.289062 216.988281 15.578125 215.4375 15.578125 L 211.699219 15.578125 L 211.699219 76.707031 L 215.4375 76.707031 C 216.988281 76.707031 218.253906 76.019531 219.242188 74.648438 C 220.230469 73.269531 220.722656 71.675781 220.722656 69.875 Z M 220.722656 69.875 " fill-opacity="1" fill-rule="nonzero"/></g><g clip-path="url(#e607792402)"><path fill="#212529" d="M 291.523438 18.671875 L 275.144531 18.671875 L 275.144531 35.574219 L 290.488281 35.574219 L 290.488281 53.363281 L 275.144531 53.363281 L 275.144531 73.613281 L 292.816406 73.613281 L 292.816406 92.183594 L 251.414062 92.183594 L 251.414062 0.101562 L 291.523438 0.101562 Z M 291.523438 18.671875 " fill-opacity="1" fill-rule="nonzero"/></g><g clip-path="url(#c1e615bf9c)"><path fill="#212529" d="M 351.222656 18.28125 L 351.222656 27.574219 C 351.222656 32.648438 350.058594 36.453125 347.738281 38.988281 C 345.425781 41.527344 341.945312 42.964844 337.304688 43.304688 L 337.304688 43.5625 C 342.378906 43.910156 346.113281 45.375 348.519531 47.957031 C 350.929688 50.53125 352.136719 54.355469 352.136719 59.425781 L 352.136719 92.183594 L 329.949219 92.183594 L 329.949219 56.847656 C 329.949219 51.773438 327.886719 49.234375 323.765625 49.234375 C 322.8125 49.234375 321.910156 49.367188 321.046875 49.625 L 321.046875 92.183594 L 298.097656 92.183594 L 298.097656 0.101562 L 325.820312 0.101562 C 331.324219 0.101562 335.839844 0.511719 339.363281 1.328125 C 342.886719 2.144531 345.738281 3.863281 347.925781 6.488281 C 350.121094 9.109375 351.222656 13.039062 351.222656 18.28125 Z M 322.730469 35.304688 C 325.480469 35.304688 327.371094 34.683594 328.402344 33.4375 C 329.433594 32.191406 329.949219 30.753906 329.949219 29.121094 L 329.949219 21 C 329.949219 19.449219 329.433594 18.027344 328.402344 16.734375 C 327.371094 15.445312 325.519531 14.800781 322.851562 14.800781 L 321.046875 14.800781 L 321.046875 35.304688 Z M 322.730469 35.304688 " fill-opacity="1" fill-rule="nonzero"/></g><path fill="#212529" d="M 39.355469 152.027344 L 39.609375 152.027344 L 45.164062 98.257812 L 77.140625 98.257812 L 77.140625 190.335938 L 57.023438 190.335938 L 57.023438 121.992188 L 56.769531 121.992188 L 46.832031 190.335938 L 31.878906 190.335938 L 21.941406 121.992188 L 21.6875 121.992188 L 21.6875 190.335938 L 1.570312 190.335938 L 1.570312 98.257812 L 33.171875 98.257812 Z M 39.355469 152.027344 " fill-opacity="1" fill-rule="nonzero"/><path fill="#212529" d="M 82.421875 98.257812 L 106.15625 98.257812 L 106.15625 190.335938 L 82.421875 190.335938 Z M 82.421875 98.257812 " fill-opacity="1" fill-rule="nonzero"/><path fill="#212529" d="M 151.417969 116.828125 L 135.171875 116.828125 L 135.171875 133.730469 L 149.105469 133.730469 L 149.105469 151.519531 L 135.171875 151.519531 L 135.171875 190.335938 L 111.441406 190.335938 L 111.441406 98.257812 L 151.417969 98.257812 Z M 151.417969 116.828125 " fill-opacity="1" fill-rule="nonzero"/><path fill="#212529" d="M 194.359375 116.828125 L 178.117188 116.828125 L 178.117188 133.730469 L 192.046875 133.730469 L 192.046875 151.519531 L 178.117188 151.519531 L 178.117188 190.335938 L 154.382812 190.335938 L 154.382812 98.257812 L 194.359375 98.257812 Z M 194.359375 116.828125 " fill-opacity="1" fill-rule="nonzero"/><path fill="#212529" d="M 221.058594 172.535156 L 236.789062 172.535156 L 236.789062 190.335938 L 197.324219 190.335938 L 197.324219 98.257812 L 221.058594 98.257812 Z M 221.058594 172.535156 " fill-opacity="1" fill-rule="nonzero"/><path fill="#212529" d="M 239.878906 98.257812 L 263.609375 98.257812 L 263.609375 190.335938 L 239.878906 190.335938 Z M 239.878906 98.257812 " fill-opacity="1" fill-rule="nonzero"/><path fill="#212529" d="M 302.550781 144.042969 L 302.804688 144.042969 L 302.804688 98.257812 L 322.933594 98.257812 L 322.933594 190.335938 L 302.804688 190.335938 L 289.402344 138.878906 L 289.011719 138.878906 L 289.011719 190.335938 L 268.894531 190.335938 L 268.894531 98.257812 L 289.011719 98.257812 Z M 302.550781 144.042969 " fill-opacity="1" fill-rule="nonzero"/><path fill="#212529" d="M 346.917969 185.820312 C 346.917969 188.3125 346.207031 190.847656 344.78125 193.429688 C 343.363281 196.011719 341.386719 198.179688 338.851562 199.9375 C 336.3125 201.703125 333.410156 202.585938 330.152344 202.585938 L 329.503906 195.621094 C 331.054688 195.539062 332.195312 194.960938 332.921875 193.886719 C 333.652344 192.8125 334.023438 191.628906 334.023438 190.335938 L 329.117188 190.335938 L 329.117188 171.769531 L 346.917969 171.769531 Z M 346.917969 185.820312 " fill-opacity="1" fill-rule="nonzero"/><g clip-path="url(#1befc609f9)"><path fill="#212529" d="M 15.109375 207.222656 C 16.5625 207.222656 17.800781 207.488281 18.820312 208.015625 C 19.851562 208.546875 20.628906 209.289062 21.160156 210.246094 C 21.6875 211.199219 21.953125 212.3125 21.953125 213.582031 C 21.953125 214.84375 21.6875 215.953125 21.160156 216.902344 C 20.628906 217.855469 19.851562 218.597656 18.820312 219.132812 C 17.800781 219.664062 16.5625 219.929688 15.109375 219.929688 L 11.292969 219.929688 L 11.292969 227.472656 L 7.285156 227.472656 L 7.285156 207.222656 Z M 14.585938 216.753906 C 16.808594 216.753906 17.921875 215.699219 17.921875 213.582031 C 17.921875 211.457031 16.808594 210.394531 14.585938 210.394531 L 11.292969 210.394531 L 11.292969 216.753906 Z M 14.585938 216.753906 " fill-opacity="1" fill-rule="nonzero"/></g><g clip-path="url(#d9edeac89e)"><path fill="#212529" d="M 49.484375 227.472656 L 45.277344 227.472656 L 43.757812 222.804688 L 36 222.804688 L 34.480469 227.472656 L 30.363281 227.472656 L 37.355469 207.222656 L 42.492188 207.222656 Z M 39.683594 211.445312 L 37.074219 219.429688 L 42.65625 219.429688 L 40.03125 211.445312 Z M 39.683594 211.445312 " fill-opacity="1" fill-rule="nonzero"/></g><g clip-path="url(#7a2ce16498)"><path fill="#212529" d="M 68.539062 207.222656 C 69.992188 207.222656 71.230469 207.488281 72.25 208.015625 C 73.28125 208.546875 74.058594 209.289062 74.589844 210.246094 C 75.117188 211.199219 75.382812 212.3125 75.382812 213.582031 C 75.382812 214.84375 75.117188 215.953125 74.589844 216.902344 C 74.058594 217.855469 73.28125 218.597656 72.25 219.132812 C 71.230469 219.664062 69.992188 219.929688 68.539062 219.929688 L 64.722656 219.929688 L 64.722656 227.472656 L 60.714844 227.472656 L 60.714844 207.222656 Z M 68.015625 216.753906 C 70.238281 216.753906 71.351562 215.699219 71.351562 213.582031 C 71.351562 211.457031 70.238281 210.394531 68.015625 210.394531 L 64.722656 210.394531 L 64.722656 216.753906 Z M 68.015625 216.753906 " fill-opacity="1" fill-rule="nonzero"/></g><g clip-path="url(#8d71c110ad)"><path fill="#212529" d="M 91.511719 218.582031 L 91.511719 224.125 L 101.179688 224.125 L 101.179688 227.472656 L 87.507812 227.472656 L 87.507812 207.222656 L 100.953125 207.222656 L 100.953125 210.570312 L 91.511719 210.570312 L 91.511719 215.300781 L 99.769531 215.300781 L 99.769531 218.582031 Z M 91.511719 218.582031 " fill-opacity="1" fill-rule="nonzero"/></g><g clip-path="url(#dd1d99f7c6)"><path fill="#212529" d="M 113.203125 227.472656 L 113.203125 207.222656 L 121.335938 207.222656 C 123.425781 207.222656 125 207.707031 126.070312 208.671875 C 127.136719 209.636719 127.671875 210.964844 127.671875 212.667969 C 127.671875 213.898438 127.355469 214.90625 126.730469 215.691406 C 126.109375 216.472656 125.183594 217.070312 123.945312 217.480469 L 123.945312 217.777344 C 124.582031 218.054688 125.097656 218.46875 125.492188 219.015625 C 125.886719 219.550781 126.257812 220.359375 126.609375 221.433594 L 128.625 227.472656 L 124.511719 227.472656 L 122.535156 221.421875 C 122.324219 220.8125 122.097656 220.339844 121.847656 220.007812 C 121.597656 219.667969 121.273438 219.421875 120.878906 219.269531 C 120.484375 219.117188 119.972656 219.039062 119.347656 219.039062 L 117.210938 219.039062 L 117.210938 227.472656 Z M 120.839844 215.867188 C 122.785156 215.867188 123.757812 214.964844 123.757812 213.152344 C 123.757812 211.316406 122.785156 210.394531 120.839844 210.394531 L 117.210938 210.394531 L 117.210938 215.867188 Z M 120.839844 215.867188 " fill-opacity="1" fill-rule="nonzero"/></g><g clip-path="url(#65a10e5ec8)"><path fill="#212529" d="M 163.828125 227.765625 C 161.964844 227.765625 160.320312 227.382812 158.894531 226.609375 C 157.476562 225.832031 156.367188 224.660156 155.558594 223.101562 C 154.753906 221.542969 154.347656 219.625 154.347656 217.347656 C 154.347656 215.058594 154.753906 213.144531 155.558594 211.589844 C 156.367188 210.03125 157.476562 208.867188 158.894531 208.09375 C 160.320312 207.316406 161.964844 206.925781 163.828125 206.925781 C 165.78125 206.925781 167.4375 207.308594 168.804688 208.070312 C 170.164062 208.832031 171.132812 209.992188 171.707031 211.550781 L 168.789062 213.339844 L 168.441406 213.324219 C 168.011719 212.277344 167.421875 211.523438 166.679688 211.066406 C 165.933594 210.609375 164.984375 210.382812 163.828125 210.382812 C 162.152344 210.382812 160.84375 210.9375 159.902344 212.046875 C 158.960938 213.160156 158.492188 214.925781 158.492188 217.347656 C 158.492188 219.761719 158.960938 221.519531 159.902344 222.628906 C 160.84375 223.742188 162.152344 224.296875 163.828125 224.296875 C 166.464844 224.296875 168.078125 223.019531 168.667969 220.464844 L 169.019531 220.464844 L 171.964844 222 C 171.40625 223.917969 170.457031 225.359375 169.113281 226.328125 C 167.777344 227.289062 166.015625 227.765625 163.828125 227.765625 Z M 163.828125 227.765625 " fill-opacity="1" fill-rule="nonzero"/></g><g clip-path="url(#e14451ea0e)"><path fill="#212529" d="M 191.714844 227.765625 C 189.859375 227.765625 188.222656 227.390625 186.808594 226.636719 C 185.390625 225.878906 184.28125 224.714844 183.472656 223.15625 C 182.667969 221.59375 182.261719 219.660156 182.261719 217.347656 C 182.261719 215.027344 182.667969 213.089844 183.472656 211.539062 C 184.28125 209.976562 185.390625 208.820312 186.808594 208.070312 C 188.222656 207.308594 189.859375 206.925781 191.714844 206.925781 C 193.570312 206.925781 195.203125 207.300781 196.609375 208.054688 C 198.023438 208.808594 199.132812 209.964844 199.929688 211.523438 C 200.738281 213.082031 201.140625 215.027344 201.140625 217.347656 C 201.140625 219.660156 200.738281 221.601562 199.929688 223.167969 C 199.132812 224.726562 198.023438 225.882812 196.609375 226.636719 C 195.203125 227.390625 193.570312 227.765625 191.714844 227.765625 Z M 191.714844 224.285156 C 193.4375 224.285156 194.746094 223.734375 195.65625 222.628906 C 196.558594 221.527344 197.011719 219.765625 197.011719 217.347656 C 197.011719 214.925781 196.558594 213.164062 195.65625 212.0625 C 194.746094 210.953125 193.4375 210.394531 191.714844 210.394531 C 189.984375 210.394531 188.667969 210.953125 187.761719 212.0625 C 186.855469 213.164062 186.402344 214.925781 186.402344 217.347656 C 186.402344 219.765625 186.855469 221.527344 187.761719 222.628906 C 188.667969 223.734375 189.984375 224.285156 191.714844 224.285156 Z M 191.714844 224.285156 " fill-opacity="1" fill-rule="nonzero"/></g><g clip-path="url(#f794008459)"><path fill="#212529" d="M 217.332031 227.472656 L 213.664062 227.472656 L 213.664062 207.222656 L 218.894531 207.222656 L 224.015625 222.105469 L 224.3125 222.105469 L 229.40625 207.222656 L 234.519531 207.222656 L 234.519531 227.472656 L 230.726562 227.472656 L 230.726562 214.09375 L 230.375 214.039062 L 225.695312 227.472656 L 222.363281 227.472656 L 217.683594 214.039062 L 217.332031 214.09375 Z M 217.332031 227.472656 " fill-opacity="1" fill-rule="nonzero"/></g><g clip-path="url(#aa69baf30e)"><path fill="#212529" d="M 255.914062 207.222656 C 257.363281 207.222656 258.601562 207.488281 259.625 208.015625 C 260.652344 208.546875 261.433594 209.289062 261.964844 210.246094 C 262.492188 211.199219 262.757812 212.3125 262.757812 213.582031 C 262.757812 214.84375 262.492188 215.953125 261.964844 216.902344 C 261.433594 217.855469 260.652344 218.597656 259.625 219.132812 C 258.601562 219.664062 257.363281 219.929688 255.914062 219.929688 L 252.09375 219.929688 L 252.09375 227.472656 L 248.085938 227.472656 L 248.085938 207.222656 Z M 255.386719 216.753906 C 257.609375 216.753906 258.722656 215.699219 258.722656 213.582031 C 258.722656 211.457031 257.609375 210.394531 255.386719 210.394531 L 252.09375 210.394531 L 252.09375 216.753906 Z M 255.386719 216.753906 " fill-opacity="1" fill-rule="nonzero"/></g><g clip-path="url(#7406deeba4)"><path fill="#212529" d="M 290.285156 227.472656 L 286.078125 227.472656 L 284.558594 222.804688 L 276.800781 222.804688 L 275.28125 227.472656 L 271.167969 227.472656 L 278.160156 207.222656 L 283.292969 207.222656 Z M 280.484375 211.445312 L 277.875 219.429688 L 283.457031 219.429688 L 280.835938 211.445312 Z M 280.484375 211.445312 " fill-opacity="1" fill-rule="nonzero"/></g><g clip-path="url(#2ca546d56f)"><path fill="#212529" d="M 305.390625 227.472656 L 301.515625 227.472656 L 301.515625 207.222656 L 306.101562 207.222656 L 314.238281 220.265625 L 314.585938 220.210938 L 314.585938 207.222656 L 318.445312 207.222656 L 318.445312 227.472656 L 314.34375 227.472656 L 305.738281 213.542969 L 305.390625 213.59375 Z M 305.390625 227.472656 " fill-opacity="1" fill-rule="nonzero"/></g><g clip-path="url(#3885a7eff0)"><path fill="#212529" d="M 340.464844 227.472656 L 336.46875 227.472656 L 336.46875 219.523438 L 329.464844 207.222656 L 333.769531 207.222656 L 338.394531 215.179688 L 338.730469 215.179688 L 343.261719 207.222656 L 347.46875 207.222656 L 340.464844 219.523438 Z M 340.464844 227.472656 " fill-opacity="1" fill-rule="nonzero"/></g><path fill="#212529" d="M 330.84375 101.011719 L 372.554688 101.011719 L 372.554688 111.757812 L 330.84375 111.757812 Z M 330.84375 101.011719 " fill-opacity="1" fill-rule="nonzero"/><path fill="#212529" d="M 351.820312 129.40625 L 351.820312 129.515625 L 372.554688 129.515625 L 372.554688 138.632812 L 330.84375 138.632812 L 330.84375 129.515625 L 354.160156 123.4375 L 354.160156 123.261719 L 330.84375 123.261719 L 330.84375 114.160156 L 372.554688 114.160156 L 372.554688 123.261719 Z M 351.820312 129.40625 " fill-opacity="1" fill-rule="nonzero"/><g clip-path="url(#5a5d9ed1d7)"><path fill="#212529" d="M 373.441406 154.242188 C 373.441406 158.28125 372.367188 161.300781 370.226562 163.289062 C 368.082031 165.28125 365.320312 166.277344 361.929688 166.277344 L 355.785156 166.277344 L 355.785156 155.519531 L 363.976562 155.519531 C 364.789062 155.519531 365.398438 155.378906 365.804688 155.101562 C 366.214844 154.832031 366.421875 154.328125 366.421875 153.597656 C 366.421875 152.96875 366.144531 152.535156 365.601562 152.304688 C 365.054688 152.070312 364.472656 151.957031 363.855469 151.957031 L 339.542969 151.957031 C 338.925781 151.957031 338.339844 152.070312 337.796875 152.304688 C 337.246094 152.535156 336.976562 152.96875 336.976562 153.597656 C 336.976562 154.328125 337.207031 154.832031 337.675781 155.101562 C 338.148438 155.378906 338.871094 155.519531 339.839844 155.519531 L 348.835938 155.519531 L 348.835938 166.277344 L 341.707031 166.277344 C 339.5625 166.277344 337.597656 165.824219 335.804688 164.929688 C 334.011719 164.035156 332.589844 162.660156 331.542969 160.804688 C 330.492188 158.953125 329.96875 156.6875 329.96875 154 C 329.96875 149.832031 330.957031 146.65625 332.941406 144.480469 C 334.929688 142.300781 338.144531 141.210938 342.582031 141.210938 L 360.816406 141.210938 C 364.945312 141.210938 368.082031 142.316406 370.226562 144.53125 C 372.367188 146.753906 373.441406 149.992188 373.441406 154.242188 Z M 373.441406 154.242188 " fill-opacity="1" fill-rule="nonzero"/></g></svg>