<svg xmlns="http://www.w3.org/2000/svg" xmlns:xlink="http://www.w3.org/1999/xlink" width="500" zoomAndPan="magnify" viewBox="0 0 375 227.999995" height="304" preserveAspectRatio="xMidYMid meet" version="1.0"><defs><clipPath id="7dc4706084"><path d="M 330.175781 141 L 374 141 L 374 166.59375 L 330.175781 166.59375 Z M 330.175781 141 " clip-rule="nonzero"/></clipPath><clipPath id="dcf5793382"><path d="M 330.175781 141 L 374 141 L 374 166.59375 L 330.175781 166.59375 Z M 330.175781 141 " clip-rule="nonzero"/></clipPath><clipPath id="8c5888ba21"><path d="M 330.175781 141 L 374 141 L 374 166.59375 L 330.175781 166.59375 Z M 330.175781 141 " clip-rule="nonzero"/></clipPath><clipPath id="de12851cc4"><path d="M 330.175781 141 L 374 141 L 374 166.59375 L 330.175781 166.59375 Z M 330.175781 141 " clip-rule="nonzero"/></clipPath></defs><path fill="#ffffff" d="M 56.597656 23.023438 L 56.597656 74.976562 C 56.597656 80.660156 54.703125 84.96875 50.917969 87.894531 C 47.125 90.828125 42.179688 92.289062 36.066406 92.289062 L 0.03125 92.289062 L 0.03125 0.0234375 L 30.894531 0.0234375 C 36.578125 0.0234375 41.265625 0.652344 44.964844 1.898438 C 48.671875 3.148438 51.535156 5.453125 53.554688 8.808594 C 55.582031 12.171875 56.597656 16.90625 56.597656 23.023438 Z M 32.832031 69.9375 L 32.832031 22.375 C 32.832031 20.652344 32.339844 19.082031 31.351562 17.660156 C 30.363281 16.242188 29.09375 15.53125 27.542969 15.53125 L 23.796875 15.53125 L 23.796875 76.78125 L 27.542969 76.78125 C 29.09375 76.78125 30.363281 76.09375 31.351562 74.71875 C 32.339844 73.339844 32.832031 71.742188 32.832031 69.9375 Z M 32.832031 69.9375 " fill-opacity="1" fill-rule="nonzero"/><path fill="#ffffff" d="M 87.335938 70.960938 C 87.335938 73.808594 87.765625 75.6875 88.625 76.59375 C 89.488281 77.492188 90.558594 77.941406 91.84375 77.941406 C 93.136719 77.941406 94.214844 77.492188 95.078125 76.59375 C 95.9375 75.6875 96.371094 73.808594 96.371094 70.960938 L 96.371094 0.0234375 L 120.136719 0.0234375 L 120.136719 67.605469 C 120.136719 85.355469 110.703125 94.226562 91.84375 94.226562 C 72.992188 94.226562 63.566406 85.355469 63.566406 67.605469 L 63.566406 0.0234375 L 87.335938 0.0234375 Z M 87.335938 70.960938 " fill-opacity="1" fill-rule="nonzero"/><path fill="#ffffff" d="M 160.808594 45.902344 L 161.0625 45.902344 L 161.0625 0.0234375 L 181.21875 0.0234375 L 181.21875 92.289062 L 161.0625 92.289062 L 147.636719 40.726562 L 147.246094 40.726562 L 147.246094 92.289062 L 127.105469 92.289062 L 127.105469 0.0234375 L 147.246094 0.0234375 Z M 160.808594 45.902344 " fill-opacity="1" fill-rule="nonzero"/><path fill="#ffffff" d="M 244.753906 23.023438 L 244.753906 74.976562 C 244.753906 80.660156 242.855469 84.96875 239.070312 87.894531 C 235.28125 90.828125 230.332031 92.289062 224.21875 92.289062 L 188.1875 92.289062 L 188.1875 0.0234375 L 219.046875 0.0234375 C 224.730469 0.0234375 229.417969 0.652344 233.117188 1.898438 C 236.824219 3.148438 239.691406 5.453125 241.710938 8.808594 C 243.734375 12.171875 244.753906 16.90625 244.753906 23.023438 Z M 220.988281 69.9375 L 220.988281 22.375 C 220.988281 20.652344 220.492188 19.082031 219.503906 17.660156 C 218.515625 16.242188 217.246094 15.53125 215.695312 15.53125 L 211.953125 15.53125 L 211.953125 76.78125 L 215.695312 76.78125 C 217.246094 76.78125 218.515625 76.09375 219.503906 74.71875 C 220.492188 73.339844 220.988281 71.742188 220.988281 69.9375 Z M 220.988281 69.9375 " fill-opacity="1" fill-rule="nonzero"/><path fill="#ffffff" d="M 291.886719 18.632812 L 275.488281 18.632812 L 275.488281 35.566406 L 290.851562 35.566406 L 290.851562 53.390625 L 275.488281 53.390625 L 275.488281 73.683594 L 293.179688 73.683594 L 293.179688 92.289062 L 251.722656 92.289062 L 251.722656 0.0234375 L 291.886719 0.0234375 Z M 291.886719 18.632812 " fill-opacity="1" fill-rule="nonzero"/><path fill="#ffffff" d="M 351.667969 18.242188 L 351.667969 27.550781 C 351.667969 32.636719 350.503906 36.449219 348.183594 38.988281 C 345.867188 41.53125 342.382812 42.972656 337.734375 43.3125 L 337.734375 43.570312 C 342.8125 43.921875 346.554688 45.390625 348.964844 47.976562 C 351.375 50.554688 352.585938 54.386719 352.585938 59.46875 L 352.585938 92.289062 L 330.367188 92.289062 L 330.367188 56.882812 C 330.367188 51.796875 328.300781 49.253906 324.171875 49.253906 C 323.222656 49.253906 322.316406 49.386719 321.453125 49.644531 L 321.453125 92.289062 L 298.46875 92.289062 L 298.46875 0.0234375 L 326.234375 0.0234375 C 331.746094 0.0234375 336.265625 0.4375 339.792969 1.25 C 343.320312 2.070312 346.179688 3.792969 348.371094 6.425781 C 350.570312 9.046875 351.667969 12.984375 351.667969 18.242188 Z M 323.136719 35.296875 C 325.890625 35.296875 327.785156 34.675781 328.820312 33.425781 C 329.847656 32.179688 330.367188 30.738281 330.367188 29.101562 L 330.367188 20.960938 C 330.367188 19.410156 329.847656 17.984375 328.820312 16.691406 C 327.785156 15.398438 325.929688 14.75 323.257812 14.75 L 321.453125 14.75 L 321.453125 35.296875 Z M 323.136719 35.296875 " fill-opacity="1" fill-rule="nonzero"/><path fill="#ffffff" d="M 39.363281 152.253906 L 39.617188 152.253906 L 45.179688 98.375 L 77.199219 98.375 L 77.199219 190.640625 L 57.054688 190.640625 L 57.054688 122.15625 L 56.800781 122.15625 L 46.847656 190.640625 L 31.875 190.640625 L 21.925781 122.15625 L 21.667969 122.15625 L 21.667969 190.640625 L 1.527344 190.640625 L 1.527344 98.375 L 33.167969 98.375 Z M 39.363281 152.253906 " fill-opacity="1" fill-rule="nonzero"/><path fill="#ffffff" d="M 82.492188 98.375 L 106.257812 98.375 L 106.257812 190.640625 L 82.492188 190.640625 Z M 82.492188 98.375 " fill-opacity="1" fill-rule="nonzero"/><path fill="#ffffff" d="M 151.582031 116.984375 L 135.316406 116.984375 L 135.316406 133.917969 L 149.265625 133.917969 L 149.265625 151.742188 L 135.316406 151.742188 L 135.316406 190.640625 L 111.550781 190.640625 L 111.550781 98.375 L 151.582031 98.375 Z M 151.582031 116.984375 " fill-opacity="1" fill-rule="nonzero"/><path fill="#ffffff" d="M 194.585938 116.984375 L 178.320312 116.984375 L 178.320312 133.917969 L 192.269531 133.917969 L 192.269531 151.742188 L 178.320312 151.742188 L 178.320312 190.640625 L 154.554688 190.640625 L 154.554688 98.375 L 194.585938 98.375 Z M 194.585938 116.984375 " fill-opacity="1" fill-rule="nonzero"/><path fill="#ffffff" d="M 221.320312 172.800781 L 237.078125 172.800781 L 237.078125 190.640625 L 197.554688 190.640625 L 197.554688 98.375 L 221.320312 98.375 Z M 221.320312 172.800781 " fill-opacity="1" fill-rule="nonzero"/><path fill="#ffffff" d="M 240.167969 98.375 L 263.933594 98.375 L 263.933594 190.640625 L 240.167969 190.640625 Z M 240.167969 98.375 " fill-opacity="1" fill-rule="nonzero"/><path fill="#ffffff" d="M 302.929688 144.253906 L 303.1875 144.253906 L 303.1875 98.375 L 323.34375 98.375 L 323.34375 190.640625 L 303.1875 190.640625 L 289.761719 139.078125 L 289.371094 139.078125 L 289.371094 190.640625 L 269.226562 190.640625 L 269.226562 98.375 L 289.371094 98.375 Z M 302.929688 144.253906 " fill-opacity="1" fill-rule="nonzero"/><path fill="#ffffff" d="M 347.359375 186.113281 C 347.359375 188.613281 346.648438 191.152344 345.21875 193.738281 C 343.800781 196.324219 341.820312 198.5 339.28125 200.257812 C 336.738281 202.027344 333.835938 202.914062 330.570312 202.914062 L 329.921875 195.933594 C 331.476562 195.855469 332.617188 195.273438 333.34375 194.195312 C 334.078125 193.117188 334.449219 191.933594 334.449219 190.640625 L 329.53125 190.640625 L 329.53125 172.035156 L 347.359375 172.035156 Z M 347.359375 186.113281 " fill-opacity="1" fill-rule="nonzero"/><path fill="#ffffff" d="M 15.085938 207.558594 C 16.539062 207.558594 17.777344 207.824219 18.800781 208.351562 C 19.832031 208.886719 20.613281 209.628906 21.144531 210.589844 C 21.671875 211.542969 21.9375 212.65625 21.9375 213.929688 C 21.9375 215.199219 21.671875 216.308594 21.144531 217.257812 C 20.613281 218.210938 19.832031 218.957031 18.800781 219.496094 C 17.777344 220.027344 16.539062 220.289062 15.085938 220.289062 L 11.261719 220.289062 L 11.261719 227.847656 L 7.246094 227.847656 L 7.246094 207.558594 Z M 14.558594 217.109375 C 16.785156 217.109375 17.898438 216.054688 17.898438 213.929688 C 17.898438 211.800781 16.785156 210.738281 14.558594 210.738281 L 11.261719 210.738281 L 11.261719 217.109375 Z M 14.558594 217.109375 " fill-opacity="1" fill-rule="nonzero"/><path fill="#ffffff" d="M 49.507812 227.847656 L 45.292969 227.847656 L 43.769531 223.171875 L 36 223.171875 L 34.480469 227.847656 L 30.359375 227.847656 L 37.363281 207.558594 L 42.503906 207.558594 Z M 39.691406 211.789062 L 37.078125 219.792969 L 42.667969 219.792969 L 40.042969 211.789062 Z M 39.691406 211.789062 " fill-opacity="1" fill-rule="nonzero"/><path fill="#ffffff" d="M 68.589844 207.558594 C 70.042969 207.558594 71.28125 207.824219 72.304688 208.351562 C 73.335938 208.886719 74.117188 209.628906 74.648438 210.589844 C 75.175781 211.542969 75.441406 212.65625 75.441406 213.929688 C 75.441406 215.199219 75.175781 216.308594 74.648438 217.257812 C 74.117188 218.210938 73.335938 218.957031 72.304688 219.496094 C 71.28125 220.027344 70.042969 220.289062 68.589844 220.289062 L 64.765625 220.289062 L 64.765625 227.847656 L 60.753906 227.847656 L 60.753906 207.558594 Z M 68.0625 217.109375 C 70.289062 217.109375 71.402344 216.054688 71.402344 213.929688 C 71.402344 211.800781 70.289062 210.738281 68.0625 210.738281 L 64.765625 210.738281 L 64.765625 217.109375 Z M 68.0625 217.109375 " fill-opacity="1" fill-rule="nonzero"/><path fill="#ffffff" d="M 91.59375 218.941406 L 91.59375 224.492188 L 101.277344 224.492188 L 101.277344 227.847656 L 87.582031 227.847656 L 87.582031 207.558594 L 101.046875 207.558594 L 101.046875 210.914062 L 91.59375 210.914062 L 91.59375 215.65625 L 99.863281 215.65625 L 99.863281 218.941406 Z M 91.59375 218.941406 " fill-opacity="1" fill-rule="nonzero"/><path fill="#ffffff" d="M 113.316406 227.847656 L 113.316406 207.558594 L 121.460938 207.558594 C 123.550781 207.558594 125.128906 208.042969 126.199219 209.011719 C 127.269531 209.976562 127.804688 211.308594 127.804688 213.015625 C 127.804688 214.246094 127.488281 215.257812 126.859375 216.046875 C 126.242188 216.828125 125.3125 217.425781 124.074219 217.839844 L 124.074219 218.132812 C 124.710938 218.414062 125.226562 218.828125 125.621094 219.375 C 126.015625 219.914062 126.390625 220.722656 126.738281 221.800781 L 128.757812 227.847656 L 124.640625 227.847656 L 122.660156 221.785156 C 122.449219 221.175781 122.222656 220.703125 121.972656 220.371094 C 121.71875 220.03125 121.398438 219.785156 121.003906 219.628906 C 120.605469 219.480469 120.09375 219.402344 119.46875 219.402344 L 117.328125 219.402344 L 117.328125 227.847656 Z M 120.964844 216.222656 C 122.910156 216.222656 123.886719 215.316406 123.886719 213.5 C 123.886719 211.660156 122.910156 210.738281 120.964844 210.738281 L 117.328125 210.738281 L 117.328125 216.222656 Z M 120.964844 216.222656 " fill-opacity="1" fill-rule="nonzero"/><path fill="#ffffff" d="M 164.011719 228.144531 C 162.144531 228.144531 160.496094 227.761719 159.070312 226.988281 C 157.648438 226.203125 156.539062 225.03125 155.730469 223.46875 C 154.921875 221.90625 154.519531 219.988281 154.519531 217.703125 C 154.519531 215.414062 154.921875 213.492188 155.730469 211.9375 C 156.539062 210.375 157.648438 209.207031 159.070312 208.433594 C 160.496094 207.652344 162.144531 207.261719 164.011719 207.261719 C 165.96875 207.261719 167.628906 207.644531 168.996094 208.40625 C 170.359375 209.171875 171.328125 210.332031 171.902344 211.898438 L 168.980469 213.6875 L 168.632812 213.675781 C 168.199219 212.625 167.609375 211.871094 166.867188 211.410156 C 166.121094 210.953125 165.171875 210.722656 164.011719 210.722656 C 162.332031 210.722656 161.023438 211.285156 160.082031 212.394531 C 159.136719 213.511719 158.667969 215.277344 158.667969 217.703125 C 158.667969 220.121094 159.136719 221.886719 160.082031 223 C 161.023438 224.113281 162.332031 224.667969 164.011719 224.667969 C 166.652344 224.667969 168.265625 223.390625 168.859375 220.828125 L 169.210938 220.828125 L 172.160156 222.363281 C 171.601562 224.289062 170.652344 225.734375 169.304688 226.703125 C 167.964844 227.667969 166.199219 228.144531 164.011719 228.144531 Z M 164.011719 228.144531 " fill-opacity="1" fill-rule="nonzero"/><path fill="#ffffff" d="M 191.9375 228.144531 C 190.078125 228.144531 188.441406 227.769531 187.023438 227.011719 C 185.601562 226.253906 184.492188 225.085938 183.683594 223.523438 C 182.875 221.960938 182.472656 220.019531 182.472656 217.703125 C 182.472656 215.378906 182.875 213.4375 183.683594 211.882812 C 184.492188 210.320312 185.601562 209.160156 187.023438 208.40625 C 188.441406 207.644531 190.078125 207.261719 191.9375 207.261719 C 193.796875 207.261719 195.429688 207.640625 196.839844 208.394531 C 198.257812 209.148438 199.363281 210.308594 200.164062 211.871094 C 200.972656 213.433594 201.378906 215.378906 201.378906 217.703125 C 201.378906 220.019531 200.972656 221.96875 200.164062 223.539062 C 199.363281 225.101562 198.257812 226.257812 196.839844 227.011719 C 195.429688 227.769531 193.796875 228.144531 191.9375 228.144531 Z M 191.9375 224.65625 C 193.660156 224.65625 194.972656 224.101562 195.882812 223 C 196.789062 221.894531 197.242188 220.128906 197.242188 217.703125 C 197.242188 215.277344 196.789062 213.511719 195.882812 212.410156 C 194.972656 211.296875 193.660156 210.738281 191.9375 210.738281 C 190.203125 210.738281 188.886719 211.296875 187.980469 212.410156 C 187.070312 213.511719 186.621094 215.277344 186.621094 217.703125 C 186.621094 220.128906 187.070312 221.894531 187.980469 223 C 188.886719 224.101562 190.203125 224.65625 191.9375 224.65625 Z M 191.9375 224.65625 " fill-opacity="1" fill-rule="nonzero"/><path fill="#ffffff" d="M 217.59375 227.847656 L 213.917969 227.847656 L 213.917969 207.558594 L 219.15625 207.558594 L 224.285156 222.472656 L 224.582031 222.472656 L 229.683594 207.558594 L 234.800781 207.558594 L 234.800781 227.847656 L 231.003906 227.847656 L 231.003906 214.441406 L 230.652344 214.390625 L 225.96875 227.847656 L 222.628906 227.847656 L 217.941406 214.390625 L 217.59375 214.441406 Z M 217.59375 227.847656 " fill-opacity="1" fill-rule="nonzero"/><path fill="#ffffff" d="M 256.226562 207.558594 C 257.679688 207.558594 258.917969 207.824219 259.941406 208.351562 C 260.972656 208.886719 261.753906 209.628906 262.285156 210.589844 C 262.8125 211.542969 263.078125 212.65625 263.078125 213.929688 C 263.078125 215.199219 262.8125 216.308594 262.285156 217.257812 C 261.753906 218.210938 260.972656 218.957031 259.941406 219.496094 C 258.917969 220.027344 257.679688 220.289062 256.226562 220.289062 L 252.402344 220.289062 L 252.402344 227.847656 L 248.390625 227.847656 L 248.390625 207.558594 Z M 255.699219 217.109375 C 257.925781 217.109375 259.039062 216.054688 259.039062 213.929688 C 259.039062 211.800781 257.925781 210.738281 255.699219 210.738281 L 252.402344 210.738281 L 252.402344 217.109375 Z M 255.699219 217.109375 " fill-opacity="1" fill-rule="nonzero"/><path fill="#ffffff" d="M 290.648438 227.847656 L 286.433594 227.847656 L 284.914062 223.171875 L 277.144531 223.171875 L 275.621094 227.847656 L 271.5 227.847656 L 278.503906 207.558594 L 283.648438 207.558594 Z M 280.832031 211.789062 L 278.21875 219.792969 L 283.808594 219.792969 L 281.183594 211.789062 Z M 280.832031 211.789062 " fill-opacity="1" fill-rule="nonzero"/><path fill="#ffffff" d="M 305.773438 227.847656 L 301.894531 227.847656 L 301.894531 207.558594 L 306.484375 207.558594 L 314.632812 220.628906 L 314.984375 220.574219 L 314.984375 207.558594 L 318.847656 207.558594 L 318.847656 227.847656 L 314.738281 227.847656 L 306.121094 213.890625 L 305.773438 213.945312 Z M 305.773438 227.847656 " fill-opacity="1" fill-rule="nonzero"/><path fill="#ffffff" d="M 340.898438 227.847656 L 336.898438 227.847656 L 336.898438 219.886719 L 329.882812 207.558594 L 334.191406 207.558594 L 338.824219 215.535156 L 339.160156 215.535156 L 343.699219 207.558594 L 347.914062 207.558594 L 340.898438 219.886719 Z M 340.898438 227.847656 " fill-opacity="1" fill-rule="nonzero"/><path fill="#ffffff" d="M 331.261719 101.136719 L 373.03125 101.136719 L 373.03125 111.902344 L 331.261719 111.902344 Z M 331.261719 101.136719 " fill-opacity="1" fill-rule="nonzero"/><path fill="#ffffff" d="M 352.269531 129.585938 L 352.269531 129.695312 L 373.03125 129.695312 L 373.03125 138.832031 L 331.261719 138.832031 L 331.261719 129.695312 L 354.609375 123.605469 L 354.609375 123.429688 L 331.261719 123.429688 L 331.261719 114.308594 L 373.03125 114.308594 L 373.03125 123.429688 Z M 352.269531 129.585938 " fill-opacity="1" fill-rule="nonzero"/><g clip-path="url(#7dc4706084)"><path fill="#ffffff" d="M 373.921875 154.472656 C 373.921875 158.519531 372.847656 161.546875 370.703125 163.539062 C 368.554688 165.535156 365.789062 166.53125 362.394531 166.53125 L 356.242188 166.53125 L 356.242188 155.75 L 364.441406 155.75 C 365.253906 155.75 365.867188 155.609375 366.273438 155.335938 C 366.683594 155.066406 366.890625 154.558594 366.890625 153.824219 C 366.890625 153.195312 366.617188 152.765625 366.070312 152.53125 C 365.519531 152.296875 364.9375 152.179688 364.320312 152.179688 L 339.976562 152.179688 C 339.355469 152.179688 338.769531 152.296875 338.222656 152.53125 C 337.675781 152.765625 337.402344 153.195312 337.402344 153.824219 C 337.402344 154.558594 337.636719 155.066406 338.101562 155.335938 C 338.578125 155.609375 339.300781 155.75 340.269531 155.75 L 349.277344 155.75 L 349.277344 166.53125 L 342.140625 166.53125 C 339.996094 166.53125 338.027344 166.078125 336.230469 165.183594 C 334.433594 164.285156 333.011719 162.90625 331.964844 161.046875 C 330.914062 159.195312 330.386719 156.925781 330.386719 154.230469 C 330.386719 150.054688 331.378906 146.875 333.363281 144.691406 C 335.355469 142.507812 338.574219 141.417969 343.019531 141.417969 L 361.277344 141.417969 C 365.414062 141.417969 368.554688 142.523438 370.703125 144.746094 C 372.847656 146.972656 373.921875 150.214844 373.921875 154.472656 Z M 373.921875 154.472656 " fill-opacity="1" fill-rule="nonzero"/></g><path fill="#ffffff" d="M 56.597656 23.023438 L 56.597656 74.976562 C 56.597656 80.660156 54.703125 84.96875 50.917969 87.894531 C 47.125 90.828125 42.179688 92.289062 36.066406 92.289062 L 0.03125 92.289062 L 0.03125 0.0234375 L 30.894531 0.0234375 C 36.578125 0.0234375 41.265625 0.652344 44.964844 1.898438 C 48.671875 3.148438 51.535156 5.453125 53.554688 8.808594 C 55.582031 12.171875 56.597656 16.90625 56.597656 23.023438 Z M 32.832031 69.9375 L 32.832031 22.375 C 32.832031 20.652344 32.339844 19.082031 31.351562 17.660156 C 30.363281 16.242188 29.09375 15.53125 27.542969 15.53125 L 23.796875 15.53125 L 23.796875 76.78125 L 27.542969 76.78125 C 29.09375 76.78125 30.363281 76.09375 31.351562 74.71875 C 32.339844 73.339844 32.832031 71.742188 32.832031 69.9375 Z M 32.832031 69.9375 " fill-opacity="1" fill-rule="nonzero"/><path fill="#ffffff" d="M 87.335938 70.960938 C 87.335938 73.808594 87.765625 75.6875 88.625 76.59375 C 89.488281 77.492188 90.558594 77.941406 91.84375 77.941406 C 93.136719 77.941406 94.214844 77.492188 95.078125 76.59375 C 95.9375 75.6875 96.371094 73.808594 96.371094 70.960938 L 96.371094 0.0234375 L 120.136719 0.0234375 L 120.136719 67.605469 C 120.136719 85.355469 110.703125 94.226562 91.84375 94.226562 C 72.992188 94.226562 63.566406 85.355469 63.566406 67.605469 L 63.566406 0.0234375 L 87.335938 0.0234375 Z M 87.335938 70.960938 " fill-opacity="1" fill-rule="nonzero"/><path fill="#ffffff" d="M 160.808594 45.902344 L 161.0625 45.902344 L 161.0625 0.0234375 L 181.21875 0.0234375 L 181.21875 92.289062 L 161.0625 92.289062 L 147.636719 40.726562 L 147.246094 40.726562 L 147.246094 92.289062 L 127.105469 92.289062 L 127.105469 0.0234375 L 147.246094 0.0234375 Z M 160.808594 45.902344 " fill-opacity="1" fill-rule="nonzero"/><path fill="#ffffff" d="M 244.753906 23.023438 L 244.753906 74.976562 C 244.753906 80.660156 242.855469 84.96875 239.070312 87.894531 C 235.28125 90.828125 230.332031 92.289062 224.21875 92.289062 L 188.1875 92.289062 L 188.1875 0.0234375 L 219.046875 0.0234375 C 224.730469 0.0234375 229.417969 0.652344 233.117188 1.898438 C 236.824219 3.148438 239.691406 5.453125 241.710938 8.808594 C 243.734375 12.171875 244.753906 16.90625 244.753906 23.023438 Z M 220.988281 69.9375 L 220.988281 22.375 C 220.988281 20.652344 220.492188 19.082031 219.503906 17.660156 C 218.515625 16.242188 217.246094 15.53125 215.695312 15.53125 L 211.953125 15.53125 L 211.953125 76.78125 L 215.695312 76.78125 C 217.246094 76.78125 218.515625 76.09375 219.503906 74.71875 C 220.492188 73.339844 220.988281 71.742188 220.988281 69.9375 Z M 220.988281 69.9375 " fill-opacity="1" fill-rule="nonzero"/><path fill="#ffffff" d="M 291.886719 18.632812 L 275.488281 18.632812 L 275.488281 35.566406 L 290.851562 35.566406 L 290.851562 53.390625 L 275.488281 53.390625 L 275.488281 73.683594 L 293.179688 73.683594 L 293.179688 92.289062 L 251.722656 92.289062 L 251.722656 0.0234375 L 291.886719 0.0234375 Z M 291.886719 18.632812 " fill-opacity="1" fill-rule="nonzero"/><path fill="#ffffff" d="M 351.667969 18.242188 L 351.667969 27.550781 C 351.667969 32.636719 350.503906 36.449219 348.183594 38.988281 C 345.867188 41.53125 342.382812 42.972656 337.734375 43.3125 L 337.734375 43.570312 C 342.8125 43.921875 346.554688 45.390625 348.964844 47.976562 C 351.375 50.554688 352.585938 54.386719 352.585938 59.46875 L 352.585938 92.289062 L 330.367188 92.289062 L 330.367188 56.882812 C 330.367188 51.796875 328.300781 49.253906 324.171875 49.253906 C 323.222656 49.253906 322.316406 49.386719 321.453125 49.644531 L 321.453125 92.289062 L 298.46875 92.289062 L 298.46875 0.0234375 L 326.234375 0.0234375 C 331.746094 0.0234375 336.265625 0.4375 339.792969 1.25 C 343.320312 2.070312 346.179688 3.792969 348.371094 6.425781 C 350.570312 9.046875 351.667969 12.984375 351.667969 18.242188 Z M 323.136719 35.296875 C 325.890625 35.296875 327.785156 34.675781 328.820312 33.425781 C 329.847656 32.179688 330.367188 30.738281 330.367188 29.101562 L 330.367188 20.960938 C 330.367188 19.410156 329.847656 17.984375 328.820312 16.691406 C 327.785156 15.398438 325.929688 14.75 323.257812 14.75 L 321.453125 14.75 L 321.453125 35.296875 Z M 323.136719 35.296875 " fill-opacity="1" fill-rule="nonzero"/><path fill="#ffffff" d="M 39.363281 152.253906 L 39.617188 152.253906 L 45.179688 98.375 L 77.199219 98.375 L 77.199219 190.640625 L 57.054688 190.640625 L 57.054688 122.15625 L 56.800781 122.15625 L 46.847656 190.640625 L 31.875 190.640625 L 21.925781 122.15625 L 21.667969 122.15625 L 21.667969 190.640625 L 1.527344 190.640625 L 1.527344 98.375 L 33.167969 98.375 Z M 39.363281 152.253906 " fill-opacity="1" fill-rule="nonzero"/><path fill="#ffffff" d="M 82.492188 98.375 L 106.257812 98.375 L 106.257812 190.640625 L 82.492188 190.640625 Z M 82.492188 98.375 " fill-opacity="1" fill-rule="nonzero"/><path fill="#ffffff" d="M 151.582031 116.984375 L 135.316406 116.984375 L 135.316406 133.917969 L 149.265625 133.917969 L 149.265625 151.742188 L 135.316406 151.742188 L 135.316406 190.640625 L 111.550781 190.640625 L 111.550781 98.375 L 151.582031 98.375 Z M 151.582031 116.984375 " fill-opacity="1" fill-rule="nonzero"/><path fill="#ffffff" d="M 194.585938 116.984375 L 178.320312 116.984375 L 178.320312 133.917969 L 192.269531 133.917969 L 192.269531 151.742188 L 178.320312 151.742188 L 178.320312 190.640625 L 154.554688 190.640625 L 154.554688 98.375 L 194.585938 98.375 Z M 194.585938 116.984375 " fill-opacity="1" fill-rule="nonzero"/><path fill="#ffffff" d="M 221.320312 172.800781 L 237.078125 172.800781 L 237.078125 190.640625 L 197.554688 190.640625 L 197.554688 98.375 L 221.320312 98.375 Z M 221.320312 172.800781 " fill-opacity="1" fill-rule="nonzero"/><path fill="#ffffff" d="M 240.167969 98.375 L 263.933594 98.375 L 263.933594 190.640625 L 240.167969 190.640625 Z M 240.167969 98.375 " fill-opacity="1" fill-rule="nonzero"/><path fill="#ffffff" d="M 302.929688 144.253906 L 303.1875 144.253906 L 303.1875 98.375 L 323.34375 98.375 L 323.34375 190.640625 L 303.1875 190.640625 L 289.761719 139.078125 L 289.371094 139.078125 L 289.371094 190.640625 L 269.226562 190.640625 L 269.226562 98.375 L 289.371094 98.375 Z M 302.929688 144.253906 " fill-opacity="1" fill-rule="nonzero"/><path fill="#ffffff" d="M 347.359375 186.113281 C 347.359375 188.613281 346.648438 191.152344 345.21875 193.738281 C 343.800781 196.324219 341.820312 198.5 339.28125 200.257812 C 336.738281 202.027344 333.835938 202.914062 330.570312 202.914062 L 329.921875 195.933594 C 331.476562 195.855469 332.617188 195.273438 333.34375 194.195312 C 334.078125 193.117188 334.449219 191.933594 334.449219 190.640625 L 329.53125 190.640625 L 329.53125 172.035156 L 347.359375 172.035156 Z M 347.359375 186.113281 " fill-opacity="1" fill-rule="nonzero"/><path fill="#ffffff" d="M 15.085938 207.558594 C 16.539062 207.558594 17.777344 207.824219 18.800781 208.351562 C 19.832031 208.886719 20.613281 209.628906 21.144531 210.589844 C 21.671875 211.542969 21.9375 212.65625 21.9375 213.929688 C 21.9375 215.199219 21.671875 216.308594 21.144531 217.257812 C 20.613281 218.210938 19.832031 218.957031 18.800781 219.496094 C 17.777344 220.027344 16.539062 220.289062 15.085938 220.289062 L 11.261719 220.289062 L 11.261719 227.847656 L 7.246094 227.847656 L 7.246094 207.558594 Z M 14.558594 217.109375 C 16.785156 217.109375 17.898438 216.054688 17.898438 213.929688 C 17.898438 211.800781 16.785156 210.738281 14.558594 210.738281 L 11.261719 210.738281 L 11.261719 217.109375 Z M 14.558594 217.109375 " fill-opacity="1" fill-rule="nonzero"/><path fill="#ffffff" d="M 49.507812 227.847656 L 45.292969 227.847656 L 43.769531 223.171875 L 36 223.171875 L 34.480469 227.847656 L 30.359375 227.847656 L 37.363281 207.558594 L 42.503906 207.558594 Z M 39.691406 211.789062 L 37.078125 219.792969 L 42.667969 219.792969 L 40.042969 211.789062 Z M 39.691406 211.789062 " fill-opacity="1" fill-rule="nonzero"/><path fill="#ffffff" d="M 68.589844 207.558594 C 70.042969 207.558594 71.28125 207.824219 72.304688 208.351562 C 73.335938 208.886719 74.117188 209.628906 74.648438 210.589844 C 75.175781 211.542969 75.441406 212.65625 75.441406 213.929688 C 75.441406 215.199219 75.175781 216.308594 74.648438 217.257812 C 74.117188 218.210938 73.335938 218.957031 72.304688 219.496094 C 71.28125 220.027344 70.042969 220.289062 68.589844 220.289062 L 64.765625 220.289062 L 64.765625 227.847656 L 60.753906 227.847656 L 60.753906 207.558594 Z M 68.0625 217.109375 C 70.289062 217.109375 71.402344 216.054688 71.402344 213.929688 C 71.402344 211.800781 70.289062 210.738281 68.0625 210.738281 L 64.765625 210.738281 L 64.765625 217.109375 Z M 68.0625 217.109375 " fill-opacity="1" fill-rule="nonzero"/><path fill="#ffffff" d="M 91.59375 218.941406 L 91.59375 224.492188 L 101.277344 224.492188 L 101.277344 227.847656 L 87.582031 227.847656 L 87.582031 207.558594 L 101.046875 207.558594 L 101.046875 210.914062 L 91.59375 210.914062 L 91.59375 215.65625 L 99.863281 215.65625 L 99.863281 218.941406 Z M 91.59375 218.941406 " fill-opacity="1" fill-rule="nonzero"/><path fill="#ffffff" d="M 113.316406 227.847656 L 113.316406 207.558594 L 121.460938 207.558594 C 123.550781 207.558594 125.128906 208.042969 126.199219 209.011719 C 127.269531 209.976562 127.804688 211.308594 127.804688 213.015625 C 127.804688 214.246094 127.488281 215.257812 126.859375 216.046875 C 126.242188 216.828125 125.3125 217.425781 124.074219 217.839844 L 124.074219 218.132812 C 124.710938 218.414062 125.226562 218.828125 125.621094 219.375 C 126.015625 219.914062 126.390625 220.722656 126.738281 221.800781 L 128.757812 227.847656 L 124.640625 227.847656 L 122.660156 221.785156 C 122.449219 221.175781 122.222656 220.703125 121.972656 220.371094 C 121.71875 220.03125 121.398438 219.785156 121.003906 219.628906 C 120.605469 219.480469 120.09375 219.402344 119.46875 219.402344 L 117.328125 219.402344 L 117.328125 227.847656 Z M 120.964844 216.222656 C 122.910156 216.222656 123.886719 215.316406 123.886719 213.5 C 123.886719 211.660156 122.910156 210.738281 120.964844 210.738281 L 117.328125 210.738281 L 117.328125 216.222656 Z M 120.964844 216.222656 " fill-opacity="1" fill-rule="nonzero"/><path fill="#ffffff" d="M 164.011719 228.144531 C 162.144531 228.144531 160.496094 227.761719 159.070312 226.988281 C 157.648438 226.203125 156.539062 225.03125 155.730469 223.46875 C 154.921875 221.90625 154.519531 219.988281 154.519531 217.703125 C 154.519531 215.414062 154.921875 213.492188 155.730469 211.9375 C 156.539062 210.375 157.648438 209.207031 159.070312 208.433594 C 160.496094 207.652344 162.144531 207.261719 164.011719 207.261719 C 165.96875 207.261719 167.628906 207.644531 168.996094 208.40625 C 170.359375 209.171875 171.328125 210.332031 171.902344 211.898438 L 168.980469 213.6875 L 168.632812 213.675781 C 168.199219 212.625 167.609375 211.871094 166.867188 211.410156 C 166.121094 210.953125 165.171875 210.722656 164.011719 210.722656 C 162.332031 210.722656 161.023438 211.285156 160.082031 212.394531 C 159.136719 213.511719 158.667969 215.277344 158.667969 217.703125 C 158.667969 220.121094 159.136719 221.886719 160.082031 223 C 161.023438 224.113281 162.332031 224.667969 164.011719 224.667969 C 166.652344 224.667969 168.265625 223.390625 168.859375 220.828125 L 169.210938 220.828125 L 172.160156 222.363281 C 171.601562 224.289062 170.652344 225.734375 169.304688 226.703125 C 167.964844 227.667969 166.199219 228.144531 164.011719 228.144531 Z M 164.011719 228.144531 " fill-opacity="1" fill-rule="nonzero"/><path fill="#ffffff" d="M 191.9375 228.144531 C 190.078125 228.144531 188.441406 227.769531 187.023438 227.011719 C 185.601562 226.253906 184.492188 225.085938 183.683594 223.523438 C 182.875 221.960938 182.472656 220.019531 182.472656 217.703125 C 182.472656 215.378906 182.875 213.4375 183.683594 211.882812 C 184.492188 210.320312 185.601562 209.160156 187.023438 208.40625 C 188.441406 207.644531 190.078125 207.261719 191.9375 207.261719 C 193.796875 207.261719 195.429688 207.640625 196.839844 208.394531 C 198.257812 209.148438 199.363281 210.308594 200.164062 211.871094 C 200.972656 213.433594 201.378906 215.378906 201.378906 217.703125 C 201.378906 220.019531 200.972656 221.96875 200.164062 223.539062 C 199.363281 225.101562 198.257812 226.257812 196.839844 227.011719 C 195.429688 227.769531 193.796875 228.144531 191.9375 228.144531 Z M 191.9375 224.65625 C 193.660156 224.65625 194.972656 224.101562 195.882812 223 C 196.789062 221.894531 197.242188 220.128906 197.242188 217.703125 C 197.242188 215.277344 196.789062 213.511719 195.882812 212.410156 C 194.972656 211.296875 193.660156 210.738281 191.9375 210.738281 C 190.203125 210.738281 188.886719 211.296875 187.980469 212.410156 C 187.070312 213.511719 186.621094 215.277344 186.621094 217.703125 C 186.621094 220.128906 187.070312 221.894531 187.980469 223 C 188.886719 224.101562 190.203125 224.65625 191.9375 224.65625 Z M 191.9375 224.65625 " fill-opacity="1" fill-rule="nonzero"/><path fill="#ffffff" d="M 217.59375 227.847656 L 213.917969 227.847656 L 213.917969 207.558594 L 219.15625 207.558594 L 224.285156 222.472656 L 224.582031 222.472656 L 229.683594 207.558594 L 234.800781 207.558594 L 234.800781 227.847656 L 231.003906 227.847656 L 231.003906 214.441406 L 230.652344 214.390625 L 225.96875 227.847656 L 222.628906 227.847656 L 217.941406 214.390625 L 217.59375 214.441406 Z M 217.59375 227.847656 " fill-opacity="1" fill-rule="nonzero"/><path fill="#ffffff" d="M 256.226562 207.558594 C 257.679688 207.558594 258.917969 207.824219 259.941406 208.351562 C 260.972656 208.886719 261.753906 209.628906 262.285156 210.589844 C 262.8125 211.542969 263.078125 212.65625 263.078125 213.929688 C 263.078125 215.199219 262.8125 216.308594 262.285156 217.257812 C 261.753906 218.210938 260.972656 218.957031 259.941406 219.496094 C 258.917969 220.027344 257.679688 220.289062 256.226562 220.289062 L 252.402344 220.289062 L 252.402344 227.847656 L 248.390625 227.847656 L 248.390625 207.558594 Z M 255.699219 217.109375 C 257.925781 217.109375 259.039062 216.054688 259.039062 213.929688 C 259.039062 211.800781 257.925781 210.738281 255.699219 210.738281 L 252.402344 210.738281 L 252.402344 217.109375 Z M 255.699219 217.109375 " fill-opacity="1" fill-rule="nonzero"/><path fill="#ffffff" d="M 290.648438 227.847656 L 286.433594 227.847656 L 284.914062 223.171875 L 277.144531 223.171875 L 275.621094 227.847656 L 271.5 227.847656 L 278.503906 207.558594 L 283.648438 207.558594 Z M 280.832031 211.789062 L 278.21875 219.792969 L 283.808594 219.792969 L 281.183594 211.789062 Z M 280.832031 211.789062 " fill-opacity="1" fill-rule="nonzero"/><path fill="#ffffff" d="M 305.773438 227.847656 L 301.894531 227.847656 L 301.894531 207.558594 L 306.484375 207.558594 L 314.632812 220.628906 L 314.984375 220.574219 L 314.984375 207.558594 L 318.847656 207.558594 L 318.847656 227.847656 L 314.738281 227.847656 L 306.121094 213.890625 L 305.773438 213.945312 Z M 305.773438 227.847656 " fill-opacity="1" fill-rule="nonzero"/><path fill="#ffffff" d="M 340.898438 227.847656 L 336.898438 227.847656 L 336.898438 219.886719 L 329.882812 207.558594 L 334.191406 207.558594 L 338.824219 215.535156 L 339.160156 215.535156 L 343.699219 207.558594 L 347.914062 207.558594 L 340.898438 219.886719 Z M 340.898438 227.847656 " fill-opacity="1" fill-rule="nonzero"/><path fill="#ffffff" d="M 331.261719 101.136719 L 373.03125 101.136719 L 373.03125 111.902344 L 331.261719 111.902344 Z M 331.261719 101.136719 " fill-opacity="1" fill-rule="nonzero"/><path fill="#ffffff" d="M 352.269531 129.585938 L 352.269531 129.695312 L 373.03125 129.695312 L 373.03125 138.832031 L 331.261719 138.832031 L 331.261719 129.695312 L 354.609375 123.605469 L 354.609375 123.429688 L 331.261719 123.429688 L 331.261719 114.308594 L 373.03125 114.308594 L 373.03125 123.429688 Z M 352.269531 129.585938 " fill-opacity="1" fill-rule="nonzero"/><g clip-path="url(#dcf5793382)"><path fill="#ffffff" d="M 373.921875 154.472656 C 373.921875 158.519531 372.847656 161.546875 370.703125 163.539062 C 368.554688 165.535156 365.789062 166.53125 362.394531 166.53125 L 356.242188 166.53125 L 356.242188 155.75 L 364.441406 155.75 C 365.253906 155.75 365.867188 155.609375 366.273438 155.335938 C 366.683594 155.066406 366.890625 154.558594 366.890625 153.824219 C 366.890625 153.195312 366.617188 152.765625 366.070312 152.53125 C 365.519531 152.296875 364.9375 152.179688 364.320312 152.179688 L 339.976562 152.179688 C 339.355469 152.179688 338.769531 152.296875 338.222656 152.53125 C 337.675781 152.765625 337.402344 153.195312 337.402344 153.824219 C 337.402344 154.558594 337.636719 155.066406 338.101562 155.335938 C 338.578125 155.609375 339.300781 155.75 340.269531 155.75 L 349.277344 155.75 L 349.277344 166.53125 L 342.140625 166.53125 C 339.996094 166.53125 338.027344 166.078125 336.230469 165.183594 C 334.433594 164.285156 333.011719 162.90625 331.964844 161.046875 C 330.914062 159.195312 330.386719 156.925781 330.386719 154.230469 C 330.386719 150.054688 331.378906 146.875 333.363281 144.691406 C 335.355469 142.507812 338.574219 141.417969 343.019531 141.417969 L 361.277344 141.417969 C 365.414062 141.417969 368.554688 142.523438 370.703125 144.746094 C 372.847656 146.972656 373.921875 150.214844 373.921875 154.472656 Z M 373.921875 154.472656 " fill-opacity="1" fill-rule="nonzero"/></g><path fill="#ffffff" d="M 56.597656 23.023438 L 56.597656 74.976562 C 56.597656 80.660156 54.703125 84.96875 50.917969 87.894531 C 47.125 90.828125 42.179688 92.289062 36.066406 92.289062 L 0.03125 92.289062 L 0.03125 0.0234375 L 30.894531 0.0234375 C 36.578125 0.0234375 41.265625 0.652344 44.964844 1.898438 C 48.671875 3.148438 51.535156 5.453125 53.554688 8.808594 C 55.582031 12.171875 56.597656 16.90625 56.597656 23.023438 Z M 32.832031 69.9375 L 32.832031 22.375 C 32.832031 20.652344 32.339844 19.082031 31.351562 17.660156 C 30.363281 16.242188 29.09375 15.53125 27.542969 15.53125 L 23.796875 15.53125 L 23.796875 76.78125 L 27.542969 76.78125 C 29.09375 76.78125 30.363281 76.09375 31.351562 74.71875 C 32.339844 73.339844 32.832031 71.742188 32.832031 69.9375 Z M 32.832031 69.9375 " fill-opacity="1" fill-rule="nonzero"/><path fill="#ffffff" d="M 87.335938 70.960938 C 87.335938 73.808594 87.765625 75.6875 88.625 76.59375 C 89.488281 77.492188 90.558594 77.941406 91.84375 77.941406 C 93.136719 77.941406 94.214844 77.492188 95.078125 76.59375 C 95.9375 75.6875 96.371094 73.808594 96.371094 70.960938 L 96.371094 0.0234375 L 120.136719 0.0234375 L 120.136719 67.605469 C 120.136719 85.355469 110.703125 94.226562 91.84375 94.226562 C 72.992188 94.226562 63.566406 85.355469 63.566406 67.605469 L 63.566406 0.0234375 L 87.335938 0.0234375 Z M 87.335938 70.960938 " fill-opacity="1" fill-rule="nonzero"/><path fill="#ffffff" d="M 160.808594 45.902344 L 161.0625 45.902344 L 161.0625 0.0234375 L 181.21875 0.0234375 L 181.21875 92.289062 L 161.0625 92.289062 L 147.636719 40.726562 L 147.246094 40.726562 L 147.246094 92.289062 L 127.105469 92.289062 L 127.105469 0.0234375 L 147.246094 0.0234375 Z M 160.808594 45.902344 " fill-opacity="1" fill-rule="nonzero"/><path fill="#ffffff" d="M 244.753906 23.023438 L 244.753906 74.976562 C 244.753906 80.660156 242.855469 84.96875 239.070312 87.894531 C 235.28125 90.828125 230.332031 92.289062 224.21875 92.289062 L 188.1875 92.289062 L 188.1875 0.0234375 L 219.046875 0.0234375 C 224.730469 0.0234375 229.417969 0.652344 233.117188 1.898438 C 236.824219 3.148438 239.691406 5.453125 241.710938 8.808594 C 243.734375 12.171875 244.753906 16.90625 244.753906 23.023438 Z M 220.988281 69.9375 L 220.988281 22.375 C 220.988281 20.652344 220.492188 19.082031 219.503906 17.660156 C 218.515625 16.242188 217.246094 15.53125 215.695312 15.53125 L 211.953125 15.53125 L 211.953125 76.78125 L 215.695312 76.78125 C 217.246094 76.78125 218.515625 76.09375 219.503906 74.71875 C 220.492188 73.339844 220.988281 71.742188 220.988281 69.9375 Z M 220.988281 69.9375 " fill-opacity="1" fill-rule="nonzero"/><path fill="#ffffff" d="M 291.886719 18.632812 L 275.488281 18.632812 L 275.488281 35.566406 L 290.851562 35.566406 L 290.851562 53.390625 L 275.488281 53.390625 L 275.488281 73.683594 L 293.179688 73.683594 L 293.179688 92.289062 L 251.722656 92.289062 L 251.722656 0.0234375 L 291.886719 0.0234375 Z M 291.886719 18.632812 " fill-opacity="1" fill-rule="nonzero"/><path fill="#ffffff" d="M 351.667969 18.242188 L 351.667969 27.550781 C 351.667969 32.636719 350.503906 36.449219 348.183594 38.988281 C 345.867188 41.53125 342.382812 42.972656 337.734375 43.3125 L 337.734375 43.570312 C 342.8125 43.921875 346.554688 45.390625 348.964844 47.976562 C 351.375 50.554688 352.585938 54.386719 352.585938 59.46875 L 352.585938 92.289062 L 330.367188 92.289062 L 330.367188 56.882812 C 330.367188 51.796875 328.300781 49.253906 324.171875 49.253906 C 323.222656 49.253906 322.316406 49.386719 321.453125 49.644531 L 321.453125 92.289062 L 298.46875 92.289062 L 298.46875 0.0234375 L 326.234375 0.0234375 C 331.746094 0.0234375 336.265625 0.4375 339.792969 1.25 C 343.320312 2.070312 346.179688 3.792969 348.371094 6.425781 C 350.570312 9.046875 351.667969 12.984375 351.667969 18.242188 Z M 323.136719 35.296875 C 325.890625 35.296875 327.785156 34.675781 328.820312 33.425781 C 329.847656 32.179688 330.367188 30.738281 330.367188 29.101562 L 330.367188 20.960938 C 330.367188 19.410156 329.847656 17.984375 328.820312 16.691406 C 327.785156 15.398438 325.929688 14.75 323.257812 14.75 L 321.453125 14.75 L 321.453125 35.296875 Z M 323.136719 35.296875 " fill-opacity="1" fill-rule="nonzero"/><path fill="#ffffff" d="M 39.363281 152.253906 L 39.617188 152.253906 L 45.179688 98.375 L 77.199219 98.375 L 77.199219 190.640625 L 57.054688 190.640625 L 57.054688 122.15625 L 56.800781 122.15625 L 46.847656 190.640625 L 31.875 190.640625 L 21.925781 122.15625 L 21.667969 122.15625 L 21.667969 190.640625 L 1.527344 190.640625 L 1.527344 98.375 L 33.167969 98.375 Z M 39.363281 152.253906 " fill-opacity="1" fill-rule="nonzero"/><path fill="#ffffff" d="M 82.492188 98.375 L 106.257812 98.375 L 106.257812 190.640625 L 82.492188 190.640625 Z M 82.492188 98.375 " fill-opacity="1" fill-rule="nonzero"/><path fill="#ffffff" d="M 151.582031 116.984375 L 135.316406 116.984375 L 135.316406 133.917969 L 149.265625 133.917969 L 149.265625 151.742188 L 135.316406 151.742188 L 135.316406 190.640625 L 111.550781 190.640625 L 111.550781 98.375 L 151.582031 98.375 Z M 151.582031 116.984375 " fill-opacity="1" fill-rule="nonzero"/><path fill="#ffffff" d="M 194.585938 116.984375 L 178.320312 116.984375 L 178.320312 133.917969 L 192.269531 133.917969 L 192.269531 151.742188 L 178.320312 151.742188 L 178.320312 190.640625 L 154.554688 190.640625 L 154.554688 98.375 L 194.585938 98.375 Z M 194.585938 116.984375 " fill-opacity="1" fill-rule="nonzero"/><path fill="#ffffff" d="M 221.320312 172.800781 L 237.078125 172.800781 L 237.078125 190.640625 L 197.554688 190.640625 L 197.554688 98.375 L 221.320312 98.375 Z M 221.320312 172.800781 " fill-opacity="1" fill-rule="nonzero"/><path fill="#ffffff" d="M 240.167969 98.375 L 263.933594 98.375 L 263.933594 190.640625 L 240.167969 190.640625 Z M 240.167969 98.375 " fill-opacity="1" fill-rule="nonzero"/><path fill="#ffffff" d="M 302.929688 144.253906 L 303.1875 144.253906 L 303.1875 98.375 L 323.34375 98.375 L 323.34375 190.640625 L 303.1875 190.640625 L 289.761719 139.078125 L 289.371094 139.078125 L 289.371094 190.640625 L 269.226562 190.640625 L 269.226562 98.375 L 289.371094 98.375 Z M 302.929688 144.253906 " fill-opacity="1" fill-rule="nonzero"/><path fill="#ffffff" d="M 347.359375 186.113281 C 347.359375 188.613281 346.648438 191.152344 345.21875 193.738281 C 343.800781 196.324219 341.820312 198.5 339.28125 200.257812 C 336.738281 202.027344 333.835938 202.914062 330.570312 202.914062 L 329.921875 195.933594 C 331.476562 195.855469 332.617188 195.273438 333.34375 194.195312 C 334.078125 193.117188 334.449219 191.933594 334.449219 190.640625 L 329.53125 190.640625 L 329.53125 172.035156 L 347.359375 172.035156 Z M 347.359375 186.113281 " fill-opacity="1" fill-rule="nonzero"/><path fill="#ffffff" d="M 15.085938 207.558594 C 16.539062 207.558594 17.777344 207.824219 18.800781 208.351562 C 19.832031 208.886719 20.613281 209.628906 21.144531 210.589844 C 21.671875 211.542969 21.9375 212.65625 21.9375 213.929688 C 21.9375 215.199219 21.671875 216.308594 21.144531 217.257812 C 20.613281 218.210938 19.832031 218.957031 18.800781 219.496094 C 17.777344 220.027344 16.539062 220.289062 15.085938 220.289062 L 11.261719 220.289062 L 11.261719 227.847656 L 7.246094 227.847656 L 7.246094 207.558594 Z M 14.558594 217.109375 C 16.785156 217.109375 17.898438 216.054688 17.898438 213.929688 C 17.898438 211.800781 16.785156 210.738281 14.558594 210.738281 L 11.261719 210.738281 L 11.261719 217.109375 Z M 14.558594 217.109375 " fill-opacity="1" fill-rule="nonzero"/><path fill="#ffffff" d="M 49.507812 227.847656 L 45.292969 227.847656 L 43.769531 223.171875 L 36 223.171875 L 34.480469 227.847656 L 30.359375 227.847656 L 37.363281 207.558594 L 42.503906 207.558594 Z M 39.691406 211.789062 L 37.078125 219.792969 L 42.667969 219.792969 L 40.042969 211.789062 Z M 39.691406 211.789062 " fill-opacity="1" fill-rule="nonzero"/><path fill="#ffffff" d="M 68.589844 207.558594 C 70.042969 207.558594 71.28125 207.824219 72.304688 208.351562 C 73.335938 208.886719 74.117188 209.628906 74.648438 210.589844 C 75.175781 211.542969 75.441406 212.65625 75.441406 213.929688 C 75.441406 215.199219 75.175781 216.308594 74.648438 217.257812 C 74.117188 218.210938 73.335938 218.957031 72.304688 219.496094 C 71.28125 220.027344 70.042969 220.289062 68.589844 220.289062 L 64.765625 220.289062 L 64.765625 227.847656 L 60.753906 227.847656 L 60.753906 207.558594 Z M 68.0625 217.109375 C 70.289062 217.109375 71.402344 216.054688 71.402344 213.929688 C 71.402344 211.800781 70.289062 210.738281 68.0625 210.738281 L 64.765625 210.738281 L 64.765625 217.109375 Z M 68.0625 217.109375 " fill-opacity="1" fill-rule="nonzero"/><path fill="#ffffff" d="M 91.59375 218.941406 L 91.59375 224.492188 L 101.277344 224.492188 L 101.277344 227.847656 L 87.582031 227.847656 L 87.582031 207.558594 L 101.046875 207.558594 L 101.046875 210.914062 L 91.59375 210.914062 L 91.59375 215.65625 L 99.863281 215.65625 L 99.863281 218.941406 Z M 91.59375 218.941406 " fill-opacity="1" fill-rule="nonzero"/><path fill="#ffffff" d="M 113.316406 227.847656 L 113.316406 207.558594 L 121.460938 207.558594 C 123.550781 207.558594 125.128906 208.042969 126.199219 209.011719 C 127.269531 209.976562 127.804688 211.308594 127.804688 213.015625 C 127.804688 214.246094 127.488281 215.257812 126.859375 216.046875 C 126.242188 216.828125 125.3125 217.425781 124.074219 217.839844 L 124.074219 218.132812 C 124.710938 218.414062 125.226562 218.828125 125.621094 219.375 C 126.015625 219.914062 126.390625 220.722656 126.738281 221.800781 L 128.757812 227.847656 L 124.640625 227.847656 L 122.660156 221.785156 C 122.449219 221.175781 122.222656 220.703125 121.972656 220.371094 C 121.71875 220.03125 121.398438 219.785156 121.003906 219.628906 C 120.605469 219.480469 120.09375 219.402344 119.46875 219.402344 L 117.328125 219.402344 L 117.328125 227.847656 Z M 120.964844 216.222656 C 122.910156 216.222656 123.886719 215.316406 123.886719 213.5 C 123.886719 211.660156 122.910156 210.738281 120.964844 210.738281 L 117.328125 210.738281 L 117.328125 216.222656 Z M 120.964844 216.222656 " fill-opacity="1" fill-rule="nonzero"/><path fill="#ffffff" d="M 164.011719 228.144531 C 162.144531 228.144531 160.496094 227.761719 159.070312 226.988281 C 157.648438 226.203125 156.539062 225.03125 155.730469 223.46875 C 154.921875 221.90625 154.519531 219.988281 154.519531 217.703125 C 154.519531 215.414062 154.921875 213.492188 155.730469 211.9375 C 156.539062 210.375 157.648438 209.207031 159.070312 208.433594 C 160.496094 207.652344 162.144531 207.261719 164.011719 207.261719 C 165.96875 207.261719 167.628906 207.644531 168.996094 208.40625 C 170.359375 209.171875 171.328125 210.332031 171.902344 211.898438 L 168.980469 213.6875 L 168.632812 213.675781 C 168.199219 212.625 167.609375 211.871094 166.867188 211.410156 C 166.121094 210.953125 165.171875 210.722656 164.011719 210.722656 C 162.332031 210.722656 161.023438 211.285156 160.082031 212.394531 C 159.136719 213.511719 158.667969 215.277344 158.667969 217.703125 C 158.667969 220.121094 159.136719 221.886719 160.082031 223 C 161.023438 224.113281 162.332031 224.667969 164.011719 224.667969 C 166.652344 224.667969 168.265625 223.390625 168.859375 220.828125 L 169.210938 220.828125 L 172.160156 222.363281 C 171.601562 224.289062 170.652344 225.734375 169.304688 226.703125 C 167.964844 227.667969 166.199219 228.144531 164.011719 228.144531 Z M 164.011719 228.144531 " fill-opacity="1" fill-rule="nonzero"/><path fill="#ffffff" d="M 191.9375 228.144531 C 190.078125 228.144531 188.441406 227.769531 187.023438 227.011719 C 185.601562 226.253906 184.492188 225.085938 183.683594 223.523438 C 182.875 221.960938 182.472656 220.019531 182.472656 217.703125 C 182.472656 215.378906 182.875 213.4375 183.683594 211.882812 C 184.492188 210.320312 185.601562 209.160156 187.023438 208.40625 C 188.441406 207.644531 190.078125 207.261719 191.9375 207.261719 C 193.796875 207.261719 195.429688 207.640625 196.839844 208.394531 C 198.257812 209.148438 199.363281 210.308594 200.164062 211.871094 C 200.972656 213.433594 201.378906 215.378906 201.378906 217.703125 C 201.378906 220.019531 200.972656 221.96875 200.164062 223.539062 C 199.363281 225.101562 198.257812 226.257812 196.839844 227.011719 C 195.429688 227.769531 193.796875 228.144531 191.9375 228.144531 Z M 191.9375 224.65625 C 193.660156 224.65625 194.972656 224.101562 195.882812 223 C 196.789062 221.894531 197.242188 220.128906 197.242188 217.703125 C 197.242188 215.277344 196.789062 213.511719 195.882812 212.410156 C 194.972656 211.296875 193.660156 210.738281 191.9375 210.738281 C 190.203125 210.738281 188.886719 211.296875 187.980469 212.410156 C 187.070312 213.511719 186.621094 215.277344 186.621094 217.703125 C 186.621094 220.128906 187.070312 221.894531 187.980469 223 C 188.886719 224.101562 190.203125 224.65625 191.9375 224.65625 Z M 191.9375 224.65625 " fill-opacity="1" fill-rule="nonzero"/><path fill="#ffffff" d="M 217.59375 227.847656 L 213.917969 227.847656 L 213.917969 207.558594 L 219.15625 207.558594 L 224.285156 222.472656 L 224.582031 222.472656 L 229.683594 207.558594 L 234.800781 207.558594 L 234.800781 227.847656 L 231.003906 227.847656 L 231.003906 214.441406 L 230.652344 214.390625 L 225.96875 227.847656 L 222.628906 227.847656 L 217.941406 214.390625 L 217.59375 214.441406 Z M 217.59375 227.847656 " fill-opacity="1" fill-rule="nonzero"/><path fill="#ffffff" d="M 256.226562 207.558594 C 257.679688 207.558594 258.917969 207.824219 259.941406 208.351562 C 260.972656 208.886719 261.753906 209.628906 262.285156 210.589844 C 262.8125 211.542969 263.078125 212.65625 263.078125 213.929688 C 263.078125 215.199219 262.8125 216.308594 262.285156 217.257812 C 261.753906 218.210938 260.972656 218.957031 259.941406 219.496094 C 258.917969 220.027344 257.679688 220.289062 256.226562 220.289062 L 252.402344 220.289062 L 252.402344 227.847656 L 248.390625 227.847656 L 248.390625 207.558594 Z M 255.699219 217.109375 C 257.925781 217.109375 259.039062 216.054688 259.039062 213.929688 C 259.039062 211.800781 257.925781 210.738281 255.699219 210.738281 L 252.402344 210.738281 L 252.402344 217.109375 Z M 255.699219 217.109375 " fill-opacity="1" fill-rule="nonzero"/><path fill="#ffffff" d="M 290.648438 227.847656 L 286.433594 227.847656 L 284.914062 223.171875 L 277.144531 223.171875 L 275.621094 227.847656 L 271.5 227.847656 L 278.503906 207.558594 L 283.648438 207.558594 Z M 280.832031 211.789062 L 278.21875 219.792969 L 283.808594 219.792969 L 281.183594 211.789062 Z M 280.832031 211.789062 " fill-opacity="1" fill-rule="nonzero"/><path fill="#ffffff" d="M 305.773438 227.847656 L 301.894531 227.847656 L 301.894531 207.558594 L 306.484375 207.558594 L 314.632812 220.628906 L 314.984375 220.574219 L 314.984375 207.558594 L 318.847656 207.558594 L 318.847656 227.847656 L 314.738281 227.847656 L 306.121094 213.890625 L 305.773438 213.945312 Z M 305.773438 227.847656 " fill-opacity="1" fill-rule="nonzero"/><path fill="#ffffff" d="M 340.898438 227.847656 L 336.898438 227.847656 L 336.898438 219.886719 L 329.882812 207.558594 L 334.191406 207.558594 L 338.824219 215.535156 L 339.160156 215.535156 L 343.699219 207.558594 L 347.914062 207.558594 L 340.898438 219.886719 Z M 340.898438 227.847656 " fill-opacity="1" fill-rule="nonzero"/><path fill="#ffffff" d="M 331.261719 101.136719 L 373.03125 101.136719 L 373.03125 111.902344 L 331.261719 111.902344 Z M 331.261719 101.136719 " fill-opacity="1" fill-rule="nonzero"/><path fill="#ffffff" d="M 352.269531 129.585938 L 352.269531 129.695312 L 373.03125 129.695312 L 373.03125 138.832031 L 331.261719 138.832031 L 331.261719 129.695312 L 354.609375 123.605469 L 354.609375 123.429688 L 331.261719 123.429688 L 331.261719 114.308594 L 373.03125 114.308594 L 373.03125 123.429688 Z M 352.269531 129.585938 " fill-opacity="1" fill-rule="nonzero"/><g clip-path="url(#8c5888ba21)"><path fill="#ffffff" d="M 373.921875 154.472656 C 373.921875 158.519531 372.847656 161.546875 370.703125 163.539062 C 368.554688 165.535156 365.789062 166.53125 362.394531 166.53125 L 356.242188 166.53125 L 356.242188 155.75 L 364.441406 155.75 C 365.253906 155.75 365.867188 155.609375 366.273438 155.335938 C 366.683594 155.066406 366.890625 154.558594 366.890625 153.824219 C 366.890625 153.195312 366.617188 152.765625 366.070312 152.53125 C 365.519531 152.296875 364.9375 152.179688 364.320312 152.179688 L 339.976562 152.179688 C 339.355469 152.179688 338.769531 152.296875 338.222656 152.53125 C 337.675781 152.765625 337.402344 153.195312 337.402344 153.824219 C 337.402344 154.558594 337.636719 155.066406 338.101562 155.335938 C 338.578125 155.609375 339.300781 155.75 340.269531 155.75 L 349.277344 155.75 L 349.277344 166.53125 L 342.140625 166.53125 C 339.996094 166.53125 338.027344 166.078125 336.230469 165.183594 C 334.433594 164.285156 333.011719 162.90625 331.964844 161.046875 C 330.914062 159.195312 330.386719 156.925781 330.386719 154.230469 C 330.386719 150.054688 331.378906 146.875 333.363281 144.691406 C 335.355469 142.507812 338.574219 141.417969 343.019531 141.417969 L 361.277344 141.417969 C 365.414062 141.417969 368.554688 142.523438 370.703125 144.746094 C 372.847656 146.972656 373.921875 150.214844 373.921875 154.472656 Z M 373.921875 154.472656 " fill-opacity="1" fill-rule="nonzero"/></g><path fill="#ffffff" d="M 56.597656 23.023438 L 56.597656 74.976562 C 56.597656 80.660156 54.703125 84.96875 50.917969 87.894531 C 47.125 90.828125 42.179688 92.289062 36.066406 92.289062 L 0.03125 92.289062 L 0.03125 0.0234375 L 30.894531 0.0234375 C 36.578125 0.0234375 41.265625 0.652344 44.964844 1.898438 C 48.671875 3.148438 51.535156 5.453125 53.554688 8.808594 C 55.582031 12.171875 56.597656 16.90625 56.597656 23.023438 Z M 32.832031 69.9375 L 32.832031 22.375 C 32.832031 20.652344 32.339844 19.082031 31.351562 17.660156 C 30.363281 16.242188 29.09375 15.53125 27.542969 15.53125 L 23.796875 15.53125 L 23.796875 76.78125 L 27.542969 76.78125 C 29.09375 76.78125 30.363281 76.09375 31.351562 74.71875 C 32.339844 73.339844 32.832031 71.742188 32.832031 69.9375 Z M 32.832031 69.9375 " fill-opacity="1" fill-rule="nonzero"/><path fill="#ffffff" d="M 87.335938 70.960938 C 87.335938 73.808594 87.765625 75.6875 88.625 76.59375 C 89.488281 77.492188 90.558594 77.941406 91.84375 77.941406 C 93.136719 77.941406 94.214844 77.492188 95.078125 76.59375 C 95.9375 75.6875 96.371094 73.808594 96.371094 70.960938 L 96.371094 0.0234375 L 120.136719 0.0234375 L 120.136719 67.605469 C 120.136719 85.355469 110.703125 94.226562 91.84375 94.226562 C 72.992188 94.226562 63.566406 85.355469 63.566406 67.605469 L 63.566406 0.0234375 L 87.335938 0.0234375 Z M 87.335938 70.960938 " fill-opacity="1" fill-rule="nonzero"/><path fill="#ffffff" d="M 160.808594 45.902344 L 161.0625 45.902344 L 161.0625 0.0234375 L 181.21875 0.0234375 L 181.21875 92.289062 L 161.0625 92.289062 L 147.636719 40.726562 L 147.246094 40.726562 L 147.246094 92.289062 L 127.105469 92.289062 L 127.105469 0.0234375 L 147.246094 0.0234375 Z M 160.808594 45.902344 " fill-opacity="1" fill-rule="nonzero"/><path fill="#ffffff" d="M 244.753906 23.023438 L 244.753906 74.976562 C 244.753906 80.660156 242.855469 84.96875 239.070312 87.894531 C 235.28125 90.828125 230.332031 92.289062 224.21875 92.289062 L 188.1875 92.289062 L 188.1875 0.0234375 L 219.046875 0.0234375 C 224.730469 0.0234375 229.417969 0.652344 233.117188 1.898438 C 236.824219 3.148438 239.691406 5.453125 241.710938 8.808594 C 243.734375 12.171875 244.753906 16.90625 244.753906 23.023438 Z M 220.988281 69.9375 L 220.988281 22.375 C 220.988281 20.652344 220.492188 19.082031 219.503906 17.660156 C 218.515625 16.242188 217.246094 15.53125 215.695312 15.53125 L 211.953125 15.53125 L 211.953125 76.78125 L 215.695312 76.78125 C 217.246094 76.78125 218.515625 76.09375 219.503906 74.71875 C 220.492188 73.339844 220.988281 71.742188 220.988281 69.9375 Z M 220.988281 69.9375 " fill-opacity="1" fill-rule="nonzero"/><path fill="#ffffff" d="M 291.886719 18.632812 L 275.488281 18.632812 L 275.488281 35.566406 L 290.851562 35.566406 L 290.851562 53.390625 L 275.488281 53.390625 L 275.488281 73.683594 L 293.179688 73.683594 L 293.179688 92.289062 L 251.722656 92.289062 L 251.722656 0.0234375 L 291.886719 0.0234375 Z M 291.886719 18.632812 " fill-opacity="1" fill-rule="nonzero"/><path fill="#ffffff" d="M 351.667969 18.242188 L 351.667969 27.550781 C 351.667969 32.636719 350.503906 36.449219 348.183594 38.988281 C 345.867188 41.53125 342.382812 42.972656 337.734375 43.3125 L 337.734375 43.570312 C 342.8125 43.921875 346.554688 45.390625 348.964844 47.976562 C 351.375 50.554688 352.585938 54.386719 352.585938 59.46875 L 352.585938 92.289062 L 330.367188 92.289062 L 330.367188 56.882812 C 330.367188 51.796875 328.300781 49.253906 324.171875 49.253906 C 323.222656 49.253906 322.316406 49.386719 321.453125 49.644531 L 321.453125 92.289062 L 298.46875 92.289062 L 298.46875 0.0234375 L 326.234375 0.0234375 C 331.746094 0.0234375 336.265625 0.4375 339.792969 1.25 C 343.320312 2.070312 346.179688 3.792969 348.371094 6.425781 C 350.570312 9.046875 351.667969 12.984375 351.667969 18.242188 Z M 323.136719 35.296875 C 325.890625 35.296875 327.785156 34.675781 328.820312 33.425781 C 329.847656 32.179688 330.367188 30.738281 330.367188 29.101562 L 330.367188 20.960938 C 330.367188 19.410156 329.847656 17.984375 328.820312 16.691406 C 327.785156 15.398438 325.929688 14.75 323.257812 14.75 L 321.453125 14.75 L 321.453125 35.296875 Z M 323.136719 35.296875 " fill-opacity="1" fill-rule="nonzero"/><path fill="#ffffff" d="M 39.363281 152.253906 L 39.617188 152.253906 L 45.179688 98.375 L 77.199219 98.375 L 77.199219 190.640625 L 57.054688 190.640625 L 57.054688 122.15625 L 56.800781 122.15625 L 46.847656 190.640625 L 31.875 190.640625 L 21.925781 122.15625 L 21.667969 122.15625 L 21.667969 190.640625 L 1.527344 190.640625 L 1.527344 98.375 L 33.167969 98.375 Z M 39.363281 152.253906 " fill-opacity="1" fill-rule="nonzero"/><path fill="#ffffff" d="M 82.492188 98.375 L 106.257812 98.375 L 106.257812 190.640625 L 82.492188 190.640625 Z M 82.492188 98.375 " fill-opacity="1" fill-rule="nonzero"/><path fill="#ffffff" d="M 151.582031 116.984375 L 135.316406 116.984375 L 135.316406 133.917969 L 149.265625 133.917969 L 149.265625 151.742188 L 135.316406 151.742188 L 135.316406 190.640625 L 111.550781 190.640625 L 111.550781 98.375 L 151.582031 98.375 Z M 151.582031 116.984375 " fill-opacity="1" fill-rule="nonzero"/><path fill="#ffffff" d="M 194.585938 116.984375 L 178.320312 116.984375 L 178.320312 133.917969 L 192.269531 133.917969 L 192.269531 151.742188 L 178.320312 151.742188 L 178.320312 190.640625 L 154.554688 190.640625 L 154.554688 98.375 L 194.585938 98.375 Z M 194.585938 116.984375 " fill-opacity="1" fill-rule="nonzero"/><path fill="#ffffff" d="M 221.320312 172.800781 L 237.078125 172.800781 L 237.078125 190.640625 L 197.554688 190.640625 L 197.554688 98.375 L 221.320312 98.375 Z M 221.320312 172.800781 " fill-opacity="1" fill-rule="nonzero"/><path fill="#ffffff" d="M 240.167969 98.375 L 263.933594 98.375 L 263.933594 190.640625 L 240.167969 190.640625 Z M 240.167969 98.375 " fill-opacity="1" fill-rule="nonzero"/><path fill="#ffffff" d="M 302.929688 144.253906 L 303.1875 144.253906 L 303.1875 98.375 L 323.34375 98.375 L 323.34375 190.640625 L 303.1875 190.640625 L 289.761719 139.078125 L 289.371094 139.078125 L 289.371094 190.640625 L 269.226562 190.640625 L 269.226562 98.375 L 289.371094 98.375 Z M 302.929688 144.253906 " fill-opacity="1" fill-rule="nonzero"/><path fill="#ffffff" d="M 347.359375 186.113281 C 347.359375 188.613281 346.648438 191.152344 345.21875 193.738281 C 343.800781 196.324219 341.820312 198.5 339.28125 200.257812 C 336.738281 202.027344 333.835938 202.914062 330.570312 202.914062 L 329.921875 195.933594 C 331.476562 195.855469 332.617188 195.273438 333.34375 194.195312 C 334.078125 193.117188 334.449219 191.933594 334.449219 190.640625 L 329.53125 190.640625 L 329.53125 172.035156 L 347.359375 172.035156 Z M 347.359375 186.113281 " fill-opacity="1" fill-rule="nonzero"/><path fill="#ffffff" d="M 15.085938 207.558594 C 16.539062 207.558594 17.777344 207.824219 18.800781 208.351562 C 19.832031 208.886719 20.613281 209.628906 21.144531 210.589844 C 21.671875 211.542969 21.9375 212.65625 21.9375 213.929688 C 21.9375 215.199219 21.671875 216.308594 21.144531 217.257812 C 20.613281 218.210938 19.832031 218.957031 18.800781 219.496094 C 17.777344 220.027344 16.539062 220.289062 15.085938 220.289062 L 11.261719 220.289062 L 11.261719 227.847656 L 7.246094 227.847656 L 7.246094 207.558594 Z M 14.558594 217.109375 C 16.785156 217.109375 17.898438 216.054688 17.898438 213.929688 C 17.898438 211.800781 16.785156 210.738281 14.558594 210.738281 L 11.261719 210.738281 L 11.261719 217.109375 Z M 14.558594 217.109375 " fill-opacity="1" fill-rule="nonzero"/><path fill="#ffffff" d="M 49.507812 227.847656 L 45.292969 227.847656 L 43.769531 223.171875 L 36 223.171875 L 34.480469 227.847656 L 30.359375 227.847656 L 37.363281 207.558594 L 42.503906 207.558594 Z M 39.691406 211.789062 L 37.078125 219.792969 L 42.667969 219.792969 L 40.042969 211.789062 Z M 39.691406 211.789062 " fill-opacity="1" fill-rule="nonzero"/><path fill="#ffffff" d="M 68.589844 207.558594 C 70.042969 207.558594 71.28125 207.824219 72.304688 208.351562 C 73.335938 208.886719 74.117188 209.628906 74.648438 210.589844 C 75.175781 211.542969 75.441406 212.65625 75.441406 213.929688 C 75.441406 215.199219 75.175781 216.308594 74.648438 217.257812 C 74.117188 218.210938 73.335938 218.957031 72.304688 219.496094 C 71.28125 220.027344 70.042969 220.289062 68.589844 220.289062 L 64.765625 220.289062 L 64.765625 227.847656 L 60.753906 227.847656 L 60.753906 207.558594 Z M 68.0625 217.109375 C 70.289062 217.109375 71.402344 216.054688 71.402344 213.929688 C 71.402344 211.800781 70.289062 210.738281 68.0625 210.738281 L 64.765625 210.738281 L 64.765625 217.109375 Z M 68.0625 217.109375 " fill-opacity="1" fill-rule="nonzero"/><path fill="#ffffff" d="M 91.59375 218.941406 L 91.59375 224.492188 L 101.277344 224.492188 L 101.277344 227.847656 L 87.582031 227.847656 L 87.582031 207.558594 L 101.046875 207.558594 L 101.046875 210.914062 L 91.59375 210.914062 L 91.59375 215.65625 L 99.863281 215.65625 L 99.863281 218.941406 Z M 91.59375 218.941406 " fill-opacity="1" fill-rule="nonzero"/><path fill="#ffffff" d="M 113.316406 227.847656 L 113.316406 207.558594 L 121.460938 207.558594 C 123.550781 207.558594 125.128906 208.042969 126.199219 209.011719 C 127.269531 209.976562 127.804688 211.308594 127.804688 213.015625 C 127.804688 214.246094 127.488281 215.257812 126.859375 216.046875 C 126.242188 216.828125 125.3125 217.425781 124.074219 217.839844 L 124.074219 218.132812 C 124.710938 218.414062 125.226562 218.828125 125.621094 219.375 C 126.015625 219.914062 126.390625 220.722656 126.738281 221.800781 L 128.757812 227.847656 L 124.640625 227.847656 L 122.660156 221.785156 C 122.449219 221.175781 122.222656 220.703125 121.972656 220.371094 C 121.71875 220.03125 121.398438 219.785156 121.003906 219.628906 C 120.605469 219.480469 120.09375 219.402344 119.46875 219.402344 L 117.328125 219.402344 L 117.328125 227.847656 Z M 120.964844 216.222656 C 122.910156 216.222656 123.886719 215.316406 123.886719 213.5 C 123.886719 211.660156 122.910156 210.738281 120.964844 210.738281 L 117.328125 210.738281 L 117.328125 216.222656 Z M 120.964844 216.222656 " fill-opacity="1" fill-rule="nonzero"/><path fill="#ffffff" d="M 164.011719 228.144531 C 162.144531 228.144531 160.496094 227.761719 159.070312 226.988281 C 157.648438 226.203125 156.539062 225.03125 155.730469 223.46875 C 154.921875 221.90625 154.519531 219.988281 154.519531 217.703125 C 154.519531 215.414062 154.921875 213.492188 155.730469 211.9375 C 156.539062 210.375 157.648438 209.207031 159.070312 208.433594 C 160.496094 207.652344 162.144531 207.261719 164.011719 207.261719 C 165.96875 207.261719 167.628906 207.644531 168.996094 208.40625 C 170.359375 209.171875 171.328125 210.332031 171.902344 211.898438 L 168.980469 213.6875 L 168.632812 213.675781 C 168.199219 212.625 167.609375 211.871094 166.867188 211.410156 C 166.121094 210.953125 165.171875 210.722656 164.011719 210.722656 C 162.332031 210.722656 161.023438 211.285156 160.082031 212.394531 C 159.136719 213.511719 158.667969 215.277344 158.667969 217.703125 C 158.667969 220.121094 159.136719 221.886719 160.082031 223 C 161.023438 224.113281 162.332031 224.667969 164.011719 224.667969 C 166.652344 224.667969 168.265625 223.390625 168.859375 220.828125 L 169.210938 220.828125 L 172.160156 222.363281 C 171.601562 224.289062 170.652344 225.734375 169.304688 226.703125 C 167.964844 227.667969 166.199219 228.144531 164.011719 228.144531 Z M 164.011719 228.144531 " fill-opacity="1" fill-rule="nonzero"/><path fill="#ffffff" d="M 191.9375 228.144531 C 190.078125 228.144531 188.441406 227.769531 187.023438 227.011719 C 185.601562 226.253906 184.492188 225.085938 183.683594 223.523438 C 182.875 221.960938 182.472656 220.019531 182.472656 217.703125 C 182.472656 215.378906 182.875 213.4375 183.683594 211.882812 C 184.492188 210.320312 185.601562 209.160156 187.023438 208.40625 C 188.441406 207.644531 190.078125 207.261719 191.9375 207.261719 C 193.796875 207.261719 195.429688 207.640625 196.839844 208.394531 C 198.257812 209.148438 199.363281 210.308594 200.164062 211.871094 C 200.972656 213.433594 201.378906 215.378906 201.378906 217.703125 C 201.378906 220.019531 200.972656 221.96875 200.164062 223.539062 C 199.363281 225.101562 198.257812 226.257812 196.839844 227.011719 C 195.429688 227.769531 193.796875 228.144531 191.9375 228.144531 Z M 191.9375 224.65625 C 193.660156 224.65625 194.972656 224.101562 195.882812 223 C 196.789062 221.894531 197.242188 220.128906 197.242188 217.703125 C 197.242188 215.277344 196.789062 213.511719 195.882812 212.410156 C 194.972656 211.296875 193.660156 210.738281 191.9375 210.738281 C 190.203125 210.738281 188.886719 211.296875 187.980469 212.410156 C 187.070312 213.511719 186.621094 215.277344 186.621094 217.703125 C 186.621094 220.128906 187.070312 221.894531 187.980469 223 C 188.886719 224.101562 190.203125 224.65625 191.9375 224.65625 Z M 191.9375 224.65625 " fill-opacity="1" fill-rule="nonzero"/><path fill="#ffffff" d="M 217.59375 227.847656 L 213.917969 227.847656 L 213.917969 207.558594 L 219.15625 207.558594 L 224.285156 222.472656 L 224.582031 222.472656 L 229.683594 207.558594 L 234.800781 207.558594 L 234.800781 227.847656 L 231.003906 227.847656 L 231.003906 214.441406 L 230.652344 214.390625 L 225.96875 227.847656 L 222.628906 227.847656 L 217.941406 214.390625 L 217.59375 214.441406 Z M 217.59375 227.847656 " fill-opacity="1" fill-rule="nonzero"/><path fill="#ffffff" d="M 256.226562 207.558594 C 257.679688 207.558594 258.917969 207.824219 259.941406 208.351562 C 260.972656 208.886719 261.753906 209.628906 262.285156 210.589844 C 262.8125 211.542969 263.078125 212.65625 263.078125 213.929688 C 263.078125 215.199219 262.8125 216.308594 262.285156 217.257812 C 261.753906 218.210938 260.972656 218.957031 259.941406 219.496094 C 258.917969 220.027344 257.679688 220.289062 256.226562 220.289062 L 252.402344 220.289062 L 252.402344 227.847656 L 248.390625 227.847656 L 248.390625 207.558594 Z M 255.699219 217.109375 C 257.925781 217.109375 259.039062 216.054688 259.039062 213.929688 C 259.039062 211.800781 257.925781 210.738281 255.699219 210.738281 L 252.402344 210.738281 L 252.402344 217.109375 Z M 255.699219 217.109375 " fill-opacity="1" fill-rule="nonzero"/><path fill="#ffffff" d="M 290.648438 227.847656 L 286.433594 227.847656 L 284.914062 223.171875 L 277.144531 223.171875 L 275.621094 227.847656 L 271.5 227.847656 L 278.503906 207.558594 L 283.648438 207.558594 Z M 280.832031 211.789062 L 278.21875 219.792969 L 283.808594 219.792969 L 281.183594 211.789062 Z M 280.832031 211.789062 " fill-opacity="1" fill-rule="nonzero"/><path fill="#ffffff" d="M 305.773438 227.847656 L 301.894531 227.847656 L 301.894531 207.558594 L 306.484375 207.558594 L 314.632812 220.628906 L 314.984375 220.574219 L 314.984375 207.558594 L 318.847656 207.558594 L 318.847656 227.847656 L 314.738281 227.847656 L 306.121094 213.890625 L 305.773438 213.945312 Z M 305.773438 227.847656 " fill-opacity="1" fill-rule="nonzero"/><path fill="#ffffff" d="M 340.898438 227.847656 L 336.898438 227.847656 L 336.898438 219.886719 L 329.882812 207.558594 L 334.191406 207.558594 L 338.824219 215.535156 L 339.160156 215.535156 L 343.699219 207.558594 L 347.914062 207.558594 L 340.898438 219.886719 Z M 340.898438 227.847656 " fill-opacity="1" fill-rule="nonzero"/><path fill="#ffffff" d="M 331.261719 101.136719 L 373.03125 101.136719 L 373.03125 111.902344 L 331.261719 111.902344 Z M 331.261719 101.136719 " fill-opacity="1" fill-rule="nonzero"/><path fill="#ffffff" d="M 352.269531 129.585938 L 352.269531 129.695312 L 373.03125 129.695312 L 373.03125 138.832031 L 331.261719 138.832031 L 331.261719 129.695312 L 354.609375 123.605469 L 354.609375 123.429688 L 331.261719 123.429688 L 331.261719 114.308594 L 373.03125 114.308594 L 373.03125 123.429688 Z M 352.269531 129.585938 " fill-opacity="1" fill-rule="nonzero"/><g clip-path="url(#de12851cc4)"><path fill="#ffffff" d="M 373.921875 154.472656 C 373.921875 158.519531 372.847656 161.546875 370.703125 163.539062 C 368.554688 165.535156 365.789062 166.53125 362.394531 166.53125 L 356.242188 166.53125 L 356.242188 155.75 L 364.441406 155.75 C 365.253906 155.75 365.867188 155.609375 366.273438 155.335938 C 366.683594 155.066406 366.890625 154.558594 366.890625 153.824219 C 366.890625 153.195312 366.617188 152.765625 366.070312 152.53125 C 365.519531 152.296875 364.9375 152.179688 364.320312 152.179688 L 339.976562 152.179688 C 339.355469 152.179688 338.769531 152.296875 338.222656 152.53125 C 337.675781 152.765625 337.402344 153.195312 337.402344 153.824219 C 337.402344 154.558594 337.636719 155.066406 338.101562 155.335938 C 338.578125 155.609375 339.300781 155.75 340.269531 155.75 L 349.277344 155.75 L 349.277344 166.53125 L 342.140625 166.53125 C 339.996094 166.53125 338.027344 166.078125 336.230469 165.183594 C 334.433594 164.285156 333.011719 162.90625 331.964844 161.046875 C 330.914062 159.195312 330.386719 156.925781 330.386719 154.230469 C 330.386719 150.054688 331.378906 146.875 333.363281 144.691406 C 335.355469 142.507812 338.574219 141.417969 343.019531 141.417969 L 361.277344 141.417969 C 365.414062 141.417969 368.554688 142.523438 370.703125 144.746094 C 372.847656 146.972656 373.921875 150.214844 373.921875 154.472656 Z M 373.921875 154.472656 " fill-opacity="1" fill-rule="nonzero"/></g></svg>